<svg width="58" height="148" viewBox="0 0 58 148" fill="none" xmlns="http://www.w3.org/2000/svg">
<path d="M11.7939 0.298706C41.1444 51.4254 28.4035 110.955 19.5274 141.134" stroke="#253B3E" stroke-width="1.2"/>
<path d="M23.3356 125.62C15.1755 129.762 14.6834 144.653 16.2347 146.923C18.6017 145.739 25.1108 136.272 23.3356 125.62Z" fill="#253B3E" stroke="#253B3E"/>
<path d="M29.3407 79.1247C15.9582 83.9773 16.1947 99.8496 17.9041 106.244C22.5997 102.408 31.3302 90.1175 29.3407 79.1247Z" fill="#253B3E" stroke="#253B3E"/>
<path d="M28.3628 102.67C30.7298 112.612 36.8445 118.648 39.6059 120.423C41.9729 110.008 33.0967 104.248 28.3628 102.67Z" fill="#253B3E" stroke="#253B3E"/>
<path d="M30.356 65.3906C32.7156 76.3673 50.1043 86.0273 56.051 86.0888C57.2852 74.9136 43.1657 67.9961 30.356 65.3906Z" fill="#253B3E" stroke="#253B3E"/>
<path d="M22.0762 24.8644C25.7363 35.4787 15.8541 52.742 10.7971 55.8714C8.28432 42.9043 12.4624 33.7218 22.0762 24.8644Z" fill="#253B3E" stroke="#253B3E"/>
</svg>
