<svg width="252" height="338" viewBox="0 0 252 338" fill="none" xmlns="http://www.w3.org/2000/svg">
<path d="M247.228 69.0359C265.314 90.5083 220.1 100.269 129.671 100.269C99.5287 96.3644 35.3585 84.3849 11.8472 73.4535C-17.5421 59.7892 86.718 35.8512 100.282 22.187C113.846 8.52268 147.757 6.57064 161.321 16.3308C174.886 26.091 229.143 47.5635 247.228 69.0359Z" fill="url(#paint0_radial_527_39)"/>
<path d="M137.426 52.8794C169.369 59.9876 199.031 81.3124 199.031 90.7901" stroke="#8D6D57" stroke-width="0.3"/>
<path d="M132.687 52.8794C152.142 61.1931 173.092 90.2912 175.337 100.268" stroke="#8D6D57" stroke-width="0.3"/>
<path d="M132.687 52.8794C114.434 60.7774 75.821 81.3124 75.821 90.7901" stroke="#8D6D57" stroke-width="0.3"/>
<path d="M132.687 52.8794C88.9547 52.8794 52.1272 71.8347 52.1272 81.3124" stroke="#8D6D57" stroke-width="0.3"/>
<path d="M132.687 52.8794C112.91 67.8441 97.3184 89.7892 99.5159 94.7775" stroke="#8D6D57" stroke-width="0.3"/>
<path d="M132.687 52.8794C146.217 61.9057 151.947 95.517 151.63 100.268" stroke="#8D6D57" stroke-width="0.3"/>
<path d="M132.265 43.4019C139.076 160.406 61.89 295.763 14.2164 332.471" stroke="#DDAD76" stroke-width="2" stroke-linecap="round"/>
<path d="M161.684 7.03589C148.175 -4.22153 114.402 -1.96987 100.893 13.7908C87.3832 29.5515 -18.4377 58.8211 10.8315 74.5818C34.2474 87.1903 100.142 99.3492 130.163 103.852C220.224 103.852 265.255 92.5938 247.243 67.8269C229.23 43.0601 175.193 18.2935 161.684 7.03589ZM122.172 54.8318C135.214 53.0068 178.842 55.7487 195.062 67.6843C223.491 88.6042 182.963 99.8624 133.429 97.6111C92.9019 90.8565 61.3811 86.3529 59.1294 79.5984C51.4609 56.593 85.307 59.9908 122.172 54.8318Z" fill="#FFEBC9"/>
<path d="M161.684 7.03589C148.175 -4.22153 114.402 -1.96987 100.893 13.7908C87.3832 29.5515 -18.4377 58.8211 10.8315 74.5818C34.2474 87.1903 100.142 99.3492 130.163 103.852C220.224 103.852 265.255 92.5938 247.243 67.8269C229.23 43.0601 175.193 18.2935 161.684 7.03589ZM122.172 54.8318C135.214 53.0068 178.842 55.7487 195.062 67.6843C223.491 88.6042 182.963 99.8624 133.429 97.6111C92.9019 90.8565 61.3811 86.3529 59.1294 79.5984C51.4609 56.593 85.307 59.9908 122.172 54.8318Z" fill="url(#paint1_linear_527_39)"/>
<path d="M132.687 71.8342C125.852 172.746 62.0604 296.59 14.2164 332.47" stroke="#DDAD76" stroke-width="2" stroke-linecap="round"/>
<path d="M14.167 336.253C42.2868 352.122 130.318 159.503 135.057 83.6821C96.8593 230.119 26.7127 284.562 16.33 295.445C3.35162 309.047 -11.7373 321.633 14.167 336.253Z" fill="#DDAD76"/>
<path d="M166.727 33.5244C160.765 33.1414 152.905 29.3172 150.201 24.2382C144.445 13.4245 168.113 19.3825 172.513 27.6491C173.415 29.3419 172.968 33.9255 166.727 33.5244Z" fill="white"/>
<path d="M187.083 38.6492C184.685 38.4098 181.523 36.0204 180.436 32.8469C178.121 26.0901 187.64 29.8129 189.41 34.9781C189.773 36.0358 189.593 38.8998 187.083 38.6492Z" fill="white"/>
<defs>
<radialGradient id="paint0_radial_527_39" cx="0" cy="0" r="1" gradientTransform="matrix(-5.65282 41.2368 112.859 11.5346 133.601 59.0317)" gradientUnits="userSpaceOnUse">
<stop stop-color="#FFEED1"/>
<stop offset="1" stop-color="#E8DB86"/>
</radialGradient>
<linearGradient id="paint1_linear_527_39" x1="128.447" y1="-0.000244141" x2="128.447" y2="104.132" gradientUnits="userSpaceOnUse">
<stop stop-color="#8CC0FF"/>
<stop offset="1" stop-color="#56AC7A"/>
</linearGradient>
</defs>
</svg>
