<svg width="60" height="115" viewBox="0 0 60 115" fill="none" xmlns="http://www.w3.org/2000/svg">
<path d="M12.9528 21.528V3.87256C25.0967 7.08264 46.8789 17.5257 46.8658 17.9613C46.596 26.9673 46.6259 36.3301 30.2242 36.3301C16.4611 36.3301 13.3426 26.8484 12.9528 21.528Z" stroke="white" stroke-width="2.5"/>
<path d="M29.2347 9.84648L46.5061 2.98047L46.8659 17.9609" stroke="white" stroke-width="2.5"/>
<path d="M22.4879 6.99337C26.356 -2.63687 36.341 1.73239 37.5104 6.45836" stroke="white" stroke-width="2.5"/>
<path d="M39.8008 56.6608L32.5144 60.8309V52.4908L39.8008 56.6608Z" fill="white"/>
<path d="M19.0699 81.093L26.3562 85.263V76.9229L19.0699 81.093Z" fill="white"/>
<path d="M27.8856 35.7061V62.6351" stroke="white" stroke-width="2.5"/>
<path d="M29.6846 63.259C29.6846 64.2439 28.8791 65.0423 27.8855 65.0423C26.8919 65.0423 26.0864 64.2439 26.0864 63.259C26.0864 62.274 26.8919 61.4756 27.8855 61.4756C28.8791 61.4756 29.6846 62.274 29.6846 63.259Z" fill="white"/>
<ellipse cx="26.6263" cy="99.4621" rx="1.7991" ry="1.78338" fill="white"/>
<path d="M49.1146 87.8698C49.1146 88.8547 48.3091 89.6532 47.3155 89.6532C46.3219 89.6532 45.5164 88.8547 45.5164 87.8698C45.5164 86.8849 46.3219 86.0864 47.3155 86.0864C48.3091 86.0864 49.1146 86.8849 49.1146 87.8698Z" fill="white"/>
<path d="M31.8437 36.1519V78.0613" stroke="white" stroke-width="2.5"/>
<path d="M33.6426 78.0617C33.6426 79.0466 32.8371 79.8451 31.8435 79.8451C30.8499 79.8451 30.0444 79.0466 30.0444 78.0617C30.0444 77.0768 30.8499 76.2783 31.8435 76.2783C32.8371 76.2783 33.6426 77.0768 33.6426 78.0617Z" fill="white"/>
<path d="M32.923 84.3034C32.923 85.2883 32.1175 86.0868 31.1239 86.0868C30.1303 86.0868 29.3248 85.2883 29.3248 84.3034C29.3248 83.3185 30.1303 82.52 31.1239 82.52C32.1175 82.52 32.923 83.3185 32.923 84.3034Z" fill="white"/>
<path d="M30.9438 69.5903H26.7159V99.3728" stroke="white" stroke-width="2.5"/>
<path d="M30.9438 69.5903H26.7159V99.3728" stroke="white" stroke-width="2.5"/>
<path d="M47.3159 87.8702H31.124V84.6602" stroke="white" stroke-width="2.5"/>
<path d="M31.124 88.4048V114.531" stroke="white" stroke-width="2.5"/>
<path d="M1.25935 51.3105V56.9282C1.43926 59.3358 2.63271 63.4678 7.73611 63.7942C13.3133 64.1509 20.0599 64.1509 22.5787 64.1509M21.3193 65.0426V59.2087C21.1394 56.8012 20.5757 53.1528 15.4723 52.8264C9.89505 52.4697 2.51874 52.4697 0 52.4697M1.61916 52.6481L20.7796 63.8834M58.7406 66.1126V71.7303C58.5607 74.1378 57.3672 78.2699 52.2638 78.5963C46.6866 78.9529 39.94 78.9529 37.4212 78.9529M38.6807 79.8446V74.0108C38.8606 71.6032 39.4243 67.9549 44.5277 67.6285C50.1049 67.2718 57.4813 67.2718 60 67.2718M58.3808 67.4501L39.2204 78.6854" stroke="white" stroke-width="2.5"/>
</svg>
