<svg width="265" height="449" viewBox="0 0 265 449" fill="none" xmlns="http://www.w3.org/2000/svg">
<path d="M62.7827 142.93L86.1614 117.165H175.115L196.783 142.93V377.675L180.247 394.279C134.291 411.714 90.1904 399.36 71.5692 392.095L62.7827 377.675V142.93Z" fill="url(#paint0_linear_351_407)" fill-opacity="0.9"/>
<ellipse cx="130.283" cy="118.665" rx="45.5" ry="10.5" fill="#9CDAE0" fill-opacity="0.95"/>
<path d="M130.266 323.115C135.434 331.625 143.353 335.88 146.666 336.944" stroke="#50512E" stroke-width="3" stroke-linecap="round"/>
<path d="M100.747 162.594C104.938 167.248 115.56 185.183 117.746 194.566" stroke="#292B1A" stroke-width="3" stroke-linecap="round"/>
<path d="M122.066 281.628C125.528 290.68 133.655 309.575 138.466 312.743" stroke="#50512E" stroke-width="3" stroke-linecap="round"/>
<path d="M139.098 217.67C142.695 230.197 135.802 260.919 131.906 274.714" stroke="#50512E" stroke-width="3" stroke-linecap="round"/>
<path d="M97.4668 209.027C108.19 216.287 122.281 238.108 127.106 247.183" stroke="#50512E" stroke-width="3" stroke-linecap="round"/>
<path d="M135.186 157.169C124.69 167.955 119.853 189.012 119.306 199.499" stroke="#50512E" stroke-width="3" stroke-linecap="round"/>
<path d="M105.667 183.098C111.57 188.467 117.626 201.152 120.086 205.254" stroke="#50512E" stroke-width="3" stroke-linecap="round"/>
<path d="M145.189 281.628C148.554 288.287 145.389 314.365 143.385 326.572" stroke="#50512E" stroke-width="3" stroke-linecap="round"/>
<path d="M113.867 148.526C119.515 212.686 135.733 328.804 161.425 371.516" stroke="#292B1A" stroke-width="3" stroke-linecap="round"/>
<path d="M100.747 190.012C107.498 199.492 123.133 225.011 123.986 229.918" stroke="#292B1A" stroke-width="3" stroke-linecap="round"/>
<path d="M136.826 191.741C128.476 206.978 126.797 237.272 127.002 250.514" stroke="#292B1A" stroke-width="3" stroke-linecap="round"/>
<path d="M108.946 234.956C109.821 245.558 122.937 263.834 130.226 272.669" stroke="#292B1A" stroke-width="3" stroke-linecap="round"/>
<path d="M104.027 252.242C115.834 269.77 126.439 274.527 130.266 274.714" stroke="#292B1A" stroke-width="3" stroke-linecap="round"/>
<path d="M148.305 243.599C148.305 253.69 139.653 283.964 133.546 285.086" stroke="#292B1A" stroke-width="3" stroke-linecap="round"/>
<path d="M110.586 281.628C123.397 298.637 137.878 313.299 140.106 314.472" stroke="#292B1A" stroke-width="3" stroke-linecap="round"/>
<path d="M153 300.643C156.959 314.77 153.707 339.949 151.585 350.773" stroke="#292B1A" stroke-width="3" stroke-linecap="round"/>
<g filter="url(#filter0_dddddd_351_407)">
<path d="M84.0321 231.315C84.0203 237.24 81.5821 241.432 75.7826 241.476V241.479C82.8761 241.494 84.0319 246.092 84.0319 251.73C84.0228 251.083 84.0218 251.176 84.0199 251.268L84.0348 252.007C84.0329 251.916 84.0319 251.824 84.0319 251.733C84.0348 244.859 86.0919 241.242 92.3654 241.481C92.4503 241.485 92.5345 241.489 92.618 241.494V241.464C92.5899 241.468 92.5618 241.472 92.5338 241.476C86.4223 241.476 84.0577 236.935 84.0321 231.315Z" fill="#FFD58C"/>
<path d="M107.913 344.801C107.897 352.923 104.545 358.67 96.5703 358.729V358.733C106.324 358.754 107.913 365.057 107.913 372.786C107.901 371.899 107.899 372.026 107.897 372.152L107.917 373.165C107.914 373.04 107.913 372.915 107.913 372.789C107.917 363.367 110.746 358.408 119.372 358.737C119.488 358.741 119.604 358.747 119.719 358.754V358.713C119.68 358.719 119.642 358.724 119.603 358.73C111.2 358.73 107.949 352.505 107.913 344.801Z" fill="#FFD58C"/>
<path d="M176.977 197.165C176.961 205.288 173.608 211.035 165.634 211.094V211.098C175.388 211.118 176.977 217.422 176.977 225.15C176.964 224.264 176.963 224.391 176.96 224.517L176.981 225.53C176.978 225.405 176.977 225.28 176.977 225.154C176.981 215.732 179.809 210.773 188.435 211.102C188.552 211.106 188.668 211.112 188.783 211.118V211.078C188.744 211.084 188.706 211.089 188.667 211.095C180.264 211.095 177.012 204.87 176.977 197.165Z" fill="#FFD58C"/>
</g>
<path d="M92.871 88.0674L85.2352 6.9895H174.351L168.558 88.0674C143.585 98.6428 107.514 93.9426 92.871 88.0674Z" fill="#8D6D57"/>
<ellipse cx="129.793" cy="6.98945" rx="44.5577" ry="6.98945" fill="#6F5340"/>
<path d="M72.7827 36.39C83.7229 24.2995 180.5 26.0267 183.328 36.39C184.741 41.5717 183.712 53.2783 183.328 56.5414C181.777 56.8688 180.001 57.214 178.019 57.5668L175.843 104.906L205.783 136.572V380.693L189.661 399.117C139.455 418.001 86.2169 406.985 65.8735 399.117L53.7827 380.693V135.996L82.5708 104.906L80.4028 57.7777C78.2522 57.3975 76.095 56.9863 73.9341 56.5414C72.5524 52.3957 72.207 40.9959 72.7827 36.39Z" fill="#D9D9D9" fill-opacity="0.5"/>
<g filter="url(#filter1_d_351_407)">
<path d="M87.7827 54.1654C109.658 59.4987 156.908 59.4987 171.783 54.1654" stroke="#A19288" stroke-opacity="0.1" shape-rendering="crispEdges"/>
</g>
<rect x="74.7827" y="314.165" width="10" height="67" rx="5" fill="white" fill-opacity="0.4"/>
<ellipse cx="79.7827" cy="300.665" rx="5" ry="5.5" fill="white" fill-opacity="0.4"/>
<defs>
<filter id="filter0_dddddd_351_407" x="5.34058e-05" y="121.383" width="264.565" height="327.565" filterUnits="userSpaceOnUse" color-interpolation-filters="sRGB">
<feFlood flood-opacity="0" result="BackgroundImageFix"/>
<feColorMatrix in="SourceAlpha" type="matrix" values="0 0 0 0 0 0 0 0 0 0 0 0 0 0 0 0 0 0 127 0" result="hardAlpha"/>
<feOffset/>
<feGaussianBlur stdDeviation="0.902173"/>
<feColorMatrix type="matrix" values="0 0 0 0 1 0 0 0 0 0.835294 0 0 0 0 0.54902 0 0 0 1 0"/>
<feBlend mode="normal" in2="BackgroundImageFix" result="effect1_dropShadow_351_407"/>
<feColorMatrix in="SourceAlpha" type="matrix" values="0 0 0 0 0 0 0 0 0 0 0 0 0 0 0 0 0 0 127 0" result="hardAlpha"/>
<feOffset/>
<feGaussianBlur stdDeviation="1.80435"/>
<feColorMatrix type="matrix" values="0 0 0 0 1 0 0 0 0 0.835294 0 0 0 0 0.54902 0 0 0 1 0"/>
<feBlend mode="normal" in2="effect1_dropShadow_351_407" result="effect2_dropShadow_351_407"/>
<feColorMatrix in="SourceAlpha" type="matrix" values="0 0 0 0 0 0 0 0 0 0 0 0 0 0 0 0 0 0 127 0" result="hardAlpha"/>
<feOffset/>
<feGaussianBlur stdDeviation="6.31521"/>
<feColorMatrix type="matrix" values="0 0 0 0 1 0 0 0 0 0.835294 0 0 0 0 0.54902 0 0 0 1 0"/>
<feBlend mode="normal" in2="effect2_dropShadow_351_407" result="effect3_dropShadow_351_407"/>
<feColorMatrix in="SourceAlpha" type="matrix" values="0 0 0 0 0 0 0 0 0 0 0 0 0 0 0 0 0 0 127 0" result="hardAlpha"/>
<feOffset/>
<feGaussianBlur stdDeviation="12.6304"/>
<feColorMatrix type="matrix" values="0 0 0 0 1 0 0 0 0 0.835294 0 0 0 0 0.54902 0 0 0 1 0"/>
<feBlend mode="normal" in2="effect3_dropShadow_351_407" result="effect4_dropShadow_351_407"/>
<feColorMatrix in="SourceAlpha" type="matrix" values="0 0 0 0 0 0 0 0 0 0 0 0 0 0 0 0 0 0 127 0" result="hardAlpha"/>
<feOffset/>
<feGaussianBlur stdDeviation="21.6522"/>
<feColorMatrix type="matrix" values="0 0 0 0 1 0 0 0 0 0.835294 0 0 0 0 0.54902 0 0 0 1 0"/>
<feBlend mode="normal" in2="effect4_dropShadow_351_407" result="effect5_dropShadow_351_407"/>
<feColorMatrix in="SourceAlpha" type="matrix" values="0 0 0 0 0 0 0 0 0 0 0 0 0 0 0 0 0 0 127 0" result="hardAlpha"/>
<feOffset/>
<feGaussianBlur stdDeviation="37.8913"/>
<feColorMatrix type="matrix" values="0 0 0 0 1 0 0 0 0 0.835294 0 0 0 0 0.54902 0 0 0 1 0"/>
<feBlend mode="normal" in2="effect5_dropShadow_351_407" result="effect6_dropShadow_351_407"/>
<feBlend mode="normal" in="SourceGraphic" in2="effect6_dropShadow_351_407" result="shape"/>
</filter>
<filter id="filter1_d_351_407" x="82.0643" y="52.0797" width="95.4871" height="16.1857" filterUnits="userSpaceOnUse" color-interpolation-filters="sRGB">
<feFlood flood-opacity="0" result="BackgroundImageFix"/>
<feColorMatrix in="SourceAlpha" type="matrix" values="0 0 0 0 0 0 0 0 0 0 0 0 0 0 0 0 0 0 127 0" result="hardAlpha"/>
<feOffset dy="4"/>
<feGaussianBlur stdDeviation="2.8"/>
<feComposite in2="hardAlpha" operator="out"/>
<feColorMatrix type="matrix" values="0 0 0 0 0 0 0 0 0 0 0 0 0 0 0 0 0 0 0.45 0"/>
<feBlend mode="normal" in2="BackgroundImageFix" result="effect1_dropShadow_351_407"/>
<feBlend mode="normal" in="SourceGraphic" in2="effect1_dropShadow_351_407" result="shape"/>
</filter>
<linearGradient id="paint0_linear_351_407" x1="129.783" y1="117.165" x2="129.783" y2="403.165" gradientUnits="userSpaceOnUse">
<stop stop-color="#46BAC9"/>
<stop offset="1" stop-color="#23A87E"/>
</linearGradient>
</defs>
</svg>
