<svg width="1503" height="1257" viewBox="0 0 1503 1257" fill="none" xmlns="http://www.w3.org/2000/svg">
<path d="M83.538 478.146C87.6992 483.087 77.2961 485.332 56.49 485.332C49.5546 484.434 34.79 481.851 29.3804 479.336C22.6184 476.192 47.0656 470.353 50.1866 467.209C53.3075 464.065 60.6512 463.774 63.7721 466.02C66.893 468.265 79.3767 473.206 83.538 478.146Z" fill="url(#paint0_radial_458_2)"/>
<path d="M58.2741 474.429C65.6238 476.064 72.4485 480.971 72.4485 483.152" stroke="#8D6D57" stroke-width="0.3"/>
<path d="M57.1839 474.429C61.66 476.342 66.4804 483.037 66.9968 485.332" stroke="#8D6D57" stroke-width="0.3"/>
<path d="M57.1839 474.429C52.9841 476.246 44.0999 480.971 44.0999 483.152" stroke="#8D6D57" stroke-width="0.3"/>
<path d="M57.1838 474.429C47.1216 474.429 38.6482 478.79 38.6482 480.971" stroke="#8D6D57" stroke-width="0.3"/>
<path d="M57.1838 474.429C52.6334 477.872 49.0459 483.639 49.5515 484.787" stroke="#8D6D57" stroke-width="0.3"/>
<path d="M57.1838 474.429C60.297 476.506 61.6152 484.239 61.5423 485.332" stroke="#8D6D57" stroke-width="0.3"/>
<path d="M57.0868 472.248C58.6537 499.169 40.8945 530.312 29.9255 538.758" stroke="#FFD58C" stroke-width="2" stroke-linecap="round"/>
<path d="M63.856 463.881C60.7478 461.291 52.9771 461.809 49.8687 465.435C46.7604 469.061 22.4125 475.796 29.147 479.422C34.5349 482.323 49.6959 485.121 56.6031 486.157C77.3244 486.157 87.6852 483.567 83.5416 477.869C79.3974 472.17 66.9648 466.472 63.856 463.881ZM54.7642 474.878C57.7648 474.459 67.8025 475.089 71.5347 477.835C78.0758 482.649 68.751 485.239 57.3541 484.721C48.0296 483.167 40.7775 482.131 40.2593 480.577C38.4949 475.284 46.2821 476.065 54.7642 474.878Z" fill="#FFEBC9"/>
<path d="M63.856 463.881C60.7478 461.291 52.9771 461.809 49.8687 465.435C46.7604 469.061 22.4125 475.796 29.147 479.422C34.5349 482.323 49.6959 485.121 56.6031 486.157C77.3244 486.157 87.6852 483.567 83.5416 477.869C79.3974 472.17 66.9648 466.472 63.856 463.881ZM54.7642 474.878C57.7648 474.459 67.8025 475.089 71.5347 477.835C78.0758 482.649 68.751 485.239 57.3541 484.721C48.0296 483.167 40.7775 482.131 40.2593 480.577C38.4949 475.284 46.2821 476.065 54.7642 474.878Z" fill="url(#paint1_linear_458_2)"/>
<path d="M57.1839 478.79C55.6113 502.009 40.9337 530.503 29.9255 538.759" stroke="#FFD58C" stroke-width="2" stroke-linecap="round"/>
<path d="M29.9142 539.628C36.3841 543.28 56.6387 498.961 57.729 481.516C51.2656 510.205 32.8008 527.735 30.4119 530.239C27.4257 533.369 23.954 536.265 29.9142 539.628Z" fill="#FFD58C"/>
<path d="M65.0155 469.975C63.6439 469.887 61.8354 469.007 61.2133 467.839C59.8889 465.351 65.3345 466.721 66.347 468.623C66.5544 469.013 66.4516 470.068 65.0155 469.975Z" fill="white"/>
<path d="M69.6995 471.154C69.1478 471.099 68.4204 470.549 68.1702 469.819C67.6375 468.264 69.8278 469.121 70.235 470.309C70.3184 470.553 70.2771 471.212 69.6995 471.154Z" fill="white"/>
<path d="M-17.0003 454.561C-21.601 460.023 -10.0993 462.506 12.9042 462.506C20.572 461.513 36.8958 458.656 42.8767 455.876C50.3528 452.4 23.3238 445.944 19.8733 442.468C16.4227 438.992 8.3035 438.671 4.85298 441.154C1.40246 443.636 -12.3996 449.099 -17.0003 454.561Z" fill="url(#paint2_radial_458_2)"/>
<path d="M10.9315 450.451C2.80568 452.26 -4.73972 457.684 -4.73972 460.095" stroke="#8D6D57" stroke-width="0.3"/>
<path d="M12.1369 450.451C7.18813 452.566 1.85864 459.968 1.28763 462.506" stroke="#8D6D57" stroke-width="0.3"/>
<path d="M12.1369 450.451C16.7803 452.461 26.6027 457.684 26.6027 460.095" stroke="#8D6D57" stroke-width="0.3"/>
<path d="M12.137 450.451C23.2618 450.451 32.6301 455.273 32.6301 457.684" stroke="#8D6D57" stroke-width="0.3"/>
<path d="M12.137 450.451C17.168 454.258 21.1344 460.635 20.5754 461.903" stroke="#8D6D57" stroke-width="0.3"/>
<path d="M12.137 450.451C8.69501 452.748 7.23759 461.298 7.31822 462.506" stroke="#8D6D57" stroke-width="0.3"/>
<path d="M12.2443 448.04C10.5118 477.804 30.1466 512.237 42.2739 521.575" stroke="#FFD58C" stroke-width="2" stroke-linecap="round"/>
<path d="M4.76028 438.79C8.1968 435.926 16.7886 436.499 20.2251 440.508C23.662 444.517 50.5806 451.963 43.1353 455.973C37.1786 459.18 20.4155 462.272 12.7788 463.418C-10.131 463.418 -21.5862 460.554 -17.0044 454.254C-12.4225 447.954 1.32325 441.654 4.76028 438.79ZM14.812 450.948C11.4945 450.484 0.396164 451.182 -3.72995 454.218C-10.9616 459.539 -0.652548 462.403 11.9478 461.83C22.2573 460.112 30.2764 458.966 30.8491 457.248C32.7996 451.396 24.1898 452.261 14.812 450.948Z" fill="#FFEBC9"/>
<path d="M4.76028 438.79C8.1968 435.926 16.7886 436.499 20.2251 440.508C23.662 444.517 50.5806 451.963 43.1353 455.973C37.1786 459.18 20.4155 462.272 12.7788 463.418C-10.131 463.418 -21.5862 460.554 -17.0044 454.254C-12.4225 447.954 1.32325 441.654 4.76028 438.79ZM14.812 450.948C11.4945 450.484 0.396164 451.182 -3.72995 454.218C-10.9616 459.539 -0.652548 462.403 11.9478 461.83C22.2573 460.112 30.2764 458.966 30.8491 457.248C32.7996 451.396 24.1898 452.261 14.812 450.948Z" fill="url(#paint3_linear_458_2)"/>
<path d="M12.1369 455.273C13.8756 480.944 30.1032 512.448 42.2739 521.575" stroke="#FFD58C" stroke-width="2" stroke-linecap="round"/>
<path d="M42.2865 522.537C35.1333 526.574 12.7397 477.575 11.5342 458.287C18.6802 490.006 39.0951 509.387 41.7363 512.156C45.0377 515.616 48.8761 518.818 42.2865 522.537Z" fill="#FFD58C"/>
<path d="M3.47812 445.527C4.99463 445.43 6.99412 444.457 7.68187 443.165C9.14617 440.414 3.12547 441.93 2.00603 444.032C1.77678 444.463 1.89039 445.629 3.47812 445.527Z" fill="white"/>
<path d="M-1.70041 446.83C-1.09044 446.769 -0.28621 446.162 -0.00958514 445.354C0.579386 443.636 -1.84225 444.583 -2.29251 445.896C-2.38472 446.166 -2.33902 446.894 -1.70041 446.83Z" fill="white"/>
<path d="M1185 488.077C1134.77 482.408 950.448 474.472 615 488.077V549.565H1153.55L1185 488.077Z" fill="#414324"/>
<path d="M229.208 729.211C170.122 801.442 -32.0817 729.211 -123.992 785.682V1420H1621L1581.61 674.053C1395.16 665.298 1095.8 674.053 1095.8 636.254C1095.8 598.455 1238.9 649.161 1255.8 586.063C1272.69 522.965 1057.53 534.558 801.494 534.558C545.457 534.558 573.217 505.952 896.218 481C747.847 481 150.74 492.533 -71.1586 534.558C-362.719 589.777 -458.497 638.594 -71.1586 618.895C155.699 607.358 288.293 656.98 229.208 729.211Z" fill="url(#paint4_linear_458_2)"/>
<path d="M1024.75 655.565L875 527.565H1078.6L1185 606.74L1024.75 655.565Z" fill="url(#paint5_linear_458_2)"/>
<g filter="url(#filter0_f_458_2)">
<path d="M1005.64 1013.67C1017.11 1019.81 1008.03 1005.3 1002.05 997.282C997.617 984.311 989.561 956.321 992.838 948.128C996.115 939.935 1007.52 922.867 1012.81 915.357L1014.86 904.605L1031.75 891.805V906.141L1017.93 915.357V934.814L1022.02 938.911L1023.56 927.646L1048.14 966.049L1030.22 924.574L1031.75 913.31L1036.87 908.701C1047.11 916.723 1068.62 935.839 1072.71 948.128C1077.83 963.488 1080.39 952.224 1079.37 948.128C1078.35 944.032 1054.28 906.653 1044.04 902.557L1046.09 884.636L1065.55 874.396L1053.77 891.805V904.605L1057.87 898.973L1064.01 913.31C1067.42 915.528 1072.2 915.767 1064.01 898.973L1061.96 891.805L1072.71 874.396L1081.93 872.859L1072.71 890.269L1073.74 931.742L1079.37 924.574V896.925L1086.54 906.141V924.574H1092.17V900.509L1083.98 890.269L1097.58 858.37L1107.53 856.475L1113.56 858.197L1121.87 872.859V880.027L1113.16 890.269L1117.26 917.918L1121.87 891.805L1126.99 908.701L1131.09 902.557L1126.99 874.396C1135.35 877.638 1152.28 887.81 1153.1 902.557C1154.13 920.99 1159.25 932.254 1159.25 920.478C1159.25 908.701 1160.78 902.045 1162.32 913.31C1163.55 922.321 1161.81 947.444 1160.78 958.88C1163 962.805 1167.44 967.482 1167.44 954.784C1170.85 933.791 1169.8 888.016 1138.25 872.859L1151.57 874.396L1165.9 898.973H1169.49L1159.25 876.955L1176.66 896.925C1178.88 907.336 1182.39 930.309 1178.7 938.911C1174.1 949.664 1184.34 945.055 1186.39 934.814C1188.02 926.623 1192.19 944.714 1194.07 954.784V978.85L1189.97 990.114L1200.21 981.922L1198.16 938.911L1184.34 910.749V895.389L1167.44 876.955H1178.7L1189.97 890.269V913.31L1198.16 906.141C1204.72 908.189 1204.99 919.283 1204.31 924.574L1209.43 915.357C1213.52 917.235 1221.72 922.936 1221.72 930.719C1221.72 940.447 1221.72 961.953 1218.64 978.85C1215.57 995.746 1218.64 1001.89 1221.72 992.674C1224.17 985.3 1226.84 961.27 1227.86 950.176V927.646L1206.87 898.973L1236.05 920.478L1264.21 978.85C1266.94 981.58 1270.77 983.151 1264.21 967.585C1256.02 948.128 1252.44 945.568 1264.21 950.176C1272.82 953.862 1277.01 954.784 1278.04 954.784C1281.79 953.931 1287.05 951.405 1278.04 948.128C1266.77 944.032 1256.53 943.007 1251.93 938.911C1248.24 935.634 1241.86 920.478 1239.12 913.31L1212.5 891.805L1204.31 890.269L1182.8 869.275L1150.03 865.179L1138.25 861.083L1129.84 852.665L1130.57 852.379L1139.79 844.698L1153.62 858.522C1158.91 858.522 1169.9 859.137 1171.54 861.595C1173.18 864.052 1172.22 856.475 1171.54 852.379L1134.16 823.705L1130.57 737.172C1130.57 717.1 1118.63 699.452 1112.65 693.137V674.704L1080.4 631.182L1074.25 610.188C1075.45 596.535 1077.12 567.076 1074.25 558.474C1071.38 549.872 1073.06 528.946 1074.25 519.559L1077.83 486.789H1061.96C1061.62 501.638 1060.43 532.974 1058.38 539.528C1055.82 547.721 1052.75 579.979 1053.26 599.436C1053.67 615.001 1053.43 627.085 1053.26 631.182C1045.88 626.266 1024.92 627.426 1015.37 628.621L1005.13 604.044V560.521L991.814 533.384C990.108 523.997 986.284 504.096 984.645 499.59C983.007 495.084 983.963 486.447 984.645 482.692H971.845L974.405 501.126C977.819 514.951 984.645 546.185 984.645 560.521C984.645 574.858 986.694 611.895 987.718 628.621C973.04 629.474 943.07 631.182 940.611 631.182V624.525L906.817 585.099L903.233 530.823L911.426 499.59H903.233L892.48 569.226L894.016 507.782L896.064 498.054H883.264C883.264 518.945 878.826 548.403 876.607 560.521L875.071 591.755L891.456 611.212L871.999 691.089L863.295 719.763L844.349 700.817L863.295 744.34L894.016 767.382C900.98 773.117 915.351 780.353 921.666 783.255L1000.01 767.382L1034.83 778.134L1065.55 773.525C1070.84 778.816 1081.21 793.086 1080.4 807.832C1079.58 822.578 1076.64 836.847 1075.28 842.138C1052.75 840.499 1038.92 854.426 1034.83 861.595C1046.94 860.4 1073.02 856.885 1080.4 852.379L1088.42 855.39L1044.04 872.859L1039.95 884.636H1019.98L1005.64 906.141L966.724 930.719C965.871 933.962 967.442 938.501 980.55 930.719C993.657 922.936 1002.74 917.235 1005.64 915.357L971.333 971.681L987.206 952.736C988.571 970.487 994.17 1007.52 1005.64 1013.67Z" fill="#522E22" fill-opacity="0.2"/>
</g>
<path d="M1183.2 631.519C1187.78 647.29 1183.82 652.193 1011.21 651.784L1040.87 660.027L1052.31 673.319C1058.77 669.832 1072.06 666.562 1073.45 681.381C1073.78 684.922 1084.36 686.67 1096.08 686.919C1105.45 687.119 1124.56 699.867 1132.54 708.736L1161.3 709.347L1181.74 699.995L1223.98 718.292L1284.85 711.975L1297.17 733.986L1326.74 746.576C1328.44 750.237 1339.9 758.818 1372.19 763.854C1404.48 768.891 1411.07 773.018 1410.33 774.452L1430.17 793.36C1444.01 794.017 1472.08 796.862 1473.66 802.985C1475.23 809.108 1510.57 837.48 1528.05 850.901L1528.02 617.12C1407.96 617.467 1178.61 615.733 1183.2 631.519Z" fill="url(#paint6_linear_458_2)" fill-opacity="0.2"/>
<path d="M-60.7073 931.565L-91 771.494H113.146L276.463 746.565L287 814.792L-60.7073 931.565Z" fill="url(#paint7_linear_458_2)"/>
<path d="M1543.72 595.3C1351.3 596.302 1155.09 619.283 1155.09 595.3C1155.09 534.352 806.262 531.993 815.933 531.993C819.755 531.993 833.483 526.23 852.263 525.831C867.287 525.511 898.056 511.704 910.948 502.159L957.044 501.179L989.704 510.914L1057.6 490.928L1155.09 496.967L1175.08 473.364L1222.61 459.606C1225.38 455.684 1243.85 446.406 1295.66 440.669C1347.46 434.932 1358.07 430.457 1356.9 428.937L1388.92 408.555C1411.1 407.697 1456.12 404.344 1458.72 397.799C1461.31 391.255 1515.56 263.419 1543.72 248.913L1543.72 595.3Z" fill="url(#paint8_linear_458_2)" fill-opacity="0.9"/>
<path d="M1285.19 425.978C1275.17 437.881 1300.23 443.291 1350.35 443.291C1367.06 441.127 1402.63 434.903 1415.66 428.843C1431.96 421.269 1373.06 407.203 1365.54 399.629C1358.02 392.055 1340.33 391.354 1332.81 396.764C1325.29 402.174 1295.22 414.076 1285.19 425.978Z" fill="url(#paint9_radial_458_2)"/>
<path d="M1346.06 417.023C1328.35 420.963 1311.91 432.783 1311.91 438.037" stroke="#8D6D57" stroke-width="0.3"/>
<path d="M1348.68 417.023C1337.9 421.631 1326.29 437.76 1325.04 443.29" stroke="#8D6D57" stroke-width="0.3"/>
<path d="M1348.68 417.023C1358.8 421.401 1380.2 432.783 1380.2 438.037" stroke="#8D6D57" stroke-width="0.3"/>
<path d="M1348.68 417.023C1372.92 417.023 1393.34 427.53 1393.34 432.783" stroke="#8D6D57" stroke-width="0.3"/>
<path d="M1348.68 417.023C1359.65 425.318 1368.29 439.212 1367.07 441.977" stroke="#8D6D57" stroke-width="0.3"/>
<path d="M1348.68 417.023C1341.18 422.026 1338.01 440.657 1338.18 443.29" stroke="#8D6D57" stroke-width="0.3"/>
<path d="M1348.92 411.769C1345.14 476.625 1387.93 551.653 1414.35 572" stroke="#FFD58C" stroke-width="2" stroke-linecap="round"/>
<path d="M1332.61 391.612C1340.1 385.372 1358.82 386.62 1366.31 395.356C1373.79 404.092 1432.45 420.317 1416.23 429.053C1403.25 436.042 1366.72 442.782 1350.08 445.278C1300.16 445.278 1275.2 439.037 1285.18 425.309C1295.17 411.581 1325.12 397.852 1332.61 391.612ZM1354.51 418.105C1347.28 417.093 1323.1 418.614 1314.11 425.23C1298.35 436.826 1320.81 443.066 1348.27 441.818C1370.74 438.074 1388.21 435.578 1389.46 431.833C1393.71 419.082 1374.95 420.965 1354.51 418.105Z" fill="#FFEBC9"/>
<path d="M1332.61 391.612C1340.1 385.372 1358.82 386.62 1366.31 395.356C1373.79 404.092 1432.45 420.317 1416.23 429.053C1403.25 436.042 1366.72 442.782 1350.08 445.278C1300.16 445.278 1275.2 439.037 1285.18 425.309C1295.17 411.581 1325.12 397.852 1332.61 391.612ZM1354.51 418.105C1347.28 417.093 1323.1 418.614 1314.11 425.23C1298.35 436.826 1320.81 443.066 1348.27 441.818C1370.74 438.074 1388.21 435.578 1389.46 431.833C1393.71 419.082 1374.95 420.965 1354.51 418.105Z" fill="url(#paint10_linear_458_2)"/>
<path d="M1348.68 427.53C1352.47 483.465 1387.83 552.112 1414.35 572" stroke="#FFD58C" stroke-width="2" stroke-linecap="round"/>
<path d="M1414.38 574.097C1398.79 582.893 1350 476.124 1347.37 434.097C1362.94 503.213 1407.42 545.445 1413.18 551.477C1420.37 559.017 1428.74 565.993 1414.38 574.097Z" fill="#FFD58C"/>
<path d="M1329.82 406.294C1333.12 406.082 1337.48 403.962 1338.98 401.147C1342.17 395.153 1329.05 398.456 1326.61 403.038C1326.11 403.976 1326.36 406.517 1329.82 406.294Z" fill="white"/>
<path d="M1318.53 409.134C1319.86 409.001 1321.61 407.677 1322.22 405.918C1323.5 402.173 1318.22 404.236 1317.24 407.099C1317.04 407.685 1317.14 409.273 1318.53 409.134Z" fill="white"/>
<path d="M1339.68 518.745C1348.43 529.142 1326.54 533.868 1282.76 533.868C1268.16 531.977 1236.61 526.073 1225.23 520.781C1211 514.165 1261.96 502.678 1268.53 496.062C1275.1 489.446 1291.51 488.501 1298.08 493.227C1304.65 497.952 1330.92 508.349 1339.68 518.745Z" fill="url(#paint11_radial_458_2)"/>
<path d="M1286.51 510.923C1301.98 514.365 1316.34 524.69 1316.34 529.279" stroke="#8D6D57" stroke-width="0.3"/>
<path d="M1284.22 510.923C1293.64 514.949 1303.78 529.038 1304.87 533.868" stroke="#8D6D57" stroke-width="0.3"/>
<path d="M1284.22 510.923C1275.38 514.747 1256.68 524.69 1256.68 529.279" stroke="#8D6D57" stroke-width="0.3"/>
<path d="M1284.22 510.923C1263.04 510.923 1245.21 520.101 1245.21 524.69" stroke="#8D6D57" stroke-width="0.3"/>
<path d="M1284.22 510.923C1274.64 518.169 1267.5 530.186 1268.57 532.601" stroke="#8D6D57" stroke-width="0.3"/>
<path d="M1284.22 510.923C1290.77 515.294 1293.54 531.568 1293.39 533.868" stroke="#8D6D57" stroke-width="0.3"/>
<path d="M1284.01 506.334C1287.31 562.986 1249.94 628.524 1226.86 646.297" stroke="#FFD58C" stroke-width="2" stroke-linecap="round"/>
<path d="M1298.26 488.727C1291.72 483.276 1275.37 484.366 1268.82 491.997C1262.28 499.628 1211.05 513.8 1225.22 521.431C1236.56 527.536 1268.46 533.422 1283 535.603C1326.6 535.603 1348.4 530.152 1339.68 518.16C1330.96 506.169 1304.8 494.178 1298.26 488.727ZM1279.13 511.868C1285.44 510.985 1306.57 512.312 1314.42 518.091C1328.18 528.22 1308.56 533.671 1284.58 532.581C1264.95 529.311 1249.69 527.13 1248.6 523.86C1244.89 512.721 1261.28 514.366 1279.13 511.868Z" fill="#FFEBC9"/>
<path d="M1298.26 488.727C1291.72 483.276 1275.37 484.366 1268.82 491.997C1262.28 499.628 1211.05 513.8 1225.22 521.431C1236.56 527.536 1268.46 533.422 1283 535.603C1326.6 535.603 1348.4 530.152 1339.68 518.16C1330.96 506.169 1304.8 494.178 1298.26 488.727ZM1279.13 511.868C1285.44 510.985 1306.57 512.312 1314.42 518.091C1328.18 528.22 1308.56 533.671 1284.58 532.581C1264.95 529.311 1249.69 527.13 1248.6 523.86C1244.89 512.721 1261.28 514.366 1279.13 511.868Z" fill="url(#paint12_linear_458_2)"/>
<path d="M1284.22 520.101C1280.91 568.961 1250.02 628.924 1226.86 646.296" stroke="#FFD58C" stroke-width="2" stroke-linecap="round"/>
<path d="M1226.83 648.128C1240.45 655.812 1283.07 562.549 1285.37 525.837C1271.76 586.211 1232.91 623.1 1227.88 628.369C1221.6 634.955 1214.29 641.049 1226.83 648.128Z" fill="#FFD58C"/>
<path d="M1300.7 501.551C1297.81 501.366 1294.01 499.514 1292.7 497.055C1289.91 491.819 1301.37 494.704 1303.5 498.706C1303.94 499.526 1303.72 501.745 1300.7 501.551Z" fill="white"/>
<path d="M1310.56 504.032C1309.39 503.916 1307.86 502.759 1307.34 501.223C1306.22 497.951 1310.83 499.754 1311.68 502.255C1311.86 502.767 1311.77 504.153 1310.56 504.032Z" fill="white"/>
<path d="M-139.786 385.407L-253.627 774.261C-85.0336 774.074 370.856 803.895 256.267 713.38C247.676 706.594 322.109 644.29 312.913 634.823L279.83 634.119L256.328 644.049L207.71 624.473L146.21 624.618L123.485 607.617L89.4483 594.145C87.4883 590.241 74.2806 581.075 37.1303 575.65C-0.0199467 570.224 -7.60811 565.813 -6.7584 564.286L-29.6201 544.099C-45.5407 543.374 -77.8375 540.292 -79.66 533.764C-81.4825 527.235 -119.66 399.742 -139.786 385.407Z" fill="url(#paint13_linear_458_2)"/>
<path d="M1192 679C1196.58 663.229 1197.12 655.134 1024.5 655.543L1054.16 647.3L1065.6 634.008C1072.07 637.495 1085.35 640.764 1086.74 625.946C1087.08 622.404 1097.66 620.657 1109.37 620.407C1118.75 620.208 1137.85 607.46 1145.84 598.591L1177.5 595.352L1196.5 602L1237.27 589.034L1298.15 595.352L1310.47 573.341L1340.03 560.751C1341.73 557.09 1353.2 548.509 1385.49 543.472C1417.77 538.436 1424.36 534.309 1423.62 532.875L1443.47 513.966C1457.31 513.31 1485.38 510.465 1486.95 504.342C1488.53 498.219 1523.87 469.847 1541.34 456.426L1541.32 690.206C1421.25 689.86 1187.42 694.785 1192 679Z" fill="url(#paint14_linear_458_2)"/>
<path d="M631.312 516.345C620.812 507.481 774.375 492.634 903 481L540 487.5L357 530.565H737.625C703.5 529.272 649.688 531.858 631.312 516.345Z" fill="url(#paint15_linear_458_2)"/>
<path d="M-91 814.65C-7.10886 632.797 219.482 495.536 335.334 459.629C346.933 455.889 358.187 453.162 369 451.565C359.319 452.995 347.987 455.707 335.334 459.629C173.674 511.752 -54.9598 760.546 -91 886.565V814.65Z" fill="#253B3E"/>
<path d="M-40 901.125C-17.2281 841.635 24.1884 756.981 72.1724 674.202C117.762 541.799 184.957 419.423 306 401.565C245.151 410.542 150.019 539.905 72.1724 674.202C23.1664 816.527 -0.874783 970.437 -40 1018.56V901.125Z" fill="#253B3E"/>
<g filter="url(#filter1_f_458_2)">
<path d="M921.666 233.89C915.351 236.792 900.98 244.029 894.016 249.763L863.295 272.805L844.349 316.327L863.295 297.382L871.999 326.056L891.456 405.932L875.071 425.39L876.607 456.623C878.826 468.741 883.264 498.2 883.264 519.091H896.064L894.016 509.362L892.48 447.919L903.233 517.555H911.425L903.233 486.321L906.817 432.046L940.611 392.62V385.963C943.069 385.963 973.04 387.67 987.718 388.523C986.694 405.25 984.646 442.287 984.646 456.623C984.646 470.96 977.819 502.194 974.405 516.019L971.845 534.452H984.646C983.963 530.697 983.007 522.061 984.646 517.555C986.284 513.049 990.107 493.148 991.814 483.761L1005.13 456.623V413.101L1015.37 388.523C1024.93 389.718 1045.88 390.879 1053.26 385.963C1053.43 390.06 1053.67 402.143 1053.26 417.709C1052.75 437.166 1055.82 469.424 1058.38 477.617C1060.43 484.171 1061.62 515.507 1061.96 530.356H1077.84L1074.25 497.586C1073.06 488.199 1071.38 467.274 1074.25 458.672C1077.12 450.069 1075.45 420.611 1074.25 406.956L1080.4 385.963L1112.65 342.441V324.008C1118.63 317.693 1130.57 300.045 1130.57 279.973L1134.16 193.44L1171.54 164.766C1172.22 160.67 1173.18 153.092 1171.54 155.55C1169.9 158.008 1158.91 158.622 1153.62 158.622L1139.79 172.447L1130.57 164.766L1114.7 158.622L1107.53 160.67L1096.78 158.622L1080.4 164.766C1073.02 160.26 1046.94 156.745 1034.82 155.55C1038.92 162.718 1052.75 176.645 1075.27 175.007C1076.64 180.298 1079.58 194.566 1080.4 209.313C1081.21 224.059 1070.84 238.328 1065.55 243.619L1034.82 239.011L1000.01 249.763L921.666 233.89Z" fill="#522E22"/>
<path d="M1044.04 144.285L1092.17 163.23L1098.83 161.694L1083.98 126.876L1092.17 116.635V92.57H1086.54V111.003L1079.37 120.22V92.57L1073.74 85.4016L1072.71 126.876L1081.93 144.285L1072.71 142.749L1061.96 125.34L1064.01 118.172C1072.2 101.377 1067.42 101.616 1064.01 103.835L1057.87 118.172L1053.77 112.539V125.34L1065.55 142.749L1046.09 132.508L1044.04 114.587C1054.28 110.491 1078.35 73.1129 1079.37 69.0166C1080.4 64.9204 1077.84 53.6558 1072.71 69.0166C1068.62 81.3054 1047.11 100.421 1036.87 108.443L1031.75 103.835L1030.22 92.57L1048.14 51.0956L1023.56 89.4978L1022.02 78.2332L1017.93 82.3294V101.787L1031.75 111.003V125.34L1014.86 112.539L1012.81 101.787C1007.52 94.2768 996.115 77.2091 992.838 69.0166C989.561 60.8242 997.617 32.8332 1002.05 19.8618C1008.03 11.84 1017.11 -2.66752 1005.64 3.47684C994.17 9.62119 988.571 46.658 987.206 64.4084L971.333 45.4633L1005.64 101.787C1002.74 99.9091 993.657 94.2086 980.55 86.4257C967.442 78.6429 965.871 83.1829 966.725 86.4257L1005.64 111.003L1019.98 132.508H1039.94L1044.04 144.285Z" fill="#522E22"/>
<path d="M1121.87 144.285L1113.17 159.646L1126.99 167.326L1138.25 156.062L1150.03 151.965L1182.8 147.869L1204.31 126.876L1212.5 125.34L1239.12 103.835C1241.86 96.6663 1248.24 81.5102 1251.93 78.2332C1256.53 74.1369 1266.77 73.1129 1278.04 69.0166C1287.05 65.7397 1281.79 63.2136 1278.04 62.3603C1277.01 62.3603 1272.82 63.2819 1264.21 66.9685C1252.44 71.5768 1256.02 69.0166 1264.21 49.5595C1270.77 33.9938 1266.94 35.564 1264.21 38.2949L1236.05 96.6663L1206.87 118.172L1227.86 89.4978V66.9685C1226.84 55.8745 1224.17 31.8433 1221.72 24.4701C1218.64 15.2535 1215.57 21.3979 1218.64 38.2949C1221.72 55.1918 1221.72 76.6971 1221.72 86.4257C1221.72 94.2086 1213.52 99.9091 1209.43 101.787L1204.31 92.57C1204.99 97.861 1204.72 108.955 1198.16 111.003L1189.97 103.835V126.876L1178.71 140.189H1167.44L1184.34 121.756V106.395L1198.16 78.2332L1200.21 35.2227L1189.97 27.0302L1194.07 38.2949V62.3603C1192.19 72.4302 1188.02 90.5219 1186.39 82.3294C1184.34 72.0888 1174.1 67.4806 1178.71 78.2332C1182.39 86.8353 1178.88 109.808 1176.66 120.22L1159.25 140.189L1169.49 118.172H1165.9L1151.57 142.749L1138.25 144.285C1169.8 129.129 1170.85 83.3535 1167.44 62.3603C1167.44 49.6619 1163 54.3385 1160.78 58.264C1161.81 69.6994 1163.55 94.8229 1162.32 103.835C1160.78 115.099 1159.25 108.443 1159.25 96.6663C1159.25 84.8896 1154.13 96.1542 1153.1 114.587C1152.28 129.334 1135.35 139.506 1126.99 142.749L1131.09 114.587L1126.99 108.443L1121.87 125.34L1117.26 99.2264L1113.17 126.876L1121.87 137.117V144.285Z" fill="#522E22"/>
</g>
<defs>
<filter id="filter0_f_458_2" x="842.349" y="480.692" width="442.665" height="536.452" filterUnits="userSpaceOnUse" color-interpolation-filters="sRGB">
<feFlood flood-opacity="0" result="BackgroundImageFix"/>
<feBlend mode="normal" in="SourceGraphic" in2="BackgroundImageFix" result="shape"/>
<feGaussianBlur stdDeviation="1" result="effect1_foregroundBlur_458_2"/>
</filter>
<filter id="filter1_f_458_2" x="842.349" y="0" width="442.665" height="536.452" filterUnits="userSpaceOnUse" color-interpolation-filters="sRGB">
<feFlood flood-opacity="0" result="BackgroundImageFix"/>
<feBlend mode="normal" in="SourceGraphic" in2="BackgroundImageFix" result="shape"/>
<feGaussianBlur stdDeviation="1" result="effect1_foregroundBlur_458_2"/>
</filter>
<radialGradient id="paint0_radial_458_2" cx="0" cy="0" r="1" gradientTransform="matrix(-1.30063 9.48796 25.9671 2.65394 57.3942 475.844)" gradientUnits="userSpaceOnUse">
<stop stop-color="#FFEED1"/>
<stop offset="1" stop-color="#D1AF75"/>
</radialGradient>
<linearGradient id="paint1_linear_458_2" x1="56.2085" y1="462.262" x2="56.2085" y2="486.221" gradientUnits="userSpaceOnUse">
<stop stop-color="#FFD58C"/>
<stop offset="1" stop-color="#F55654"/>
</linearGradient>
<radialGradient id="paint2_radial_458_2" cx="0" cy="0" r="1" gradientTransform="matrix(1.43798 10.49 -28.7093 2.93421 11.9045 452.016)" gradientUnits="userSpaceOnUse">
<stop stop-color="#FFEED1"/>
<stop offset="1" stop-color="#D1AF75"/>
</radialGradient>
<linearGradient id="paint3_linear_458_2" x1="13.2156" y1="437" x2="13.2156" y2="463.489" gradientUnits="userSpaceOnUse">
<stop stop-color="#FFD58C"/>
<stop offset="1" stop-color="#F55654"/>
</linearGradient>
<linearGradient id="paint4_linear_458_2" x1="663.815" y1="1308.37" x2="663.815" y2="80.4473" gradientUnits="userSpaceOnUse">
<stop stop-color="#253B3E"/>
<stop offset="1" stop-color="#629CA4"/>
</linearGradient>
<linearGradient id="paint5_linear_458_2" x1="1128.52" y1="572.431" x2="995.818" y2="593.357" gradientUnits="userSpaceOnUse">
<stop stop-color="#2F4E53"/>
<stop offset="1" stop-color="#2F4E53" stop-opacity="0"/>
</linearGradient>
<linearGradient id="paint6_linear_458_2" x1="1269.84" y1="646.13" x2="1521.22" y2="812.119" gradientUnits="userSpaceOnUse">
<stop stop-color="#606337"/>
<stop offset="1" stop-color="#91B87C"/>
</linearGradient>
<linearGradient id="paint7_linear_458_2" x1="67.0488" y1="775.43" x2="139.158" y2="863.608" gradientUnits="userSpaceOnUse">
<stop stop-color="#2F4E53"/>
<stop offset="1" stop-color="#2F4E53" stop-opacity="0"/>
</linearGradient>
<linearGradient id="paint8_linear_458_2" x1="1130.28" y1="567.326" x2="1424.8" y2="276.037" gradientUnits="userSpaceOnUse">
<stop stop-color="#404223"/>
<stop offset="1" stop-color="#759663"/>
</linearGradient>
<radialGradient id="paint9_radial_458_2" cx="0" cy="0" r="1" gradientTransform="matrix(3.13336 22.8576 -62.5576 6.39365 1348.18 420.433)" gradientUnits="userSpaceOnUse">
<stop stop-color="#FFEED1"/>
<stop offset="1" stop-color="#D1AF75"/>
</radialGradient>
<linearGradient id="paint10_linear_458_2" x1="1351.03" y1="387.712" x2="1351.03" y2="445.433" gradientUnits="userSpaceOnUse">
<stop stop-color="#FFD58C"/>
<stop offset="1" stop-color="#F55654"/>
</linearGradient>
<radialGradient id="paint11_radial_458_2" cx="0" cy="0" r="1" gradientTransform="matrix(-2.737 19.9662 54.6443 5.58487 1284.66 513.902)" gradientUnits="userSpaceOnUse">
<stop stop-color="#FFEED1"/>
<stop offset="1" stop-color="#D1AF75"/>
</radialGradient>
<linearGradient id="paint12_linear_458_2" x1="1282.16" y1="485.32" x2="1282.16" y2="535.739" gradientUnits="userSpaceOnUse">
<stop stop-color="#FFD58C"/>
<stop offset="1" stop-color="#F55654"/>
</linearGradient>
<linearGradient id="paint13_linear_458_2" x1="155.08" y1="701.298" x2="-120.837" y2="504.893" gradientUnits="userSpaceOnUse">
<stop stop-color="#404223"/>
<stop offset="1" stop-color="#759663"/>
</linearGradient>
<linearGradient id="paint14_linear_458_2" x1="1283.14" y1="661.197" x2="1534.52" y2="495.208" gradientUnits="userSpaceOnUse">
<stop stop-color="#606337"/>
<stop offset="1" stop-color="#91B87C"/>
</linearGradient>
<linearGradient id="paint15_linear_458_2" x1="794.062" y1="487.906" x2="552.612" y2="507.891" gradientUnits="userSpaceOnUse">
<stop stop-color="#304F53"/>
<stop offset="1" stop-color="#737373" stop-opacity="0"/>
</linearGradient>
</defs>
</svg>
