<svg style="max-height: 500px" viewBox="352.235 43.3125 4326.5296 2025.9352463942307" fill="none" xmlns="http://www.w3.org/2000/svg" width="4326.5296" height="2025.9352463942307">
<g filter="url(#filter0_f_787_111)">
<path d="M1891.23 254.824C1843.34 263.163 1808.39 304.732 1808.39 353.342V408.449C1808.39 463.678 1853.16 508.449 1908.39 508.449H2509.42C2564.65 508.449 2609.42 463.678 2609.42 408.449V352.897C2609.42 304.484 2574.74 263.024 2527.09 254.47L2232.41 201.573C2220.9 199.507 2209.11 199.476 2197.59 201.482L1891.23 254.824Z" fill="#FFD58C"/>
<path d="M1808.89 353.342V408.449C1808.89 463.402 1853.43 507.949 1908.39 507.949H2509.42C2564.37 507.949 2608.92 463.402 2608.92 408.449V352.896C2608.92 304.726 2574.41 263.473 2527 254.962L2232.32 202.065C2220.86 200.009 2209.14 199.978 2197.67 201.975L1891.32 255.316C1843.67 263.613 1808.89 304.975 1808.89 353.342Z" stroke="black"/>
</g>
<path d="M1944.94 404.984C1443.49 416.982 221.514 451.477 0 633.449L4681 603.954V171.02C4546.41 220.054 4113.83 63.5363 3665.93 171.02C3061.03 344.493 2169.13 399.62 1944.94 404.984Z" fill="#9CC785"/>
<rect x="1046.19" y="567.449" width="3634.37" height="589" fill="#9CC785"/>
<path d="M1536.71 530.026C1804.22 508.026 2580.83 459.526 2087.05 394.026C2347.49 410.526 2711.16 457.353 2474.76 510.526C2005.74 616.026 1583.85 582.526 1879.64 741.026L1029.97 618.526C1047.26 598.193 1322.7 547.626 1536.71 530.026Z" fill="#FAEEAC"/>
<path d="M185.627 1714.45V992.449C406.252 829.171 3194.65 1274.95 1562.62 880.449C8974.73 1120.45 4108.66 1680.45 185.627 1714.45Z" fill="url(#paint0_linear_787_111)"/>
<path d="M275.651 1094.66H399.935C73.3289 1155.14 -460.775 1262.15 1423.71 1148.12C4032.64 990.248 758.864 504.996 275.651 508.468V1094.66Z" fill="#85B06E"/>
<path d="M586.352 1048.06C621.907 998.637 734.044 1039.63 705.951 1106.65C765.109 1072.53 856.613 1182.46 714.719 1165.95C699.478 1176.73 687.162 1175.64 662.884 1178.95C505.808 1164.62 338.405 1155.74 341.342 1126.01C345.107 1068.85 390.832 1039.82 444.384 1064.51C436.567 1008.84 566.568 996.725 586.352 1048.06Z" fill="url(#paint1_linear_787_111)"/>
<path d="M610.673 1125.79C594.091 1087.45 511.995 1100.1 520.863 1149.38C500.415 1131.11 453.212 1153.28 479.865 1198.29L560.1 1190.18C579.717 1187.03 646.133 1185.27 720.842 1183.45C726.519 1183.32 730.005 1177.57 726.813 1172.88C720.869 1164.13 711.904 1154.33 704.265 1156.15C717.981 1119.43 631.833 1093.63 610.673 1125.79Z" fill="url(#paint2_linear_787_111)"/>
<path d="M439.76 1134.04C423.178 1095.69 341.082 1108.35 349.95 1157.63C329.502 1139.36 282.299 1161.53 308.952 1206.54C319.961 1221.8 394.98 1204.76 489.054 1203.95L592.506 1193.35C592.506 1159.95 563.294 1157.27 533.352 1164.4C547.068 1127.68 460.92 1101.88 439.76 1134.04Z" fill="url(#paint3_linear_787_111)"/>
<path d="M510.773 1207.28L587.423 1200.92C596.993 1200.13 599.601 1188.31 590.655 1184.82C564.605 1174.65 531.617 1171.76 510.773 1207.28Z" fill="url(#paint4_linear_787_111)"/>
<path d="M454.092 1212.87L533.352 1205.06C519.834 1194.78 462.679 1193.92 454.092 1212.87Z" fill="url(#paint5_linear_787_111)"/>
<path d="M495.293 1183.17C488.97 1142.25 405.989 1136.43 402.028 1186.26C386.827 1164 335.315 1175.12 349.721 1224.73C354.091 1234.66 326.779 1229.33 341.342 1236.45L551.344 1221.44C559.729 1220.84 563.528 1210.92 557.257 1205.33C537.115 1187.34 509.949 1169.62 495.293 1183.17Z" fill="url(#paint6_linear_787_111)"/>
<rect x="349" y="1449.45" width="4332" height="629" fill="url(#paint7_linear_787_111)"/>
<defs>
<filter id="filter0_f_787_111" x="1608.39" y="0" width="1201.03" height="708.449" filterUnits="userSpaceOnUse" color-interpolation-filters="sRGB">
<feFlood flood-opacity="0" result="BackgroundImageFix"/>
<feBlend mode="normal" in="SourceGraphic" in2="BackgroundImageFix" result="shape"/>
<feGaussianBlur stdDeviation="100" result="effect1_foregroundBlur_787_111"/>
</filter>
<linearGradient id="paint0_linear_787_111" x1="2839.88" y1="752.449" x2="2839.88" y2="1714.45" gradientUnits="userSpaceOnUse">
<stop stop-color="#FFF4B8"/>
<stop offset="1" stop-color="#FFF8D2"/>
</linearGradient>
<linearGradient id="paint1_linear_787_111" x1="717.744" y1="994.605" x2="484.802" y2="1251.59" gradientUnits="userSpaceOnUse">
<stop stop-color="#91B87C"/>
<stop offset="1" stop-color="#415237"/>
</linearGradient>
<linearGradient id="paint2_linear_787_111" x1="645.416" y1="1236.45" x2="792.788" y2="1121.35" gradientUnits="userSpaceOnUse">
<stop stop-color="#415237"/>
<stop offset="1" stop-color="#91B87C"/>
</linearGradient>
<linearGradient id="paint3_linear_787_111" x1="645.416" y1="1236.45" x2="792.788" y2="1121.35" gradientUnits="userSpaceOnUse">
<stop stop-color="#415237"/>
<stop offset="1" stop-color="#91B87C"/>
</linearGradient>
<linearGradient id="paint4_linear_787_111" x1="602.277" y1="1360.29" x2="365.247" y2="1108.91" gradientUnits="userSpaceOnUse">
<stop stop-color="#415237"/>
<stop offset="1" stop-color="#91B87C"/>
</linearGradient>
<linearGradient id="paint5_linear_787_111" x1="602.277" y1="1360.29" x2="365.247" y2="1108.91" gradientUnits="userSpaceOnUse">
<stop stop-color="#415237"/>
<stop offset="1" stop-color="#91B87C"/>
</linearGradient>
<linearGradient id="paint6_linear_787_111" x1="602.277" y1="1360.29" x2="365.247" y2="1108.91" gradientUnits="userSpaceOnUse">
<stop stop-color="#415237"/>
<stop offset="1" stop-color="#91B87C"/>
</linearGradient>
<linearGradient id="paint7_linear_787_111" x1="2515" y1="1449.45" x2="2515" y2="2078.45" gradientUnits="userSpaceOnUse">
<stop stop-color="#FFF6C1"/>
<stop offset="1" stop-color="#F46054"/>
</linearGradient>
</defs>
</svg>