<svg width="1724" height="585" viewBox="0 0 1724 585" fill="none" xmlns="http://www.w3.org/2000/svg">
<g filter="url(#filter0_d_932_168)">
<path d="M1044.29 316.521C989.644 350.077 964.375 344.142 923.37 314.55C966.373 286.487 992.671 285.681 1044.29 316.521Z" fill="#FFD58C"/>
<path d="M671.077 242.515C675.686 193.509 690.637 187.198 726.829 192.172C724.192 231.999 712.805 243.888 671.077 242.515Z" fill="#FFD58C"/>
<path d="M1512.85 547.432C1472.86 570.904 1459.62 561.077 1443.04 525.886C1474.91 505.817 1490.4 509.313 1512.85 547.432Z" fill="#FFD58C"/>
<path d="M1322.51 317.787C1291.44 318.135 1286.34 307.624 1286.7 280.634C1311.87 279.535 1320.19 287.001 1322.51 317.787Z" fill="#FFD58C"/>
<path d="M1264.29 502.317C1210.87 472.494 1210.93 449.532 1234.07 403.734C1278.02 426.492 1286.02 447.405 1264.29 502.317Z" fill="#FFD58C"/>
<path d="M1102.01 376.516C1082.31 345.903 1088.02 334.283 1111.08 317.787C1127.72 342.073 1126.6 354.991 1102.01 376.516Z" fill="#FFD58C"/>
<path d="M592.009 359.828C624.009 336.828 638.44 343.484 664.009 354.828C631.009 383.828 610.509 376.932 592.009 359.828Z" fill="#FFD58C"/>
<path d="M670.645 129.835C656.351 95.8871 663.896 85.5681 689.313 73.8277C701.655 100.957 698.409 113.446 670.645 129.835Z" fill="#FFD58C"/>
<path d="M408.916 203.196C420.598 238.296 412.299 247.912 386.081 257.362C375.829 229.23 380.007 217.07 408.916 203.196Z" fill="#FFD58C"/>
<path d="M1155.47 360.522C1093.18 355.17 1084.72 333.122 1089.91 279.133C1140.5 281.831 1155.93 298.406 1155.47 360.522Z" fill="#FFD58C"/>
<path d="M909.747 376.932C876.558 405.94 862.812 399.316 841.993 369.92C868.233 345.545 883.06 345.918 909.747 376.932Z" fill="#FFD58C"/>
<path d="M603.127 166.336C592.415 121.628 603.657 110.797 636.969 102.381C646.65 138.322 640.222 152.798 603.127 166.336Z" fill="#FFD58C"/>
<path d="M654.124 213.339C669.347 170.192 684.305 168.433 715.948 182.508C704.581 217.866 691.591 225.617 654.124 213.339Z" fill="#FFD58C"/>
<path d="M791.995 148.373C823.829 144.659 830.024 154.888 832.144 182.606C806.435 186.453 797.213 179.695 791.995 148.373Z" fill="#FFD58C"/>
<path d="M479.502 150.625C507.421 167.6 506.988 179.824 493.867 203.733C470.866 190.714 466.974 179.416 479.502 150.625Z" fill="#FFD58C"/>
<path d="M1512.85 280.634C1544.68 276.919 1550.88 287.149 1552.99 314.867C1527.29 318.714 1518.06 311.956 1512.85 280.634Z" fill="#FFD58C"/>
<path d="M1699.51 413.828C1680.64 460.332 1670.01 450.328 1623.01 450.328C1637.51 403.734 1685.14 413.828 1699.51 413.828Z" fill="#FFD58C"/>
<path d="M251.01 146.008C232.143 192.511 221.51 182.508 174.51 182.508C189.01 135.913 236.643 146.008 251.01 146.008Z" fill="#FFD58C"/>
<path d="M94.0088 57.8176C54.0202 81.2895 40.7856 71.4628 24.2 36.272C56.0731 16.2034 71.5576 19.6994 94.0088 57.8176Z" fill="#FFD58C"/>
<path d="M94.0088 280.634C62.9368 280.982 57.8404 270.47 58.198 243.481C83.3651 242.382 91.6868 249.848 94.0088 280.634Z" fill="#FFD58C"/>
</g>
<defs>
<filter id="filter0_d_932_168" x="-4.95911e-05" y="0.00019455" width="1723.71" height="584.412" filterUnits="userSpaceOnUse" color-interpolation-filters="sRGB">
<feFlood flood-opacity="0" result="BackgroundImageFix"/>
<feColorMatrix in="SourceAlpha" type="matrix" values="0 0 0 0 0 0 0 0 0 0 0 0 0 0 0 0 0 0 127 0" result="hardAlpha"/>
<feOffset/>
<feGaussianBlur stdDeviation="12.1"/>
<feComposite in2="hardAlpha" operator="out"/>
<feColorMatrix type="matrix" values="0 0 0 0 1 0 0 0 0 0.835294 0 0 0 0 0.54902 0 0 0 1 0"/>
<feBlend mode="normal" in2="BackgroundImageFix" result="effect1_dropShadow_932_168"/>
<feBlend mode="normal" in="SourceGraphic" in2="effect1_dropShadow_932_168" result="shape"/>
</filter>
</defs>
</svg>
