<svg width="1302" height="397" viewBox="0 0 1302 397" fill="none" xmlns="http://www.w3.org/2000/svg">
<g filter="url(#filter0_d_932_168)">
<path d="M697.483 66.8934C642.834 100.449 617.565 94.5146 576.56 64.9225C619.563 36.8594 645.862 36.054 697.483 66.8934Z" fill="#FFD58C"/>
<path d="M314.267 192.888C318.877 143.882 333.828 137.571 370.019 142.545C367.383 182.372 355.995 194.261 314.267 192.888Z" fill="#FFD58C"/>
<path d="M1166.04 297.804C1126.05 321.276 1112.81 311.449 1096.23 276.258C1128.1 256.19 1143.59 259.686 1166.04 297.804Z" fill="#FFD58C"/>
<path d="M603.491 372.11C572.419 372.458 567.323 361.947 567.681 334.957C592.848 333.858 601.169 341.324 603.491 372.11Z" fill="#FFD58C"/>
<path d="M917.484 252.689C864.065 222.866 864.125 199.904 887.262 154.106C931.211 176.864 939.208 197.777 917.484 252.689Z" fill="#FFD58C"/>
<path d="M755.196 126.888C735.502 96.2753 741.213 84.6556 764.267 68.1598C780.91 92.4451 779.789 105.364 755.196 126.888Z" fill="#FFD58C"/>
<path d="M236.622 322.757C248.89 287.893 260.971 286.46 286.541 297.804C277.383 326.374 266.895 332.646 236.622 322.757Z" fill="#FFD58C"/>
<path d="M313.835 80.2072C299.541 46.2597 307.087 35.9406 332.503 24.2002C344.845 51.3291 341.6 63.8191 313.835 80.2072Z" fill="#FFD58C"/>
<path d="M52.1069 153.569C63.7889 188.669 55.4894 198.285 29.2712 207.734C19.0196 179.603 23.1977 167.442 52.1069 153.569Z" fill="#FFD58C"/>
<path d="M1276.93 126.888C1260.09 192.061 1238.48 196.81 1190.57 180.892C1202.75 127.646 1220.74 114.44 1276.93 126.888Z" fill="#FFD58C"/>
<path d="M808.663 110.894C746.37 105.542 737.906 83.495 743.103 29.5053C793.694 32.2037 809.122 48.7783 808.663 110.894Z" fill="#FFD58C"/>
<path d="M562.938 127.305C529.749 156.312 516.002 149.688 495.183 120.292C521.423 95.9172 536.251 96.2896 562.938 127.305Z" fill="#FFD58C"/>
<path d="M246.317 116.709C235.606 72.0006 246.847 61.1697 280.16 52.7532C289.841 88.6949 283.412 103.171 246.317 116.709Z" fill="#FFD58C"/>
<path d="M297.314 163.711C312.537 120.565 327.496 118.806 359.138 132.88C347.771 168.238 334.781 175.99 297.314 163.711Z" fill="#FFD58C"/>
<path d="M435.185 98.7461C467.019 95.0312 473.214 105.261 475.334 132.979C449.625 136.826 440.403 130.068 435.185 98.7461Z" fill="#FFD58C"/>
<path d="M122.692 100.998C150.612 117.973 150.178 130.197 137.058 154.106C114.057 141.087 110.165 129.788 122.692 100.998Z" fill="#FFD58C"/>
</g>
<defs>
<filter id="filter0_d_932_168" x="-4.95911e-05" y="0.00019455" width="1301.13" height="396.318" filterUnits="userSpaceOnUse" color-interpolation-filters="sRGB">
<feFlood flood-opacity="0" result="BackgroundImageFix"/>
<feColorMatrix in="SourceAlpha" type="matrix" values="0 0 0 0 0 0 0 0 0 0 0 0 0 0 0 0 0 0 127 0" result="hardAlpha"/>
<feOffset/>
<feGaussianBlur stdDeviation="12.1"/>
<feComposite in2="hardAlpha" operator="out"/>
<feColorMatrix type="matrix" values="0 0 0 0 1 0 0 0 0 0.835294 0 0 0 0 0.54902 0 0 0 1 0"/>
<feBlend mode="normal" in2="BackgroundImageFix" result="effect1_dropShadow_932_168"/>
<feBlend mode="normal" in="SourceGraphic" in2="effect1_dropShadow_932_168" result="shape"/>
</filter>
</defs>
</svg>
