<svg width="609" height="902" viewBox="0 0 609 902" fill="none" xmlns="http://www.w3.org/2000/svg">
<g filter="url(#filter0_g_859_678)">
<rect width="57" height="896" transform="matrix(-1 0 0 1 361 2.7998)" fill="url(#paint0_linear_859_678)"/>
</g>
<g filter="url(#filter1_g_859_678)">
<path d="M88.7272 119.897L514.467 132.211L511.606 246.086L303.738 248.062L315.001 227.872L243.713 246.326L127.203 249.896L122.914 236.704C118.685 223.7 104.139 217.183 91.6691 222.705L80.0015 227.872L88.7272 119.897Z" fill="#D9D9D9"/>
<path d="M88.7272 119.897L514.467 132.211L511.606 246.086L303.738 248.062L315.001 227.872L243.713 246.326L127.203 249.896L122.914 236.704C118.685 223.7 104.139 217.183 91.6691 222.705L80.0015 227.872L88.7272 119.897Z" fill="url(#paint1_linear_859_678)"/>
</g>
<g filter="url(#filter2_g_859_678)">
<path d="M511.733 132.161L602.788 183.862L508.919 244.162L511.733 132.161Z" fill="#724F40"/>
</g>
<g filter="url(#filter3_g_859_678)">
<path d="M593.433 355.012L77.4152 309.74L66.6654 432.269L438.763 446.707L466.022 433.22L487.515 450.984L584.268 459.473L593.433 355.012Z" fill="#D9D9D9"/>
<g clip-path="url(#paint2_diamond_859_678_clip_path)" data-figma-skip-parse="true"><g transform="matrix(-0.232007 -0.00317958 -0.00247678 0.180725 306.105 391.95)"><rect x="0" y="0" width="1240.65" height="458.466" fill="url(#paint2_diamond_859_678)" opacity="1" shape-rendering="crispEdges"/><rect x="0" y="0" width="1240.65" height="458.466" transform="scale(1 -1)" fill="url(#paint2_diamond_859_678)" opacity="1" shape-rendering="crispEdges"/><rect x="0" y="0" width="1240.65" height="458.466" transform="scale(-1 1)" fill="url(#paint2_diamond_859_678)" opacity="1" shape-rendering="crispEdges"/><rect x="0" y="0" width="1240.65" height="458.466" transform="scale(-1)" fill="url(#paint2_diamond_859_678)" opacity="1" shape-rendering="crispEdges"/></g></g><path d="M593.433 355.012L77.4152 309.74L66.6654 432.269L438.763 446.707L466.022 433.22L487.515 450.984L584.268 459.473L593.433 355.012Z" data-figma-gradient-fill="{&#34;type&#34;:&#34;GRADIENT_DIAMOND&#34;,&#34;stops&#34;:[{&#34;color&#34;:{&#34;r&#34;:0.63529413938522339,&#34;g&#34;:0.53333336114883423,&#34;b&#34;:0.41568627953529358,&#34;a&#34;:1.0},&#34;position&#34;:0.0},{&#34;color&#34;:{&#34;r&#34;:0.82457554340362549,&#34;g&#34;:0.63286727666854858,&#34;b&#34;:0.41320142149925232,&#34;a&#34;:1.0},&#34;position&#34;:1.0}],&#34;stopsVar&#34;:[{&#34;color&#34;:{&#34;r&#34;:0.63529413938522339,&#34;g&#34;:0.53333336114883423,&#34;b&#34;:0.41568627953529358,&#34;a&#34;:1.0},&#34;position&#34;:0.0},{&#34;color&#34;:{&#34;r&#34;:0.82457554340362549,&#34;g&#34;:0.63286727666854858,&#34;b&#34;:0.41320142149925232,&#34;a&#34;:1.0},&#34;position&#34;:1.0}],&#34;transform&#34;:{&#34;m00&#34;:-464.01428222656250,&#34;m01&#34;:-4.9535579681396484,&#34;m02&#34;:540.58929443359375,&#34;m10&#34;:-6.3591628074645996,&#34;m11&#34;:361.45013427734375,&#34;m12&#34;:214.40437316894531},&#34;opacity&#34;:1.0,&#34;blendMode&#34;:&#34;NORMAL&#34;,&#34;visible&#34;:true}"/>
</g>
<g filter="url(#filter4_g_859_678)">
<path d="M79.6344 309.835L5.77962 356.596L69.0462 430.521L79.6344 309.835Z" fill="#D2A169"/>
</g>
<path d="M185.208 193.486C182.912 193.451 180.719 193.096 178.629 192.42C176.54 191.716 174.887 190.837 173.671 189.782L175.625 185.569C176.787 186.511 178.231 187.303 179.958 187.945C181.684 188.588 183.457 188.923 185.277 188.95C186.817 188.974 188.065 188.825 189.022 188.503C189.979 188.182 190.686 187.745 191.142 187.191C191.599 186.61 191.833 185.956 191.844 185.228C191.858 184.332 191.547 183.613 190.911 183.071C190.276 182.502 189.442 182.055 188.411 181.731C187.408 181.38 186.279 181.055 185.023 180.756C183.796 180.457 182.555 180.116 181.301 179.733C180.075 179.322 178.948 178.815 177.921 178.211C176.923 177.58 176.109 176.756 175.481 175.738C174.852 174.72 174.55 173.428 174.574 171.86C174.598 170.264 175.04 168.814 175.9 167.511C176.788 166.181 178.106 165.137 179.854 164.379C181.63 163.594 183.862 163.222 186.55 163.263C188.313 163.29 190.06 163.54 191.789 164.015C193.518 164.489 195.02 165.156 196.295 166.015L194.509 170.231C193.205 169.427 191.856 168.832 190.461 168.447C189.067 168.034 187.727 167.817 186.439 167.798C184.927 167.775 183.692 167.938 182.735 168.287C181.805 168.637 181.112 169.103 180.655 169.684C180.226 170.265 180.006 170.934 179.995 171.69C179.981 172.586 180.278 173.319 180.885 173.888C181.521 174.43 182.341 174.862 183.344 175.185C184.375 175.509 185.518 175.835 186.774 176.162C188.029 176.461 189.27 176.802 190.496 177.184C191.751 177.568 192.877 178.061 193.876 178.664C194.903 179.268 195.717 180.078 196.318 181.095C196.946 182.113 197.249 183.392 197.225 184.932C197.202 186.5 196.745 187.949 195.857 189.279C194.997 190.582 193.679 191.627 191.903 192.412C190.127 193.169 187.896 193.527 185.208 193.486ZM212.083 193.769C209.787 193.734 207.751 193.213 205.974 192.206C204.197 191.17 202.804 189.777 201.795 188.026C200.785 186.274 200.298 184.292 200.331 182.081C200.365 179.841 200.913 177.875 201.975 176.183C203.037 174.463 204.472 173.127 206.279 172.174C208.085 171.221 210.136 170.762 212.432 170.797C214.756 170.833 216.806 171.354 218.583 172.361C220.388 173.369 221.781 174.734 222.763 176.457C223.773 178.181 224.261 180.176 224.226 182.444C224.193 184.656 223.645 186.622 222.582 188.342C221.548 190.062 220.114 191.413 218.278 192.393C216.472 193.345 214.406 193.804 212.083 193.769ZM212.151 189.275C213.439 189.295 214.591 189.032 215.607 188.488C216.624 187.943 217.42 187.143 217.996 186.088C218.6 185.033 218.913 183.791 218.935 182.364C218.957 180.908 218.682 179.657 218.11 178.613C217.566 177.54 216.795 176.716 215.795 176.141C214.796 175.566 213.666 175.269 212.406 175.249C211.119 175.23 209.966 175.492 208.95 176.037C207.962 176.582 207.165 177.382 206.561 178.437C205.958 179.464 205.645 180.705 205.623 182.161C205.601 183.589 205.876 184.839 206.448 185.912C207.019 186.985 207.791 187.809 208.762 188.384C209.762 188.959 210.891 189.256 212.151 189.275ZM239.36 194.184C237.008 194.148 234.916 193.626 233.083 192.618C231.279 191.582 229.872 190.189 228.862 188.437C227.853 186.686 227.365 184.704 227.398 182.492C227.432 180.253 227.98 178.287 229.042 176.595C230.104 174.875 231.553 173.539 233.388 172.586C235.25 171.635 237.358 171.177 239.709 171.212C241.893 171.246 243.804 171.723 245.442 172.644C247.109 173.537 248.363 174.844 249.205 176.565L245.138 178.856C244.482 177.782 243.668 176.985 242.696 176.466C241.752 175.948 240.719 175.68 239.6 175.663C238.312 175.644 237.146 175.906 236.101 176.45C235.057 176.994 234.233 177.794 233.628 178.849C233.025 179.876 232.712 181.117 232.69 182.573C232.668 184.029 232.942 185.293 233.514 186.366C234.086 187.411 234.886 188.221 235.913 188.797C236.941 189.372 238.098 189.67 239.386 189.69C240.506 189.707 241.546 189.47 242.505 188.981C243.493 188.492 244.331 187.72 245.019 186.667L249.015 189.08C248.121 190.746 246.828 192.029 245.134 192.927C243.468 193.798 241.544 194.217 239.36 194.184ZM253.272 194.101L253.613 171.676L258.862 171.756L258.521 194.181L253.272 194.101ZM256.315 168.02C255.335 168.006 254.528 167.685 253.893 167.06C253.287 166.434 252.99 165.688 253.003 164.82C253.017 163.924 253.336 163.187 253.961 162.608C254.614 162.002 255.431 161.706 256.411 161.721C257.391 161.736 258.184 162.042 258.791 162.64C259.427 163.209 259.738 163.928 259.724 164.796C259.71 165.72 259.39 166.499 258.765 167.134C258.139 167.74 257.323 168.036 256.315 168.02ZM279.228 194.496L279.297 189.961L279.017 188.99L279.138 181.053C279.161 179.513 278.718 178.316 277.807 177.462C276.896 176.58 275.503 176.125 273.627 176.097C272.367 176.078 271.118 176.255 269.88 176.628C268.67 177.001 267.64 177.532 266.79 178.219L264.79 174.366C266.008 173.461 267.446 172.796 269.105 172.374C270.792 171.923 272.531 171.712 274.323 171.739C277.571 171.788 280.065 172.61 281.805 174.205C283.573 175.772 284.432 178.179 284.383 181.427L284.183 194.571L279.228 194.496ZM272.168 194.683C270.488 194.657 269.023 194.355 267.771 193.776C266.52 193.169 265.553 192.356 264.868 191.337C264.212 190.291 263.894 189.124 263.913 187.836C263.932 186.576 264.243 185.447 264.847 184.448C265.478 183.45 266.484 182.667 267.865 182.1C269.246 181.533 271.07 181.266 273.338 181.301L279.847 181.4L279.794 184.886L273.663 184.792C271.871 184.765 270.662 185.041 270.038 185.619C269.413 186.17 269.094 186.865 269.082 187.705C269.067 188.657 269.434 189.418 270.181 189.99C270.928 190.561 271.974 190.857 273.318 190.878C274.606 190.897 275.758 190.621 276.775 190.048C277.82 189.476 278.575 188.619 279.04 187.478L279.874 190.641C279.35 191.95 278.425 192.958 277.098 193.666C275.799 194.374 274.156 194.713 272.168 194.683ZM290.92 194.674L291.394 163.513L296.643 163.593L296.169 194.754L290.92 194.674ZM315.169 195.043L315.616 165.646L321.076 165.729L320.629 195.126L315.169 195.043ZM356.725 172.992C358.517 173.019 360.094 173.393 361.455 174.114C362.844 174.835 363.92 175.93 364.681 177.398C365.444 178.837 365.807 180.691 365.773 182.959L365.577 195.809L360.328 195.73L360.513 183.551C360.544 181.563 360.132 180.073 359.279 179.08C358.426 178.087 357.188 177.578 355.564 177.553C354.416 177.536 353.39 177.772 352.487 178.262C351.611 178.753 350.914 179.485 350.395 180.457C349.904 181.429 349.647 182.672 349.624 184.184L349.451 195.564L344.202 195.484L344.387 183.306C344.417 181.318 344.006 179.828 343.153 178.834C342.3 177.841 341.062 177.332 339.438 177.308C338.29 177.29 337.264 177.527 336.361 178.017C335.485 178.508 334.788 179.239 334.269 180.212C333.778 181.184 333.521 182.426 333.498 183.938L333.325 195.319L328.076 195.239L328.417 172.814L333.414 172.89L333.324 178.853L332.469 177.076C333.247 175.631 334.355 174.542 335.795 173.808C337.262 173.074 338.92 172.721 340.767 172.749C342.867 172.781 344.679 173.327 346.203 174.386C347.755 175.446 348.767 177.03 349.239 179.137L347.192 178.392C347.946 176.723 349.17 175.398 350.865 174.415C352.56 173.433 354.514 172.959 356.725 172.992ZM384.712 196.395C382.892 196.367 381.232 195.922 379.733 195.059C378.262 194.196 377.092 192.918 376.221 191.225C375.379 189.504 374.978 187.341 375.018 184.738C375.058 182.106 375.511 179.957 376.376 178.29C377.269 176.623 378.464 175.395 379.96 174.606C381.457 173.788 383.157 173.394 385.061 173.423C387.273 173.457 389.211 173.962 390.877 174.94C392.57 175.918 393.894 177.268 394.848 178.991C395.829 180.714 396.303 182.737 396.267 185.061C396.232 187.385 395.697 189.407 394.663 191.127C393.657 192.82 392.293 194.13 390.571 195.056C388.876 195.982 386.923 196.428 384.712 196.395ZM372.162 204.059L372.627 173.486L377.624 173.562L377.544 178.854L377.285 184.814L377.614 190.784L377.411 204.138L372.162 204.059ZM384.192 191.892C385.452 191.911 386.576 191.648 387.564 191.103C388.581 190.559 389.391 189.759 389.995 188.704C390.599 187.649 390.912 186.408 390.934 184.98C390.956 183.524 390.681 182.274 390.109 181.229C389.537 180.156 388.752 179.332 387.752 178.757C386.781 178.182 385.665 177.885 384.405 177.866C383.146 177.847 382.007 178.109 380.991 178.654C379.975 179.199 379.164 179.998 378.56 181.053C377.957 182.08 377.644 183.322 377.622 184.777C377.6 186.205 377.875 187.456 378.447 188.528C379.018 189.601 379.804 190.425 380.803 191.001C381.803 191.576 382.932 191.873 384.192 191.892ZM414.605 196.555L414.674 192.02L414.394 191.049L414.515 183.112C414.538 181.572 414.095 180.376 413.183 179.522C412.273 178.64 410.879 178.184 409.004 178.156C407.744 178.137 406.495 178.314 405.257 178.687C404.047 179.061 403.017 179.591 402.167 180.278L400.167 176.425C401.385 175.52 402.823 174.856 404.482 174.433C406.169 173.982 407.908 173.771 409.7 173.798C412.948 173.847 415.441 174.669 417.181 176.264C418.95 177.831 419.809 180.239 419.76 183.486L419.56 196.631L414.605 196.555ZM407.545 196.742C405.865 196.716 404.399 196.414 403.148 195.835C401.897 195.228 400.929 194.415 400.245 193.396C399.589 192.35 399.27 191.183 399.29 189.896C399.309 188.636 399.62 187.506 400.224 186.507C400.855 185.509 401.861 184.726 403.242 184.159C404.623 183.592 406.447 183.326 408.715 183.36L415.224 183.459L415.171 186.945L409.039 186.851C407.248 186.824 406.039 187.1 405.414 187.678C404.79 188.229 404.471 188.924 404.459 189.764C404.444 190.716 404.811 191.478 405.558 192.049C406.305 192.621 407.351 192.916 408.695 192.937C409.983 192.957 411.135 192.68 412.152 192.107C413.197 191.535 413.952 190.679 414.417 189.538L415.251 192.701C414.727 194.009 413.802 195.017 412.475 195.725C411.176 196.433 409.533 196.772 407.545 196.742ZM436.622 197.184C434.27 197.148 432.178 196.627 430.345 195.619C428.541 194.583 427.134 193.189 426.124 191.438C425.115 189.686 424.627 187.705 424.661 185.493C424.695 183.253 425.243 181.287 426.305 179.595C427.367 177.875 428.815 176.539 430.65 175.587C432.513 174.635 434.62 174.177 436.972 174.213C439.155 174.246 441.066 174.723 442.705 175.644C444.371 176.538 445.625 177.845 446.467 179.566L442.4 181.856C441.744 180.782 440.93 179.986 439.958 179.467C439.014 178.948 437.982 178.681 436.862 178.664C435.574 178.644 434.408 178.906 433.364 179.451C432.319 179.995 431.495 180.794 430.891 181.849C430.287 182.876 429.974 184.118 429.952 185.573C429.93 187.029 430.205 188.294 430.776 189.366C431.349 190.411 432.148 191.221 433.176 191.797C434.203 192.373 435.361 192.67 436.649 192.69C437.768 192.707 438.808 192.471 439.768 191.981C440.755 191.492 441.593 190.721 442.281 189.667L446.277 192.08C445.384 193.747 444.09 195.03 442.396 195.928C440.731 196.799 438.806 197.217 436.622 197.184ZM459.463 197.532C456.999 197.494 455.105 196.835 453.78 195.555C452.456 194.247 451.813 192.347 451.851 189.855L452.157 169.739L457.406 169.819L457.102 189.809C457.086 190.873 457.339 191.703 457.862 192.299C458.413 192.895 459.179 193.201 460.159 193.216C461.335 193.234 462.319 192.941 463.112 192.337L464.525 196.096C463.902 196.591 463.14 196.957 462.24 197.196C461.341 197.434 460.415 197.546 459.463 197.532ZM448.319 179.006L448.383 174.806L463.334 175.034L463.27 179.233L448.319 179.006Z" fill="#FDEFE8"/>
<path d="M126.534 384.269L128.006 354.906L132.495 355.131L144.256 377.21L141.907 377.092L155.608 356.29L160.096 356.515L158.666 385.88L153.506 385.621L154.531 364.352L155.621 364.407L143.985 381.78L141.552 381.658L131.543 363.2L132.802 363.263L131.736 384.53L126.534 384.269ZM176.146 387.051C173.853 386.936 171.836 386.344 170.096 385.276C168.356 384.179 167.013 382.738 166.065 380.952C165.117 379.167 164.699 377.169 164.81 374.96C164.922 372.723 165.538 370.777 166.658 369.123C167.78 367.441 169.26 366.156 171.099 365.267C172.938 364.378 175.004 363.991 177.297 364.106C179.618 364.222 181.649 364.814 183.389 365.883C185.158 366.953 186.503 368.366 187.424 370.122C188.373 371.88 188.791 373.891 188.678 376.157C188.567 378.366 187.951 380.311 186.829 381.993C185.735 383.677 184.255 384.976 182.386 385.892C180.548 386.781 178.468 387.167 176.146 387.051ZM176.371 382.562C177.658 382.627 178.818 382.405 179.853 381.896C180.888 381.387 181.712 380.615 182.324 379.581C182.965 378.548 183.321 377.318 183.392 375.892C183.465 374.437 183.234 373.178 182.699 372.114C182.193 371.023 181.45 370.173 180.471 369.563C179.493 368.954 178.374 368.617 177.116 368.554C175.829 368.49 174.669 368.712 173.634 369.221C172.627 369.731 171.804 370.503 171.163 371.536C170.524 372.541 170.168 373.771 170.095 375.225C170.023 376.651 170.255 377.91 170.789 379.002C171.323 380.095 172.065 380.945 173.016 381.553C173.995 382.163 175.113 382.499 176.371 382.562ZM200.037 388.249C198.163 388.155 196.371 387.826 194.661 387.264C192.981 386.675 191.655 386.006 190.683 385.256L192.896 381.372C193.871 382.066 195.046 382.658 196.424 383.147C197.801 383.637 199.189 383.917 200.587 383.987C202.237 384.069 203.437 383.905 204.186 383.494C204.964 383.085 205.371 382.502 205.409 381.747C205.44 381.132 205.211 380.658 204.723 380.325C204.237 379.964 203.592 379.68 202.79 379.471C201.987 379.263 201.086 379.064 200.086 378.873C199.115 378.684 198.131 378.453 197.135 378.179C196.169 377.878 195.292 377.483 194.503 376.995C193.716 376.479 193.091 375.817 192.626 375.009C192.162 374.201 191.962 373.153 192.027 371.867C192.098 370.441 192.566 369.231 193.428 368.237C194.293 367.215 195.466 366.46 196.948 365.974C198.46 365.461 200.222 365.255 202.236 365.356C203.746 365.432 205.262 365.676 206.783 366.089C208.304 366.501 209.553 367.04 210.528 367.706L208.315 371.59C207.285 370.894 206.23 370.406 205.15 370.128C204.1 369.823 203.044 369.644 201.981 369.59C200.387 369.511 199.187 369.689 198.38 370.125C197.601 370.562 197.194 371.145 197.157 371.872C197.123 372.543 197.35 373.059 197.836 373.42C198.323 373.781 198.967 374.079 199.768 374.316C200.569 374.552 201.456 374.765 202.427 374.954C203.429 375.116 204.412 375.347 205.378 375.648C206.345 375.949 207.222 376.343 208.01 376.831C208.828 377.293 209.469 377.928 209.933 378.736C210.398 379.544 210.598 380.578 210.535 381.836C210.465 383.234 209.984 384.43 209.094 385.422C208.231 386.416 207.03 387.169 205.49 387.681C203.952 388.164 202.134 388.354 200.037 388.249ZM223.135 389.406C220.674 389.283 218.804 388.559 217.525 387.233C216.247 385.879 215.67 383.958 215.795 381.469L216.803 361.376L222.046 361.639L221.045 381.606C220.992 382.669 221.216 383.507 221.718 384.121C222.248 384.736 223.002 385.068 223.981 385.117C225.155 385.176 226.15 384.918 226.963 384.342L228.244 388.149C227.604 388.621 226.83 388.961 225.922 389.168C225.015 389.375 224.086 389.454 223.135 389.406ZM212.644 370.504L212.855 366.309L227.788 367.057L227.578 371.252L212.644 370.504ZM244.593 390.188L246.065 360.825L251.518 361.098L250.046 390.461L244.593 390.188ZM271.331 368.82C273.12 368.91 274.697 369.339 276.06 370.108C277.451 370.879 278.516 372.012 279.254 373.506C279.993 374.973 280.306 376.839 280.193 379.104L279.549 391.94L274.306 391.677L274.916 379.513C275.015 377.527 274.614 376.021 273.712 374.995C272.839 373.97 271.563 373.415 269.885 373.331C268.654 373.269 267.551 373.466 266.575 373.922C265.599 374.378 264.82 375.096 264.238 376.076C263.686 377.029 263.372 378.261 263.296 379.771L262.728 391.097L257.485 390.834L258.608 368.434L263.6 368.685L263.297 374.725L262.508 372.835C263.363 371.448 264.55 370.414 266.07 369.734C267.62 369.026 269.373 368.722 271.331 368.82ZM300.046 370.259C301.836 370.349 303.413 370.779 304.776 371.548C306.167 372.318 307.232 373.451 307.97 374.946C308.709 376.413 309.022 378.279 308.909 380.544L308.265 393.38L303.022 393.117L303.632 380.952C303.731 378.967 303.33 377.461 302.428 376.434C301.554 375.409 300.279 374.855 298.601 374.771C297.37 374.709 296.267 374.906 295.291 375.362C294.315 375.817 293.536 376.535 292.954 377.515C292.402 378.469 292.088 379.701 292.012 381.211L291.444 392.537L286.201 392.274L287.324 369.874L292.315 370.124L292.013 376.165L291.224 374.275C292.079 372.888 293.266 371.854 294.786 371.173C296.335 370.466 298.089 370.161 300.046 370.259ZM325.01 394.514C322.717 394.399 320.7 393.807 318.96 392.739C317.22 391.642 315.877 390.201 314.929 388.415C313.981 386.63 313.563 384.632 313.673 382.423C313.786 380.186 314.402 378.24 315.522 376.586C316.644 374.904 318.124 373.619 319.963 372.73C321.802 371.841 323.867 371.454 326.161 371.569C328.482 371.685 330.513 372.277 332.253 373.346C334.022 374.416 335.367 375.829 336.288 377.585C337.237 379.343 337.655 381.354 337.541 383.62C337.431 385.829 336.815 387.774 335.693 389.456C334.599 391.14 333.118 392.439 331.25 393.355C329.411 394.244 327.331 394.63 325.01 394.514ZM325.235 390.025C326.522 390.09 327.682 389.868 328.717 389.359C329.752 388.85 330.575 388.078 331.188 387.044C331.829 386.01 332.185 384.781 332.256 383.355C332.329 381.9 332.098 380.641 331.562 379.577C331.056 378.486 330.314 377.636 329.335 377.026C328.357 376.417 327.238 376.08 325.98 376.017C324.693 375.953 323.533 376.175 322.498 376.684C321.491 377.194 320.667 377.966 320.027 378.999C319.388 380.004 319.032 381.234 318.959 382.688C318.887 384.114 319.119 385.373 319.653 386.465C320.187 387.558 320.929 388.408 321.88 389.016C322.858 389.626 323.977 389.962 325.235 390.025ZM347.336 395.339L338.853 372.457L344.306 372.731L351.579 392.902L348.895 392.767L358.442 373.439L363.476 373.692L352.747 395.61L347.336 395.339ZM378.735 396.913L378.962 392.382L378.716 391.403L379.114 383.475C379.191 381.937 378.789 380.725 377.908 379.84C377.029 378.927 375.653 378.423 373.779 378.329C372.52 378.266 371.266 378.4 370.016 378.729C368.794 379.061 367.746 379.555 366.872 380.212L365.008 376.292C366.257 375.429 367.717 374.815 369.39 374.451C371.091 374.059 372.837 373.909 374.627 373.998C377.871 374.161 380.334 375.069 382.018 376.724C383.73 378.352 384.505 380.787 384.343 384.031L383.684 397.161L378.735 396.913ZM371.673 396.853C369.995 396.769 368.541 396.416 367.31 395.793C366.081 395.143 365.143 394.297 364.494 393.255C363.875 392.187 363.597 391.009 363.662 389.723C363.725 388.465 364.075 387.347 364.713 386.369C365.379 385.394 366.411 384.646 367.811 384.128C369.211 383.609 371.043 383.407 373.308 383.52L379.81 383.846L379.636 387.328L373.511 387.021C371.722 386.931 370.504 387.164 369.86 387.721C369.216 388.249 368.874 388.933 368.832 389.772C368.784 390.723 369.124 391.497 369.851 392.094C370.578 392.691 371.612 393.023 372.955 393.091C374.241 393.155 375.402 392.919 376.439 392.382C377.503 391.847 378.287 391.017 378.792 389.893L379.515 393.083C378.946 394.372 377.986 395.347 376.635 396.008C375.312 396.671 373.658 396.953 371.673 396.853ZM398.83 398.215C396.369 398.091 394.499 397.367 393.22 396.041C391.942 394.687 391.366 392.766 391.491 390.277L392.498 370.184L397.741 370.447L396.74 390.414C396.687 391.477 396.911 392.315 397.413 392.929C397.943 393.544 398.697 393.876 399.676 393.926C400.851 393.984 401.845 393.726 402.659 393.15L403.94 396.957C403.299 397.429 402.525 397.769 401.618 397.976C400.71 398.183 399.781 398.262 398.83 398.215ZM388.34 379.312L388.55 375.117L403.483 375.865L403.273 380.06L388.34 379.312ZM408.192 398.389L409.315 375.99L414.559 376.252L413.436 398.652L408.192 398.389ZM412.143 372.431C411.164 372.382 410.368 372.033 409.756 371.386C409.172 370.74 408.901 369.983 408.945 369.116C408.99 368.222 409.334 367.496 409.979 366.94C410.653 366.357 411.479 366.09 412.458 366.139C413.437 366.188 414.219 366.521 414.805 367.139C415.42 367.731 415.706 368.46 415.663 369.327C415.616 370.25 415.27 371.018 414.622 371.63C413.976 372.214 413.15 372.481 412.143 372.431ZM426.274 399.296L417.791 376.415L423.244 376.688L430.517 396.859L427.833 396.725L437.38 377.397L442.414 377.649L431.685 399.567L426.274 399.296ZM454.468 401.004C451.979 400.879 449.822 400.28 447.998 399.208C446.203 398.108 444.831 396.666 443.883 394.88C442.963 393.096 442.559 391.099 442.67 388.89C442.782 386.653 443.37 384.706 444.434 383.049C445.528 381.366 446.966 380.078 448.749 379.186C450.56 378.296 452.584 377.906 454.821 378.019C457.002 378.128 458.922 378.701 460.58 379.737C462.239 380.773 463.514 382.183 464.405 383.966C465.297 385.749 465.684 387.815 465.567 390.164C465.555 390.388 465.529 390.639 465.487 390.917C465.473 391.196 465.445 391.461 465.405 391.712L446.738 390.776L446.913 387.294L462.811 388.091L460.701 389.079C460.793 387.794 460.584 386.648 460.074 385.641C459.564 384.634 458.833 383.827 457.883 383.218C456.96 382.611 455.869 382.276 454.611 382.213C453.325 382.149 452.178 382.372 451.171 382.882C450.192 383.394 449.398 384.139 448.788 385.117C448.208 386.07 447.884 387.217 447.817 388.559L447.775 389.398C447.707 390.74 447.955 391.944 448.519 393.01C449.082 394.075 449.909 394.916 451 395.531C452.09 396.147 453.362 396.491 454.817 396.564C456.075 396.627 457.217 396.488 458.244 396.147C459.27 395.806 460.196 395.235 461.021 394.436L463.67 397.806C462.604 398.931 461.286 399.776 459.716 400.342C458.175 400.881 456.425 401.102 454.468 401.004Z" fill="#FDEFE8"/>
<defs>
<filter id="filter0_g_859_678" x="301.2" y="-0.000195265" width="62.6" height="901.6" filterUnits="userSpaceOnUse" color-interpolation-filters="sRGB">
<feFlood flood-opacity="0" result="BackgroundImageFix"/>
<feBlend mode="normal" in="SourceGraphic" in2="BackgroundImageFix" result="shape"/>
<feTurbulence type="fractalNoise" baseFrequency="0.10000000149011612 0.10000000149011612" numOctaves="3" seed="8450" />
<feDisplacementMap in="shape" scale="5.5999999046325684" xChannelSelector="R" yChannelSelector="G" result="displacedImage" width="100%" height="100%" />
<feMerge result="effect1_texture_859_678">
<feMergeNode in="displacedImage"/>
</feMerge>
</filter>
<filter id="filter1_g_859_678" x="77.2015" y="117.097" width="440.065" height="135.598" filterUnits="userSpaceOnUse" color-interpolation-filters="sRGB">
<feFlood flood-opacity="0" result="BackgroundImageFix"/>
<feBlend mode="normal" in="SourceGraphic" in2="BackgroundImageFix" result="shape"/>
<feTurbulence type="fractalNoise" baseFrequency="0.10000000149011612 0.10000000149011612" numOctaves="3" seed="8450" />
<feDisplacementMap in="shape" scale="5.5999999046325684" xChannelSelector="R" yChannelSelector="G" result="displacedImage" width="100%" height="100%" />
<feMerge result="effect1_texture_859_678">
<feMergeNode in="displacedImage"/>
</feMerge>
</filter>
<filter id="filter2_g_859_678" x="506.119" y="129.361" width="99.4696" height="117.601" filterUnits="userSpaceOnUse" color-interpolation-filters="sRGB">
<feFlood flood-opacity="0" result="BackgroundImageFix"/>
<feBlend mode="normal" in="SourceGraphic" in2="BackgroundImageFix" result="shape"/>
<feTurbulence type="fractalNoise" baseFrequency="0.10000000149011612 0.10000000149011612" numOctaves="3" seed="8450" />
<feDisplacementMap in="shape" scale="5.5999999046325684" xChannelSelector="R" yChannelSelector="G" result="displacedImage" width="100%" height="100%" />
<feMerge result="effect1_texture_859_678">
<feMergeNode in="displacedImage"/>
</feMerge>
</filter>
<filter id="filter3_g_859_678" x="63.8655" y="306.94" width="532.368" height="155.332" filterUnits="userSpaceOnUse" color-interpolation-filters="sRGB">
<feFlood flood-opacity="0" result="BackgroundImageFix"/>
<feBlend mode="normal" in="SourceGraphic" in2="BackgroundImageFix" result="shape"/>
<feTurbulence type="fractalNoise" baseFrequency="0.10000000149011612 0.10000000149011612" numOctaves="3" seed="8450" />
<feDisplacementMap in="shape" scale="5.5999999046325684" xChannelSelector="R" yChannelSelector="G" result="displacedImage" width="100%" height="100%" />
<feMerge result="effect1_texture_859_678">
<feMergeNode in="displacedImage"/>
</feMerge>
</filter>
<clipPath id="paint2_diamond_859_678_clip_path"><path d="M593.433 355.012L77.4152 309.74L66.6654 432.269L438.763 446.707L466.022 433.22L487.515 450.984L584.268 459.473L593.433 355.012Z"/></clipPath><filter id="filter4_g_859_678" x="2.97979" y="307.035" width="79.4545" height="126.286" filterUnits="userSpaceOnUse" color-interpolation-filters="sRGB">
<feFlood flood-opacity="0" result="BackgroundImageFix"/>
<feBlend mode="normal" in="SourceGraphic" in2="BackgroundImageFix" result="shape"/>
<feTurbulence type="fractalNoise" baseFrequency="0.10000000149011612 0.10000000149011612" numOctaves="3" seed="8450" />
<feDisplacementMap in="shape" scale="5.5999999046325684" xChannelSelector="R" yChannelSelector="G" result="displacedImage" width="100%" height="100%" />
<feMerge result="effect1_texture_859_678">
<feMergeNode in="displacedImage"/>
</feMerge>
</filter>
<linearGradient id="paint0_linear_859_678" x1="28.5" y1="0" x2="28.5" y2="896" gradientUnits="userSpaceOnUse">
<stop stop-color="#8D6D57"/>
<stop offset="1" stop-color="#FBBC97"/>
</linearGradient>
<linearGradient id="paint1_linear_859_678" x1="360.574" y1="178.107" x2="513.258" y2="179.079" gradientUnits="userSpaceOnUse">
<stop stop-color="#835947"/>
<stop offset="1" stop-color="#724F40"/>
</linearGradient>
<linearGradient id="paint2_diamond_859_678" x1="0" y1="0" x2="500" y2="500" gradientUnits="userSpaceOnUse">
<stop stop-color="#A2886A"/>
<stop offset="1" stop-color="#D2A169"/>
</linearGradient>
</defs>
</svg>
