<svg width="603" height="756" viewBox="0 0 603 756" fill="none" xmlns="http://www.w3.org/2000/svg">
<g filter="url(#filter0_g_859_640)">
<rect width="51" height="750" transform="matrix(-1 0 0 1 335.848 2.7998)" fill="url(#paint0_linear_859_640)"/>
</g>
<g filter="url(#filter1_g_859_640)">
<rect width="534.497" height="93.1708" transform="matrix(-0.997988 -0.0633986 -0.013129 0.999914 537.445 116.629)" fill="#D9D9D9"/>
<rect width="534.497" height="93.1708" transform="matrix(-0.997988 -0.0633986 -0.013129 0.999914 537.445 116.629)" fill="url(#paint1_linear_859_640)"/>
</g>
<g filter="url(#filter2_g_859_640)">
<path d="M536.09 116.704L589.462 166.92L535.024 209.882L536.09 116.704Z" fill="#AC8B73"/>
</g>
<g filter="url(#filter3_g_859_640)">
<path d="M479.523 270.39L158.001 251.021L111.351 250.933L59.2331 251.768L90.1849 300.754L55.207 347.316L475.497 365.938L479.523 270.39Z" fill="#D9D9D9"/>
<path d="M479.523 270.39L158.001 251.021L111.351 250.933L59.2331 251.768L90.1849 300.754L55.207 347.316L475.497 365.938L479.523 270.39Z" fill="url(#paint2_linear_859_640)"/>
</g>
<g filter="url(#filter4_g_859_640)">
<path d="M476.46 271.56L566.537 325.82L472.668 367.123L476.46 271.56Z" fill="#B08D8D"/>
<path d="M476.46 271.56L566.537 325.82L472.668 367.123L476.46 271.56Z" fill="url(#paint3_linear_859_640)"/>
</g>
<path d="M55.987 141.958L57.6631 112.606L71.4167 113.391C74.9389 113.593 77.5827 114.445 79.3478 115.948C81.1146 117.423 81.9318 119.32 81.7993 121.641C81.7099 123.206 81.2699 124.527 80.4792 125.604C79.6901 126.653 78.663 127.449 77.3979 127.994C76.1623 128.513 74.8317 128.731 73.4061 128.65L74.247 127.183C75.8963 127.277 77.3604 127.669 78.6391 128.359C79.9194 129.022 80.9043 129.947 81.5936 131.136C82.3109 132.327 82.6208 133.775 82.5235 135.48C82.3798 137.996 81.3036 139.898 79.295 141.186C77.2863 142.473 74.381 143.009 70.5792 142.791L55.987 141.958ZM61.6824 137.992L70.488 138.495C72.5287 138.612 74.1133 138.366 75.2418 137.757C76.3704 137.148 76.9769 136.103 77.0615 134.622C77.1445 133.168 76.6601 132.075 75.6082 131.342C74.5578 130.58 73.0124 130.142 70.9717 130.025L61.7467 129.498L61.9885 125.263L70.1233 125.728C72.0242 125.836 73.497 125.584 74.5416 124.97C75.6143 124.359 76.1889 123.382 76.2655 122.04C76.3437 120.67 75.8848 119.62 74.8888 118.89C73.9208 118.162 72.4863 117.743 70.5854 117.635L62.87 117.194L61.6824 137.992ZM97.8911 144.646C95.4032 144.503 93.2507 143.89 91.4336 142.804C89.6461 141.693 88.2846 140.241 87.3493 138.448C86.4419 136.658 86.0512 134.658 86.1773 132.45C86.305 130.214 86.9068 128.271 87.9826 126.621C89.0879 124.946 90.5351 123.668 92.3241 122.789C94.1411 121.911 96.1678 121.536 98.4042 121.663C100.585 121.788 102.5 122.374 104.151 123.422C105.802 124.47 107.067 125.888 107.947 127.677C108.826 129.466 109.199 131.535 109.065 133.883C109.052 134.107 109.024 134.357 108.98 134.635C108.964 134.915 108.935 135.18 108.892 135.43L90.2328 134.364L90.4315 130.884L106.324 131.791L104.207 132.764C104.308 131.48 104.107 130.333 103.604 129.322C103.101 128.312 102.376 127.499 101.429 126.884C100.511 126.271 99.4227 125.928 98.1647 125.857C96.8788 125.783 95.7307 125.998 94.7204 126.501C93.738 127.006 92.9385 127.746 92.322 128.72C91.735 129.668 91.4032 130.813 91.3265 132.155L91.2786 132.994C91.202 134.335 91.4417 135.541 91.9976 136.61C92.5536 137.68 93.3746 138.526 94.4609 139.149C95.5472 139.772 96.8171 140.125 98.2707 140.208C99.5287 140.28 100.672 140.149 101.701 139.815C102.729 139.481 103.659 138.917 104.49 138.123L107.115 141.512C106.041 142.629 104.718 143.465 103.143 144.02C101.599 144.549 99.8479 144.757 97.8911 144.646ZM120.369 145.929C118.497 145.822 116.707 145.482 115.001 144.907C113.324 144.307 112.003 143.628 111.037 142.872L113.277 139.003C114.246 139.704 115.418 140.304 116.792 140.803C118.166 141.302 119.551 141.591 120.949 141.671C122.598 141.765 123.799 141.61 124.552 141.204C125.332 140.8 125.744 140.22 125.787 139.465C125.822 138.85 125.597 138.375 125.111 138.039C124.627 137.674 123.984 137.385 123.183 137.171C122.382 136.957 121.482 136.752 120.484 136.554C119.514 136.359 118.532 136.12 117.538 135.839C116.574 135.532 115.699 135.131 114.914 134.638C114.131 134.116 113.51 133.45 113.051 132.638C112.593 131.827 112.4 130.778 112.474 129.492C112.555 128.067 113.031 126.86 113.9 125.872C114.772 124.856 115.95 124.11 117.436 123.634C118.951 123.131 120.715 122.937 122.727 123.052C124.237 123.138 125.751 123.393 127.269 123.816C128.788 124.24 130.032 124.788 131.004 125.46L128.764 129.329C127.738 128.625 126.686 128.13 125.609 127.844C124.561 127.532 123.506 127.346 122.444 127.285C120.85 127.194 119.649 127.364 118.839 127.794C118.057 128.226 117.645 128.806 117.604 129.533C117.565 130.204 117.788 130.721 118.272 131.085C118.756 131.45 119.398 131.753 120.198 131.995C120.997 132.237 121.882 132.455 122.852 132.651C123.852 132.82 124.834 133.059 125.799 133.366C126.763 133.674 127.637 134.074 128.422 134.568C129.237 135.035 129.874 135.674 130.332 136.486C130.791 137.297 130.984 138.332 130.912 139.59C130.832 140.988 130.343 142.18 129.446 143.166C128.576 144.154 127.37 144.898 125.827 145.399C124.285 145.872 122.466 146.049 120.369 145.929ZM143.459 147.248C140.999 147.107 139.134 146.37 137.864 145.035C136.596 143.672 136.033 141.747 136.175 139.259L137.322 119.174L142.563 119.473L141.423 139.433C141.363 140.495 141.581 141.335 142.079 141.952C142.604 142.571 143.356 142.909 144.335 142.964C145.509 143.032 146.505 142.78 147.323 142.21L148.577 146.025C147.933 146.493 147.157 146.828 146.248 147.028C145.339 147.229 144.41 147.302 143.459 147.248ZM133.1 128.272L133.339 124.079L148.267 124.931L148.028 129.125L133.1 128.272ZM170.806 132.613L185.44 133.448L185.177 138.061L170.543 137.225L170.806 132.613ZM170.362 148.489L164.911 148.178L166.587 118.826L188.014 120.049L187.753 124.62L171.777 123.708L170.362 148.489ZM201.001 150.533C198.513 150.391 196.36 149.778 194.543 148.692C192.755 147.58 191.394 146.128 190.459 144.336C189.551 142.546 189.161 140.546 189.287 138.338C189.414 136.101 190.016 134.158 191.092 132.509C192.197 130.833 193.644 129.556 195.434 128.676C197.251 127.799 199.277 127.423 201.514 127.551C203.694 127.676 205.61 128.262 207.261 129.31C208.912 130.357 210.177 131.776 211.056 133.565C211.936 135.354 212.308 137.423 212.174 139.771C212.161 139.994 212.133 140.245 212.089 140.523C212.073 140.803 212.044 141.067 212.002 141.317L193.342 140.252L193.541 136.772L209.433 137.679L207.316 138.652C207.418 137.368 207.217 136.22 206.713 135.21C206.21 134.2 205.485 133.387 204.539 132.772C203.62 132.159 202.532 131.816 201.274 131.744C199.988 131.671 198.84 131.886 197.83 132.389C196.847 132.894 196.048 133.633 195.431 134.608C194.844 135.556 194.513 136.701 194.436 138.043L194.388 138.881C194.311 140.223 194.551 141.429 195.107 142.498C195.663 143.568 196.484 144.414 197.57 145.037C198.657 145.66 199.926 146.013 201.38 146.096C202.638 146.168 203.781 146.037 204.81 145.703C205.839 145.369 206.768 144.805 207.599 144.011L210.224 147.4C209.151 148.517 207.827 149.353 206.253 149.908C204.708 150.436 202.957 150.645 201.001 150.533ZM246.132 130.099C247.921 130.201 249.48 130.641 250.81 131.418C252.168 132.196 253.197 133.335 253.897 134.833C254.598 136.304 254.884 138.171 254.755 140.435L254.022 153.266L248.78 152.967L249.475 140.807C249.588 138.822 249.239 137.316 248.429 136.288C247.618 135.26 246.402 134.7 244.781 134.607C243.634 134.542 242.6 134.735 241.676 135.187C240.781 135.641 240.054 136.343 239.495 137.292C238.964 138.244 238.655 139.474 238.569 140.984L237.92 152.347L232.679 152.048L233.373 139.888C233.486 137.903 233.138 136.396 232.327 135.369C231.516 134.341 230.3 133.78 228.679 133.688C227.533 133.622 226.498 133.816 225.575 134.268C224.679 134.721 223.952 135.423 223.393 136.373C222.862 137.324 222.553 138.555 222.467 140.064L221.818 151.428L216.577 151.128L217.855 128.737L222.845 129.022L222.505 134.976L221.725 133.165C222.563 131.754 223.716 130.712 225.185 130.039C226.682 129.367 228.353 129.084 230.198 129.189C232.294 129.309 234.082 129.93 235.56 131.052C237.067 132.176 238.012 133.8 238.395 135.925L236.381 135.095C237.204 133.459 238.482 132.186 240.217 131.276C241.952 130.365 243.923 129.973 246.132 130.099ZM274.515 154.437L274.774 149.908L274.535 148.927L274.988 141.002C275.076 139.464 274.682 138.25 273.808 137.359C272.935 136.439 271.562 135.926 269.689 135.819C268.431 135.747 267.176 135.872 265.923 136.193C264.699 136.516 263.648 137.003 262.769 137.654L260.932 133.721C262.187 132.867 263.652 132.263 265.327 131.91C267.031 131.531 268.778 131.392 270.567 131.494C273.81 131.679 276.267 132.605 277.939 134.271C279.64 135.911 280.398 138.352 280.213 141.595L279.463 154.719L274.515 154.437ZM267.454 154.328C265.777 154.232 264.325 153.869 263.099 153.238C261.875 152.579 260.942 151.726 260.3 150.68C259.689 149.608 259.419 148.428 259.493 147.142C259.565 145.884 259.923 144.769 260.567 143.796C261.24 142.825 262.278 142.085 263.681 141.576C265.084 141.067 266.918 140.878 269.182 141.007L275.682 141.378L275.483 144.858L269.361 144.509C267.572 144.407 266.353 144.631 265.705 145.183C265.058 145.707 264.71 146.389 264.662 147.227C264.608 148.178 264.942 148.954 265.665 149.556C266.388 150.158 267.42 150.498 268.762 150.574C270.048 150.648 271.211 150.42 272.251 149.89C273.319 149.362 274.109 148.538 274.622 147.417L275.323 150.612C274.744 151.898 273.778 152.866 272.422 153.518C271.095 154.171 269.439 154.441 267.454 154.328ZM286.19 155.103L287.967 123.99L293.208 124.289L291.432 155.403L286.19 155.103ZM308.819 156.69C306.331 156.548 304.179 155.934 302.361 154.849C300.574 153.737 299.213 152.285 298.277 150.493C297.37 148.702 296.979 146.703 297.105 144.494C297.233 142.258 297.835 140.315 298.91 138.666C300.016 136.99 301.463 135.712 303.252 134.833C305.069 133.955 307.096 133.58 309.332 133.708C311.513 133.832 313.428 134.419 315.079 135.466C316.73 136.514 317.995 137.933 318.875 139.722C319.754 141.511 320.127 143.579 319.993 145.927C319.98 146.151 319.952 146.402 319.908 146.68C319.892 146.959 319.863 147.224 319.82 147.474L301.161 146.409L301.359 142.928L317.252 143.836L315.135 144.809C315.236 143.524 315.035 142.377 314.532 141.367C314.029 140.356 313.304 139.544 312.357 138.929C311.439 138.315 310.351 137.973 309.093 137.901C307.807 137.828 306.659 138.042 305.648 138.546C304.666 139.051 303.866 139.79 303.25 140.765C302.663 141.713 302.331 142.858 302.254 144.199L302.207 145.038C302.13 146.38 302.37 147.585 302.926 148.655C303.481 149.724 304.303 150.571 305.389 151.193C306.475 151.816 307.745 152.169 309.199 152.252C310.457 152.324 311.6 152.193 312.629 151.859C313.657 151.525 314.587 150.961 315.418 150.168L318.043 153.557C316.969 154.673 315.645 155.509 314.071 156.064C312.527 156.593 310.776 156.802 308.819 156.69ZM358.794 129.801L364.245 130.113L362.569 159.465L357.118 159.153L358.794 129.801ZM341.938 158.287L336.487 157.975L338.163 128.623L343.614 128.934L341.938 158.287ZM358.255 146.598L342.195 145.681L342.461 141.026L358.521 141.943L358.255 146.598ZM383.726 160.673L383.985 156.144L383.746 155.163L384.199 147.238C384.287 145.7 383.893 144.486 383.019 143.595C382.146 142.675 380.773 142.162 378.9 142.055C377.642 141.984 376.387 142.108 375.134 142.429C373.91 142.752 372.858 143.239 371.98 143.89L370.143 139.957C371.398 139.103 372.863 138.499 374.537 138.146C376.242 137.767 377.989 137.628 379.778 137.73C383.02 137.916 385.478 138.841 387.149 140.507C388.851 142.147 389.609 144.588 389.424 147.831L388.674 160.955L383.726 160.673ZM376.665 160.564C374.988 160.468 373.536 160.105 372.31 159.474C371.085 158.815 370.153 157.963 369.511 156.916C368.899 155.844 368.63 154.664 368.704 153.379C368.775 152.121 369.134 151.005 369.778 150.032C370.45 149.061 371.488 148.321 372.892 147.812C374.295 147.303 376.129 147.114 378.393 147.243L384.892 147.614L384.694 151.094L378.572 150.745C376.783 150.643 375.564 150.868 374.915 151.42C374.268 151.943 373.921 152.625 373.873 153.463C373.819 154.414 374.153 155.19 374.876 155.792C375.599 156.395 376.631 156.734 377.973 156.811C379.259 156.884 380.422 156.656 381.462 156.126C382.529 155.598 383.32 154.774 383.832 153.654L384.533 156.849C383.955 158.134 382.988 159.102 381.633 159.754C380.306 160.407 378.65 160.677 376.665 160.564ZM405.698 162.222C403.35 162.088 401.281 161.479 399.492 160.395C397.733 159.285 396.385 157.834 395.45 156.042C394.515 154.249 394.11 152.249 394.236 150.041C394.364 147.804 394.993 145.863 396.125 144.217C397.258 142.543 398.762 141.268 400.634 140.394C402.535 139.521 404.66 139.151 407.008 139.285C409.188 139.41 411.078 139.966 412.676 140.955C414.304 141.918 415.502 143.276 416.272 145.031L412.112 147.149C411.502 146.049 410.722 145.219 409.772 144.66C408.85 144.102 407.83 143.792 406.712 143.728C405.426 143.654 404.25 143.868 403.184 144.368C402.118 144.868 401.261 145.632 400.613 146.661C399.967 147.662 399.602 148.889 399.519 150.342C399.436 151.796 399.658 153.071 400.185 154.167C400.713 155.234 401.478 156.077 402.48 156.696C403.482 157.314 404.627 157.659 405.913 157.733C407.031 157.797 408.079 157.604 409.059 157.155C410.066 156.708 410.935 155.972 411.667 154.948L415.558 157.526C414.596 159.154 413.249 160.382 411.52 161.208C409.819 162.009 407.879 162.347 405.698 162.222ZM424.164 157.976L424.665 151.4L436.982 141.249L443.272 141.609L432.764 151.021L429.865 153.169L424.164 157.976ZM419.602 162.721L421.378 131.608L426.62 131.907L424.843 163.021L419.602 162.721ZM436.5 163.686L428.9 153.114L432.453 149.11L442.874 164.05L436.5 163.686ZM455.867 165.087C453.379 164.945 451.226 164.331 449.409 163.246C447.622 162.134 446.26 160.682 445.325 158.89C444.417 157.099 444.027 155.1 444.153 152.891C444.281 150.655 444.882 148.712 445.958 147.063C447.063 145.387 448.511 144.109 450.3 143.23C452.117 142.352 454.143 141.977 456.38 142.105C458.56 142.229 460.476 142.815 462.127 143.863C463.778 144.911 465.043 146.329 465.922 148.118C466.802 149.907 467.174 151.976 467.04 154.324C467.028 154.548 466.999 154.799 466.955 155.077C466.939 155.356 466.91 155.621 466.868 155.871L448.208 154.805L448.407 151.325L464.299 152.233L462.182 153.205C462.284 151.921 462.083 150.774 461.579 149.764C461.076 148.753 460.351 147.941 459.405 147.326C458.486 146.712 457.398 146.37 456.14 146.298C454.854 146.224 453.706 146.439 452.696 146.942C451.713 147.447 450.914 148.187 450.297 149.161C449.71 150.109 449.379 151.254 449.302 152.596L449.254 153.435C449.177 154.777 449.417 155.982 449.973 157.052C450.529 158.121 451.35 158.967 452.436 159.59C453.523 160.213 454.793 160.566 456.246 160.649C457.504 160.721 458.647 160.59 459.676 160.256C460.705 159.922 461.635 159.358 462.465 158.564L465.09 161.953C464.017 163.07 462.693 163.906 461.119 164.461C459.574 164.99 457.823 165.198 455.867 165.087ZM471.443 165.682L472.722 143.29L477.711 143.575L477.359 149.739L476.875 147.902C477.632 146.431 478.746 145.345 480.217 144.644C481.715 143.944 483.54 143.656 485.693 143.778L485.408 148.768C485.187 148.7 484.979 148.66 484.784 148.649C484.59 148.609 484.395 148.584 484.199 148.573C482.214 148.46 480.601 148.957 479.36 150.064C478.121 151.143 477.435 152.828 477.305 155.121L476.684 165.981L471.443 165.682Z" fill="#FDEFE8"/>
<path d="M128.865 311.26L120.494 281.44L126.158 281.703L133.611 308.663L130.8 308.533L141.052 282.394L146.087 282.628L153.623 309.592L150.896 309.465L161.023 283.321L166.225 283.562L155.129 312.479L149.339 312.21L142.437 287.882L143.948 287.952L134.697 311.531L128.865 311.26ZM177.178 313.796C174.884 313.69 172.865 313.106 171.121 312.044C169.377 310.954 168.028 309.518 167.074 307.735C166.12 305.953 165.694 303.957 165.796 301.748C165.9 299.51 166.509 297.562 167.623 295.904C168.738 294.218 170.214 292.927 172.049 292.031C173.885 291.135 175.949 290.741 178.243 290.847C180.564 290.955 182.597 291.54 184.342 292.602C186.115 293.665 187.465 295.073 188.393 296.826C189.348 298.58 189.774 300.59 189.668 302.856C189.566 305.065 188.957 307.013 187.842 308.699C186.754 310.387 185.278 311.692 183.413 312.614C181.578 313.51 179.499 313.904 177.178 313.796ZM177.386 309.307C178.673 309.367 179.833 309.14 180.865 308.628C181.898 308.115 182.719 307.34 183.328 306.303C183.965 305.268 184.316 304.037 184.382 302.61C184.45 301.156 184.214 299.898 183.674 298.835C183.164 297.747 182.419 296.899 181.438 296.293C180.457 295.687 179.337 295.355 178.078 295.296C176.792 295.237 175.632 295.463 174.599 295.976C173.594 296.49 172.773 297.264 172.137 298.3C171.501 299.308 171.15 300.539 171.082 301.993C171.016 303.42 171.252 304.678 171.79 305.768C172.328 306.858 173.074 307.706 174.027 308.31C175.008 308.917 176.128 309.249 177.386 309.307ZM223.492 292.947C225.283 293.03 226.847 293.453 228.185 294.216C229.551 294.98 230.592 296.107 231.307 297.598C232.024 299.061 232.33 300.925 232.225 303.191L231.629 316.029L226.385 315.786L226.949 303.619C227.042 301.633 226.677 300.13 225.855 299.111C225.034 298.092 223.812 297.545 222.189 297.469C221.043 297.416 220.01 297.621 219.092 298.082C218.201 298.546 217.482 299.255 216.933 300.211C216.412 301.168 216.116 302.401 216.046 303.912L215.519 315.281L210.274 315.038L210.839 302.871C210.931 300.885 210.566 299.383 209.745 298.363C208.923 297.344 207.701 296.797 206.079 296.722C204.932 296.669 203.899 296.873 202.981 297.335C202.091 297.798 201.371 298.507 200.822 299.463C200.301 300.42 200.006 301.654 199.936 303.164L199.408 314.534L194.164 314.29L195.203 291.886L200.196 292.118L199.919 298.076L199.12 296.273C199.943 294.853 201.085 293.799 202.546 293.11C204.036 292.422 205.704 292.121 207.55 292.207C209.647 292.304 211.441 292.906 212.932 294.013C214.45 295.12 215.412 296.734 215.818 298.856L213.796 298.047C214.601 296.402 215.866 295.116 217.591 294.187C219.316 293.258 221.283 292.844 223.492 292.947ZM248.889 317.124C246.4 317.009 244.241 316.418 242.412 315.352C240.613 314.26 239.236 312.822 238.281 311.04C237.355 309.259 236.943 307.264 237.046 305.054C237.149 302.817 237.73 300.868 238.789 299.207C239.876 297.519 241.309 296.226 243.089 295.328C244.897 294.431 246.919 294.034 249.157 294.138C251.338 294.239 253.26 294.805 254.922 295.835C256.584 296.865 257.865 298.27 258.763 300.05C259.661 301.829 260.056 303.894 259.947 306.243C259.937 306.467 259.911 306.718 259.87 306.996C259.857 307.276 259.831 307.541 259.791 307.792L241.121 306.925L241.283 303.443L257.184 304.181L255.077 305.176C255.165 303.891 254.952 302.746 254.438 301.741C253.924 300.736 253.19 299.931 252.238 299.326C251.312 298.723 250.221 298.392 248.962 298.333C247.675 298.274 246.53 298.501 245.525 299.015C244.548 299.53 243.756 300.278 243.15 301.259C242.573 302.213 242.254 303.362 242.191 304.704L242.152 305.544C242.09 306.886 242.343 308.089 242.91 309.153C243.477 310.216 244.307 311.053 245.4 311.665C246.493 312.276 247.767 312.615 249.221 312.683C250.48 312.741 251.622 312.598 252.647 312.253C253.672 311.908 254.595 311.335 255.417 310.532L258.079 313.893C257.017 315.021 255.702 315.871 254.134 316.443C252.595 316.988 250.847 317.215 248.889 317.124ZM278.234 295.487C280.024 295.57 281.603 295.994 282.969 296.758C284.363 297.524 285.431 298.652 286.175 300.144C286.92 301.609 287.24 303.473 287.135 305.739L286.539 318.577L281.295 318.334L281.859 306.167C281.951 304.181 281.545 302.677 280.639 301.653C279.762 300.632 278.484 300.082 276.805 300.004C275.575 299.947 274.472 300.148 273.498 300.607C272.524 301.067 271.747 301.787 271.169 302.77C270.62 303.725 270.311 304.958 270.241 306.469L269.715 317.796L264.471 317.553L265.51 295.149L270.503 295.381L270.223 301.422L269.427 299.535C270.277 298.145 271.46 297.107 272.977 296.421C274.524 295.708 276.276 295.397 278.234 295.487ZM292.457 300.394L295.323 291.193L295.89 294.373C294.911 294.327 294.1 293.981 293.457 293.335C292.843 292.69 292.559 291.85 292.607 290.815C292.655 289.78 293.015 288.97 293.687 288.384C294.388 287.772 295.214 287.488 296.165 287.532C297.144 287.577 297.94 287.937 298.554 288.61C299.167 289.283 299.451 290.123 299.404 291.13C299.39 291.438 299.347 291.758 299.275 292.091C299.233 292.397 299.132 292.757 298.973 293.17C298.843 293.557 298.623 294.065 298.314 294.695L295.855 300.552L292.457 300.394ZM309.442 319.934C307.568 319.847 305.775 319.526 304.063 318.97C302.38 318.387 301.052 317.723 300.077 316.977L302.276 313.085C303.253 313.775 304.431 314.362 305.81 314.847C307.189 315.331 308.578 315.606 309.976 315.671C311.627 315.747 312.826 315.579 313.574 315.165C314.35 314.752 314.755 314.168 314.79 313.413C314.819 312.798 314.588 312.325 314.099 311.994C313.611 311.635 312.966 311.352 312.162 311.147C311.359 310.942 310.457 310.746 309.457 310.559C308.484 310.374 307.5 310.146 306.503 309.875C305.536 309.578 304.657 309.187 303.867 308.702C303.078 308.189 302.45 307.529 301.983 306.722C301.515 305.916 301.312 304.869 301.371 303.583C301.438 302.156 301.9 300.944 302.76 299.947C303.62 298.922 304.79 298.163 306.271 297.671C307.78 297.153 309.542 296.94 311.556 297.034C313.066 297.104 314.583 297.342 316.106 297.749C317.629 298.156 318.879 298.691 319.857 299.353L317.659 303.245C316.626 302.553 315.569 302.069 314.488 301.795C313.437 301.494 312.38 301.319 311.317 301.269C309.723 301.195 308.523 301.378 307.718 301.817C306.941 302.257 306.535 302.841 306.502 303.568C306.471 304.24 306.699 304.755 307.187 305.114C307.675 305.473 308.32 305.769 309.122 306.003C309.924 306.236 310.811 306.445 311.783 306.631C312.785 306.789 313.77 307.017 314.737 307.314C315.704 307.611 316.583 308.003 317.373 308.488C318.193 308.946 318.836 309.579 319.303 310.385C319.771 311.192 319.975 312.224 319.916 313.483C319.852 314.881 319.376 316.079 318.488 317.075C317.629 318.072 316.431 318.829 314.893 319.346C313.357 319.836 311.54 320.032 309.442 319.934ZM336.224 320.883L337.587 291.514L343.041 291.768L341.678 321.136L336.224 320.883ZM356.027 322.096C354.153 322.009 352.36 321.688 350.648 321.132C348.965 320.549 347.636 319.885 346.662 319.139L348.861 315.247C349.838 315.937 351.016 316.524 352.395 317.008C353.774 317.493 355.163 317.767 356.561 317.832C358.211 317.909 359.41 317.74 360.158 317.327C360.934 316.914 361.34 316.33 361.375 315.575C361.403 314.96 361.173 314.487 360.684 314.156C360.196 313.797 359.55 313.514 358.747 313.309C357.944 313.103 357.042 312.907 356.041 312.721C355.069 312.536 354.084 312.308 353.088 312.037C352.121 311.74 351.242 311.349 350.451 310.864C349.662 310.351 349.034 309.691 348.567 308.884C348.1 308.078 347.896 307.031 347.956 305.744C348.022 304.318 348.485 303.106 349.344 302.109C350.205 301.084 351.375 300.325 352.855 299.833C354.365 299.315 356.127 299.102 358.141 299.196C359.651 299.266 361.168 299.504 362.69 299.911C364.213 300.318 365.464 300.853 366.442 301.515L364.243 305.407C363.21 304.715 362.154 304.231 361.073 303.957C360.022 303.656 358.965 303.48 357.902 303.431C356.308 303.357 355.108 303.54 354.303 303.979C353.526 304.419 353.12 305.003 353.086 305.73C353.055 306.402 353.284 306.917 353.771 307.276C354.259 307.635 354.904 307.931 355.706 308.164C356.508 308.398 357.396 308.607 358.368 308.792C359.37 308.951 360.354 309.179 361.322 309.476C362.289 309.773 363.168 310.164 363.958 310.65C364.778 311.108 365.421 311.741 365.888 312.547C366.355 313.354 366.56 314.386 366.501 315.645C366.436 317.043 365.96 318.241 365.073 319.236C364.214 320.234 363.016 320.991 361.478 321.508C359.942 321.998 358.125 322.194 356.027 322.096ZM377.619 323.098C375.745 323.011 373.952 322.69 372.24 322.134C370.557 321.551 369.228 320.887 368.254 320.141L370.453 316.249C371.43 316.939 372.608 317.526 373.987 318.01C375.366 318.495 376.755 318.77 378.153 318.834C379.803 318.911 381.002 318.742 381.75 318.329C382.526 317.916 382.932 317.332 382.967 316.577C382.995 315.962 382.765 315.489 382.276 315.158C381.788 314.799 381.142 314.516 380.339 314.311C379.536 314.105 378.634 313.909 377.633 313.723C376.661 313.538 375.676 313.31 374.68 313.039C373.713 312.742 372.834 312.351 372.043 311.866C371.254 311.353 370.626 310.693 370.159 309.886C369.692 309.08 369.488 308.033 369.548 306.747C369.614 305.32 370.077 304.108 370.936 303.111C371.797 302.086 372.967 301.327 374.447 300.835C375.957 300.317 377.719 300.104 379.733 300.198C381.243 300.268 382.76 300.506 384.282 300.913C385.805 301.32 387.056 301.855 388.034 302.517L385.835 306.409C384.802 305.717 383.746 305.233 382.665 304.959C381.614 304.658 380.557 304.482 379.494 304.433C377.9 304.359 376.7 304.542 375.895 304.981C375.118 305.421 374.712 306.005 374.678 306.732C374.647 307.404 374.876 307.919 375.363 308.278C375.851 308.637 376.496 308.933 377.298 309.166C378.1 309.4 378.988 309.609 379.96 309.794C380.962 309.953 381.946 310.181 382.914 310.478C383.881 310.775 384.76 311.166 385.55 311.652C386.37 312.11 387.013 312.743 387.48 313.549C387.947 314.356 388.152 315.388 388.093 316.647C388.028 318.045 387.552 319.243 386.665 320.239C385.806 321.236 384.608 321.993 383.07 322.51C381.534 323 379.717 323.196 377.619 323.098ZM401.77 324.219C399.868 324.131 398.206 323.703 396.784 322.937C395.363 322.142 394.281 320.998 393.538 319.506C392.795 317.986 392.476 316.107 392.58 313.87L393.174 301.074L398.418 301.317L397.857 313.4C397.764 315.414 398.141 316.945 398.99 317.993C399.867 319.015 401.145 319.565 402.823 319.643C404.054 319.7 405.128 319.498 406.047 319.036C406.993 318.575 407.742 317.853 408.292 316.869C408.87 315.887 409.193 314.655 409.262 313.172L409.788 301.845L415.032 302.088L413.993 324.492L409 324.26L409.28 318.219L410.076 320.106C409.253 321.525 408.096 322.593 406.605 323.308C405.116 323.996 403.504 324.299 401.77 324.219ZM431.376 325.593C428.887 325.477 426.728 324.887 424.899 323.821C423.1 322.728 421.723 321.291 420.769 319.509C419.842 317.728 419.43 315.733 419.533 313.523C419.637 311.285 420.218 309.336 421.276 307.675C422.363 305.988 423.797 304.695 425.576 303.797C427.384 302.899 429.406 302.503 431.644 302.607C433.826 302.708 435.747 303.274 437.409 304.304C439.071 305.334 440.352 306.739 441.25 308.518C442.149 310.298 442.543 312.362 442.434 314.712C442.424 314.936 442.398 315.187 442.357 315.465C442.344 315.745 442.318 316.01 442.278 316.26L423.608 315.394L423.77 311.912L439.671 312.65L437.565 313.645C437.652 312.36 437.439 311.215 436.925 310.21C436.411 309.205 435.678 308.4 434.725 307.795C433.8 307.192 432.708 306.861 431.449 306.802C430.163 306.742 429.017 306.97 428.012 307.484C427.035 307.999 426.243 308.747 425.637 309.728C425.06 310.682 424.741 311.831 424.679 313.173L424.64 314.012C424.577 315.355 424.83 316.558 425.397 317.621C425.964 318.685 426.795 319.522 427.887 320.133C428.98 320.745 430.254 321.084 431.708 321.152C432.967 321.21 434.109 321.067 435.134 320.722C436.159 320.377 437.083 319.803 437.905 319L440.566 322.361C439.504 323.489 438.189 324.339 436.621 324.911C435.082 325.457 433.334 325.684 431.376 325.593Z" fill="#FDEFE8"/>
<defs>
<filter id="filter0_g_859_640" x="282.048" y="-0.000195265" width="56.6" height="755.6" filterUnits="userSpaceOnUse" color-interpolation-filters="sRGB">
<feFlood flood-opacity="0" result="BackgroundImageFix"/>
<feBlend mode="normal" in="SourceGraphic" in2="BackgroundImageFix" result="shape"/>
<feTurbulence type="fractalNoise" baseFrequency="0.10000000149011612 0.10000000149011612" numOctaves="3" seed="8450" />
<feDisplacementMap in="shape" scale="5.5999999046325684" xChannelSelector="R" yChannelSelector="G" result="displacedImage" width="100%" height="100%" />
<feMerge result="effect1_texture_859_640">
<feMergeNode in="displacedImage"/>
</feMerge>
</filter>
<filter id="filter1_g_859_640" x="-0.000195265" y="79.9422" width="540.245" height="132.65" filterUnits="userSpaceOnUse" color-interpolation-filters="sRGB">
<feFlood flood-opacity="0" result="BackgroundImageFix"/>
<feBlend mode="normal" in="SourceGraphic" in2="BackgroundImageFix" result="shape"/>
<feTurbulence type="fractalNoise" baseFrequency="0.10000000149011612 0.10000000149011612" numOctaves="3" seed="8450" />
<feDisplacementMap in="shape" scale="5.5999999046325684" xChannelSelector="R" yChannelSelector="G" result="displacedImage" width="100%" height="100%" />
<feMerge result="effect1_texture_859_640">
<feMergeNode in="displacedImage"/>
</feMerge>
</filter>
<filter id="filter2_g_859_640" x="532.224" y="113.904" width="60.038" height="98.7777" filterUnits="userSpaceOnUse" color-interpolation-filters="sRGB">
<feFlood flood-opacity="0" result="BackgroundImageFix"/>
<feBlend mode="normal" in="SourceGraphic" in2="BackgroundImageFix" result="shape"/>
<feTurbulence type="fractalNoise" baseFrequency="0.10000000149011612 0.10000000149011612" numOctaves="3" seed="8450" />
<feDisplacementMap in="shape" scale="5.5999999046325684" xChannelSelector="R" yChannelSelector="G" result="displacedImage" width="100%" height="100%" />
<feMerge result="effect1_texture_859_640">
<feMergeNode in="displacedImage"/>
</feMerge>
</filter>
<filter id="filter3_g_859_640" x="52.407" y="248.133" width="429.916" height="120.605" filterUnits="userSpaceOnUse" color-interpolation-filters="sRGB">
<feFlood flood-opacity="0" result="BackgroundImageFix"/>
<feBlend mode="normal" in="SourceGraphic" in2="BackgroundImageFix" result="shape"/>
<feTurbulence type="fractalNoise" baseFrequency="0.10000000149011612 0.10000000149011612" numOctaves="3" seed="8450" />
<feDisplacementMap in="shape" scale="5.5999999046325684" xChannelSelector="R" yChannelSelector="G" result="displacedImage" width="100%" height="100%" />
<feMerge result="effect1_texture_859_640">
<feMergeNode in="displacedImage"/>
</feMerge>
</filter>
<filter id="filter4_g_859_640" x="469.868" y="268.76" width="99.4691" height="101.163" filterUnits="userSpaceOnUse" color-interpolation-filters="sRGB">
<feFlood flood-opacity="0" result="BackgroundImageFix"/>
<feBlend mode="normal" in="SourceGraphic" in2="BackgroundImageFix" result="shape"/>
<feTurbulence type="fractalNoise" baseFrequency="0.10000000149011612 0.10000000149011612" numOctaves="3" seed="8450" />
<feDisplacementMap in="shape" scale="5.5999999046325684" xChannelSelector="R" yChannelSelector="G" result="displacedImage" width="100%" height="100%" />
<feMerge result="effect1_texture_859_640">
<feMergeNode in="displacedImage"/>
</feMerge>
</filter>
<linearGradient id="paint0_linear_859_640" x1="25.5" y1="0" x2="25.5" y2="750" gradientUnits="userSpaceOnUse">
<stop stop-color="#8D6D57"/>
<stop offset="1" stop-color="#8D674C"/>
</linearGradient>
<linearGradient id="paint1_linear_859_640" x1="342.879" y1="48.2827" x2="534.424" y2="43.5849" gradientUnits="userSpaceOnUse">
<stop stop-color="#AC8B73"/>
<stop offset="1" stop-color="#836754"/>
</linearGradient>
<linearGradient id="paint2_linear_859_640" x1="207.822" y1="307.96" x2="88.4785" y2="303.167" gradientUnits="userSpaceOnUse">
<stop stop-color="#905A5B"/>
<stop offset="1" stop-color="#AF6969"/>
</linearGradient>
<linearGradient id="paint3_linear_859_640" x1="485.045" y1="315.573" x2="565.044" y2="282.894" gradientUnits="userSpaceOnUse">
<stop stop-color="#915A5B"/>
<stop offset="1" stop-color="#AF6969"/>
</linearGradient>
</defs>
</svg>
