<svg width="488" height="902" viewBox="0 0 488 902" fill="none" xmlns="http://www.w3.org/2000/svg">
<g filter="url(#filter0_g_859_654)">
<rect width="57" height="896" transform="matrix(-1 0 0 1 294.022 2.7998)" fill="url(#paint0_linear_859_654)"/>
</g>
<g filter="url(#filter1_g_859_654)">
<path d="M482.937 128.64L57.9902 135.361L59.7929 249.346L364.77 235.384L385.412 222.694L404.918 234.749L484.595 233.489L482.937 128.64Z" fill="#D9D9D9"/>
<path d="M482.937 128.64L57.9902 135.361L59.7929 249.346L364.77 235.384L385.412 222.694L404.918 234.749L484.595 233.489L482.937 128.64Z" fill="url(#paint1_linear_859_654)"/>
</g>
<g filter="url(#filter2_g_859_654)">
<path d="M59.0727 135.061L2.79987 188.995L60.8641 248.33L59.0727 135.061Z" fill="#4B6A68"/>
</g>
<g filter="url(#filter3_g_859_654)">
<path d="M458.677 303.811L96.3034 314.804L93.303 413.356L269.852 414.902L261.207 400.325L320.942 413.352L419.78 416.349C429.641 405.962 445.924 406.264 454.114 416.985L461.814 427.066L458.677 303.811Z" fill="#D9D9D9"/>
<path d="M458.677 303.811L96.3034 314.804L93.303 413.356L269.852 414.902L261.207 400.325L320.942 413.352L419.78 416.349C429.641 405.962 445.924 406.264 454.114 416.985L461.814 427.066L458.677 303.811Z" fill="url(#paint2_linear_859_654)"/>
</g>
<g filter="url(#filter4_g_859_654)">
<path d="M98.9593 314.362L44.0197 358.429L96.008 411.304L98.9593 314.362Z" fill="#46523C"/>
</g>
<path d="M174.146 177.135L179.6 176.882L180.965 206.25L175.511 206.503L174.146 177.135ZM160.324 207.209L154.869 207.463L153.504 178.095L158.958 177.841L160.324 207.209ZM175.346 193.897L159.277 194.644L159.061 189.987L175.129 189.241L175.346 193.897ZM202.134 205.266L201.924 200.735L201.585 199.783L201.217 191.854C201.145 190.316 200.628 189.148 199.666 188.352C198.703 187.528 197.284 187.16 195.41 187.247C194.152 187.305 192.916 187.559 191.704 188.008C190.519 188.455 189.524 189.048 188.717 189.786L186.484 186.064C187.644 185.085 189.038 184.333 190.668 183.809C192.324 183.256 194.047 182.937 195.837 182.854C199.081 182.703 201.621 183.37 203.456 184.854C205.318 186.31 206.324 188.659 206.475 191.904L207.085 205.036L202.134 205.266ZM195.1 205.887C193.421 205.965 191.94 205.754 190.655 205.253C189.369 204.724 188.353 203.972 187.607 202.998C186.888 201.994 186.498 200.849 186.439 199.563C186.38 198.304 186.621 197.157 187.162 196.123C187.73 195.088 188.686 194.244 190.029 193.593C191.373 192.942 193.177 192.564 195.442 192.459L201.945 192.157L202.107 195.639L195.982 195.923C194.192 196.007 193.003 196.356 192.415 196.972C191.825 197.56 191.55 198.274 191.589 199.113C191.634 200.064 192.046 200.801 192.827 201.326C193.609 201.85 194.67 202.081 196.013 202.019C197.3 201.959 198.433 201.612 199.412 200.978C200.42 200.342 201.121 199.441 201.515 198.273L202.542 201.379C202.1 202.717 201.238 203.78 199.958 204.568C198.705 205.355 197.085 205.795 195.1 205.887ZM213.815 204.723L212.774 182.319L217.767 182.087L218.053 188.254L217.382 186.478C217.983 184.936 218.979 183.741 220.369 182.891C221.787 182.04 223.573 181.565 225.726 181.465L225.958 186.457C225.732 186.412 225.521 186.394 225.325 186.403C225.128 186.384 224.932 186.379 224.736 186.388C222.75 186.48 221.197 187.141 220.077 188.371C218.956 189.572 218.448 191.319 218.555 193.613L219.06 204.479L213.815 204.723ZM240.519 203.776C238.365 203.876 236.399 203.491 234.621 202.621C232.869 201.721 231.464 200.441 230.406 198.78C229.348 197.12 228.765 195.128 228.657 192.807C228.549 190.485 228.945 188.449 229.844 186.697C230.744 184.946 232.025 183.555 233.687 182.524C235.377 181.493 237.298 180.927 239.452 180.827C241.326 180.74 243.024 181.081 244.545 181.851C246.065 182.594 247.298 183.784 248.243 185.422C249.188 187.059 249.722 189.193 249.844 191.822C249.965 194.423 249.645 196.596 248.886 198.342C248.124 200.059 247.022 201.371 245.579 202.279C244.135 203.187 242.449 203.686 240.519 203.776ZM240.94 199.258C242.198 199.199 243.304 198.867 244.257 198.262C245.238 197.656 245.997 196.808 246.535 195.718C247.101 194.626 247.351 193.368 247.285 191.941C247.217 190.487 246.852 189.256 246.188 188.25C245.551 187.214 244.716 186.44 243.684 185.928C242.679 185.414 241.547 185.186 240.288 185.245C239.03 185.303 237.91 185.636 236.929 186.242C235.976 186.847 235.216 187.695 234.651 188.786C234.111 189.848 233.875 191.107 233.943 192.561C234.009 193.988 234.361 195.219 234.998 196.254C235.662 197.288 236.497 198.063 237.502 198.576C238.535 199.089 239.681 199.316 240.94 199.258ZM247.931 203.137L247.685 197.851L247.618 191.884L246.922 185.945L246.274 172.016L251.477 171.775L252.924 202.905L247.931 203.137ZM264.777 202.354L255.512 180.332L260.463 180.102L268.43 199.535L266.081 199.645L272.546 179.541L276.951 179.336L285.044 198.763L282.737 198.87L289.076 178.772L293.733 178.556L286.51 201.344L281.475 201.578L274.117 184.387L275.669 184.315L269.812 202.12L264.777 202.354ZM311.487 200.183L311.276 195.652L310.938 194.7L310.569 186.771C310.498 185.233 309.981 184.065 309.019 183.269C308.056 182.445 306.637 182.077 304.763 182.164C303.504 182.222 302.269 182.476 301.056 182.925C299.872 183.372 298.876 183.965 298.07 184.703L295.837 180.981C296.996 180.002 298.391 179.25 300.02 178.726C301.676 178.173 303.4 177.854 305.19 177.771C308.434 177.62 310.974 178.287 312.809 179.771C314.67 181.227 315.676 183.576 315.827 186.821L316.438 199.953L311.487 200.183ZM304.452 200.804C302.774 200.882 301.293 200.671 300.008 200.17C298.722 199.641 297.706 198.889 296.96 197.915C296.241 196.911 295.851 195.766 295.791 194.479C295.733 193.221 295.974 192.074 296.514 191.04C297.083 190.005 298.039 189.161 299.382 188.51C300.725 187.859 302.53 187.481 304.795 187.376L311.298 187.073L311.46 190.556L305.335 190.84C303.545 190.924 302.355 191.273 301.767 191.889C301.178 192.477 300.903 193.191 300.942 194.03C300.986 194.981 301.399 195.718 302.18 196.243C302.961 196.767 304.023 196.998 305.366 196.936C306.652 196.876 307.785 196.529 308.765 195.895C309.773 195.259 310.473 194.358 310.868 193.19L311.895 196.296C311.453 197.634 310.591 198.697 309.31 199.485C308.057 200.272 306.438 200.712 304.452 200.804ZM323.168 199.64L322.127 177.236L327.119 177.004L327.406 183.171L326.735 181.395C327.336 179.853 328.331 178.658 329.721 177.808C331.14 176.957 332.925 176.482 335.079 176.382L335.311 181.374C335.085 181.329 334.874 181.311 334.678 181.32C334.481 181.301 334.284 181.296 334.089 181.305C332.103 181.397 330.55 182.058 329.43 183.288C328.308 184.489 327.801 186.236 327.907 188.53L328.412 199.396L323.168 199.64ZM350.92 198.644C348.431 198.76 346.227 198.372 344.307 197.48C342.414 196.559 340.91 195.255 339.795 193.569C338.707 191.882 338.112 189.934 338.009 187.724C337.905 185.486 338.303 183.492 339.203 181.74C340.129 179.959 341.437 178.539 343.125 177.479C344.842 176.418 346.819 175.836 349.056 175.732C351.238 175.631 353.204 176.016 354.955 176.887C356.705 177.759 358.11 179.039 359.169 180.728C360.229 182.416 360.813 184.436 360.923 186.785C360.933 187.009 360.931 187.261 360.916 187.542C360.929 187.822 360.927 188.088 360.911 188.341L342.241 189.209L342.079 185.727L357.98 184.988L355.975 186.174C355.943 184.886 355.625 183.766 355.02 182.813C354.415 181.86 353.61 181.126 352.605 180.613C351.628 180.097 350.51 179.869 349.252 179.927C347.965 179.987 346.845 180.32 345.892 180.925C344.967 181.528 344.248 182.346 343.736 183.379C343.25 184.383 343.038 185.556 343.101 186.899L343.14 187.738C343.202 189.08 343.565 190.255 344.228 191.261C344.892 192.267 345.796 193.024 346.941 193.531C348.085 194.039 349.385 194.259 350.84 194.191C352.098 194.133 353.222 193.884 354.211 193.446C355.199 193.007 356.066 192.35 356.81 191.475L359.771 194.575C358.819 195.796 357.588 196.765 356.08 197.479C354.598 198.165 352.878 198.553 350.92 198.644Z" fill="#FDEFE8"/>
<path d="M169.492 376.544C167.253 376.594 165.159 376.276 163.212 375.591C161.291 374.877 159.602 373.865 158.145 372.553C156.715 371.212 155.587 369.627 154.763 367.796C153.938 365.966 153.501 363.959 153.453 361.776C153.404 359.593 153.752 357.568 154.494 355.703C155.237 353.838 156.308 352.218 157.705 350.843C159.103 349.44 160.745 348.353 162.632 347.583C164.519 346.785 166.596 346.361 168.864 346.31C171.271 346.257 173.478 346.628 175.484 347.424C177.489 348.192 179.196 349.372 180.604 350.965L177.15 354.361C176.061 353.236 174.852 352.409 173.524 351.878C172.196 351.32 170.761 351.057 169.222 351.092C167.682 351.126 166.274 351.409 164.998 351.942C163.749 352.473 162.659 353.212 161.728 354.157C160.825 355.101 160.121 356.209 159.617 357.48C159.141 358.751 158.92 360.142 158.953 361.654C158.987 363.166 159.27 364.546 159.801 365.794C160.361 367.042 161.113 368.118 162.058 369.021C163.03 369.924 164.151 370.613 165.422 371.089C166.721 371.564 168.14 371.785 169.68 371.751C171.22 371.716 172.641 371.405 173.944 370.816C175.247 370.199 176.417 369.291 177.455 368.091L181.056 371.372C179.72 372.998 178.068 374.253 176.099 375.137C174.13 376.021 171.928 376.49 169.492 376.544ZM199.492 375.458L199.392 370.923L199.076 369.964L198.9 362.028C198.866 360.489 198.378 359.309 197.435 358.49C196.492 357.642 195.083 357.24 193.207 357.281C191.948 357.309 190.706 357.533 189.483 357.952C188.288 358.371 187.279 358.939 186.454 359.658L184.312 355.882C185.495 354.932 186.908 354.214 188.55 353.73C190.219 353.216 191.949 352.94 193.74 352.9C196.988 352.828 199.51 353.557 201.309 355.085C203.134 356.585 204.083 358.958 204.155 362.206L204.447 375.348L199.492 375.458ZM192.444 375.909C190.765 375.946 189.289 375.699 188.017 375.167C186.744 374.607 185.747 373.831 185.024 372.839C184.33 371.818 183.968 370.663 183.939 369.376C183.911 368.116 184.18 366.976 184.746 365.955C185.339 364.934 186.315 364.114 187.674 363.495C189.033 362.877 190.846 362.543 193.113 362.493L199.621 362.348L199.699 365.833L193.568 365.969C191.777 366.009 190.579 366.33 189.977 366.931C189.373 367.505 189.081 368.211 189.099 369.051C189.121 370.003 189.515 370.75 190.283 371.294C191.052 371.837 192.108 372.093 193.451 372.063C194.739 372.035 195.88 371.715 196.875 371.105C197.898 370.494 198.62 369.61 199.043 368.453L199.994 371.582C199.52 372.909 198.632 373.951 197.333 374.708C196.061 375.464 194.432 375.865 192.444 375.909ZM218.118 375.339C216.242 375.381 214.431 375.183 212.685 374.746C210.967 374.28 209.595 373.708 208.572 373.03L210.499 368.997C211.521 369.618 212.737 370.123 214.146 370.512C215.555 370.901 216.959 371.08 218.359 371.049C220.01 371.012 221.195 370.762 221.913 370.298C222.659 369.833 223.023 369.223 223.007 368.467C222.993 367.851 222.731 367.395 222.22 367.098C221.709 366.773 221.045 366.536 220.23 366.386C219.414 366.236 218.501 366.102 217.49 365.985C216.507 365.867 215.509 365.707 214.497 365.505C213.511 365.275 212.608 364.945 211.786 364.515C210.964 364.057 210.292 363.442 209.771 362.669C209.249 361.897 208.975 360.866 208.946 359.579C208.914 358.151 209.293 356.91 210.082 355.857C210.87 354.775 211.986 353.938 213.429 353.346C214.899 352.725 216.642 352.392 218.658 352.348C220.17 352.314 221.699 352.448 223.246 352.75C224.793 353.052 226.077 353.499 227.099 354.093L225.172 358.127C224.094 357.506 223.006 357.096 221.91 356.897C220.84 356.668 219.774 356.566 218.71 356.589C217.114 356.625 215.93 356.889 215.157 357.382C214.412 357.875 214.047 358.485 214.063 359.213C214.078 359.885 214.341 360.383 214.852 360.708C215.364 361.033 216.028 361.284 216.844 361.462C217.66 361.64 218.559 361.788 219.542 361.906C220.552 361.996 221.55 362.156 222.536 362.386C223.521 362.616 224.424 362.946 225.246 363.376C226.095 363.777 226.78 364.364 227.302 365.137C227.823 365.91 228.098 366.926 228.126 368.185C228.157 369.585 227.764 370.812 226.947 371.867C226.158 372.92 225.014 373.758 223.516 374.379C222.017 374.973 220.217 375.293 218.118 375.339ZM245.013 351.763C246.804 351.723 248.408 352.038 249.823 352.706C251.266 353.375 252.41 354.428 253.254 355.865C254.097 357.275 254.544 359.113 254.594 361.381L254.879 374.23L249.631 374.346L249.361 362.169C249.317 360.182 248.808 358.708 247.834 357.75C246.889 356.791 245.576 356.33 243.897 356.367C242.665 356.394 241.579 356.67 240.638 357.195C239.698 357.72 238.973 358.493 238.463 359.512C237.981 360.503 237.757 361.754 237.79 363.266L238.042 374.603L232.793 374.72L232.102 343.563L237.35 343.447L237.678 358.227L236.504 356.405C237.256 354.96 238.365 353.843 239.832 353.054C241.326 352.237 243.053 351.806 245.013 351.763ZM287.26 373.931C285.021 373.981 282.927 373.663 280.979 372.978C279.059 372.265 277.37 371.252 275.913 369.94C274.483 368.599 273.355 367.014 272.531 365.184C271.706 363.354 271.269 361.347 271.221 359.164C271.172 356.98 271.519 354.956 272.262 353.091C273.005 351.226 274.075 349.606 275.473 348.231C276.87 346.827 278.513 345.74 280.4 344.97C282.287 344.172 284.364 343.748 286.631 343.698C289.039 343.645 291.246 344.016 293.252 344.811C295.257 345.579 296.964 346.76 298.372 348.353L294.918 351.748C293.829 350.624 292.62 349.797 291.292 349.266C289.963 348.707 288.529 348.445 286.99 348.479C285.45 348.513 284.042 348.797 282.765 349.329C281.517 349.861 280.427 350.599 279.496 351.544C278.592 352.488 277.889 353.596 277.385 354.868C276.909 356.139 276.688 357.53 276.721 359.041C276.755 360.553 277.038 361.933 277.569 363.182C278.129 364.43 278.881 365.505 279.825 366.408C280.798 367.311 281.919 368 283.19 368.476C284.489 368.952 285.908 369.172 287.448 369.138C288.988 369.104 290.409 368.792 291.712 368.203C293.015 367.586 294.185 366.678 295.223 365.479L298.824 368.76C297.488 370.386 295.835 371.641 293.867 372.525C291.898 373.408 289.696 373.877 287.26 373.931ZM312.873 373.237C310.578 373.288 308.524 372.844 306.71 371.904C304.896 370.936 303.452 369.595 302.378 367.883C301.304 366.17 300.742 364.208 300.693 361.997C300.643 359.757 301.117 357.772 302.115 356.042C303.113 354.283 304.496 352.894 306.266 351.874C308.036 350.855 310.068 350.32 312.364 350.269C314.687 350.217 316.756 350.662 318.569 351.602C320.41 352.541 321.854 353.853 322.899 355.539C323.973 357.223 324.535 359.199 324.585 361.467C324.634 363.678 324.16 365.663 323.163 367.422C322.194 369.18 320.81 370.583 319.013 371.631C317.243 372.65 315.197 373.186 312.873 373.237ZM312.774 368.744C314.061 368.716 315.203 368.41 316.198 367.828C317.194 367.246 317.959 366.417 318.496 365.341C319.06 364.264 319.326 363.012 319.294 361.584C319.262 360.128 318.941 358.889 318.33 357.866C317.746 356.815 316.945 356.021 315.924 355.483C314.904 354.946 313.764 354.691 312.505 354.719C311.217 354.747 310.075 355.053 309.08 355.635C308.113 356.217 307.347 357.046 306.783 358.123C306.218 359.171 305.951 360.424 305.984 361.879C306.015 363.307 306.337 364.546 306.948 365.597C307.56 366.647 308.362 367.442 309.354 367.98C310.374 368.517 311.514 368.772 312.774 368.744ZM334.193 372.47L325.465 350.23L330.42 350.12L337.913 369.741L335.562 369.793L342.513 349.852L346.922 349.754L354.541 369.372L352.232 369.423L359.057 349.485L363.718 349.382L355.943 371.988L350.905 372.099L343.966 354.735L345.519 354.701L339.231 372.358L334.193 372.47Z" fill="#FDEFE8"/>
<defs>
<filter id="filter0_g_859_654" x="234.222" y="-0.000195265" width="62.6" height="901.6" filterUnits="userSpaceOnUse" color-interpolation-filters="sRGB">
<feFlood flood-opacity="0" result="BackgroundImageFix"/>
<feBlend mode="normal" in="SourceGraphic" in2="BackgroundImageFix" result="shape"/>
<feTurbulence type="fractalNoise" baseFrequency="0.10000000149011612 0.10000000149011612" numOctaves="3" seed="8450" />
<feDisplacementMap in="shape" scale="5.5999999046325684" xChannelSelector="R" yChannelSelector="G" result="displacedImage" width="100%" height="100%" />
<feMerge result="effect1_texture_859_654">
<feMergeNode in="displacedImage"/>
</feMerge>
</filter>
<filter id="filter1_g_859_654" x="55.1902" y="125.84" width="432.205" height="126.307" filterUnits="userSpaceOnUse" color-interpolation-filters="sRGB">
<feFlood flood-opacity="0" result="BackgroundImageFix"/>
<feBlend mode="normal" in="SourceGraphic" in2="BackgroundImageFix" result="shape"/>
<feTurbulence type="fractalNoise" baseFrequency="0.10000000149011612 0.10000000149011612" numOctaves="3" seed="8450" />
<feDisplacementMap in="shape" scale="5.5999999046325684" xChannelSelector="R" yChannelSelector="G" result="displacedImage" width="100%" height="100%" />
<feMerge result="effect1_texture_859_654">
<feMergeNode in="displacedImage"/>
</feMerge>
</filter>
<filter id="filter2_g_859_654" x="-0.000195265" y="132.262" width="63.6645" height="118.869" filterUnits="userSpaceOnUse" color-interpolation-filters="sRGB">
<feFlood flood-opacity="0" result="BackgroundImageFix"/>
<feBlend mode="normal" in="SourceGraphic" in2="BackgroundImageFix" result="shape"/>
<feTurbulence type="fractalNoise" baseFrequency="0.10000000149011612 0.10000000149011612" numOctaves="3" seed="8450" />
<feDisplacementMap in="shape" scale="5.5999999046325684" xChannelSelector="R" yChannelSelector="G" result="displacedImage" width="100%" height="100%" />
<feMerge result="effect1_texture_859_654">
<feMergeNode in="displacedImage"/>
</feMerge>
</filter>
<filter id="filter3_g_859_654" x="90.5032" y="301.011" width="374.111" height="128.855" filterUnits="userSpaceOnUse" color-interpolation-filters="sRGB">
<feFlood flood-opacity="0" result="BackgroundImageFix"/>
<feBlend mode="normal" in="SourceGraphic" in2="BackgroundImageFix" result="shape"/>
<feTurbulence type="fractalNoise" baseFrequency="0.10000000149011612 0.10000000149011612" numOctaves="3" seed="8450" />
<feDisplacementMap in="shape" scale="5.5999999046325684" xChannelSelector="R" yChannelSelector="G" result="displacedImage" width="100%" height="100%" />
<feMerge result="effect1_texture_859_654">
<feMergeNode in="displacedImage"/>
</feMerge>
</filter>
<filter id="filter4_g_859_654" x="41.2195" y="311.562" width="60.5399" height="102.541" filterUnits="userSpaceOnUse" color-interpolation-filters="sRGB">
<feFlood flood-opacity="0" result="BackgroundImageFix"/>
<feBlend mode="normal" in="SourceGraphic" in2="BackgroundImageFix" result="shape"/>
<feTurbulence type="fractalNoise" baseFrequency="0.10000000149011612 0.10000000149011612" numOctaves="3" seed="8450" />
<feDisplacementMap in="shape" scale="5.5999999046325684" xChannelSelector="R" yChannelSelector="G" result="displacedImage" width="100%" height="100%" />
<feMerge result="effect1_texture_859_654">
<feMergeNode in="displacedImage"/>
</feMerge>
</filter>
<linearGradient id="paint0_linear_859_654" x1="28.5" y1="0" x2="28.5" y2="896" gradientUnits="userSpaceOnUse">
<stop stop-color="#8D6D57"/>
<stop offset="1" stop-color="#FBBC97"/>
</linearGradient>
<linearGradient id="paint1_linear_859_654" x1="211.194" y1="187.286" x2="58.8204" y2="187.056" gradientUnits="userSpaceOnUse">
<stop stop-color="#5F7977"/>
<stop offset="1" stop-color="#4B6A68"/>
</linearGradient>
<linearGradient id="paint2_linear_859_654" x1="224.89" y1="354.403" x2="95.4511" y2="348.079" gradientUnits="userSpaceOnUse">
<stop stop-color="#535F4C"/>
<stop offset="1" stop-color="#46523C"/>
</linearGradient>
</defs>
</svg>
