<svg width="488" height="902" viewBox="0 0 488 902" fill="none" xmlns="http://www.w3.org/2000/svg">
<g filter="url(#filter0_g_859_654)">
<rect width="57" height="896" transform="matrix(-1 0 0 1 294.022 2.7998)" fill="url(#paint0_linear_859_654)"/>
</g>
<g filter="url(#filter1_g_859_654)">
<path d="M482.937 128.64L57.9902 135.361L59.7929 249.346L364.77 235.384L385.412 222.694L404.918 234.749L484.595 233.489L482.937 128.64Z" fill="#D9D9D9"/>
<path d="M482.937 128.64L57.9902 135.361L59.7929 249.346L364.77 235.384L385.412 222.694L404.918 234.749L484.595 233.489L482.937 128.64Z" fill="url(#paint1_linear_859_654)"/>
</g>
<g filter="url(#filter2_g_859_654)">
<path d="M59.0727 135.061L2.79987 188.995L60.8641 248.33L59.0727 135.061Z" fill="#4B6A68"/>
</g>
<g filter="url(#filter3_g_859_654)">
<path d="M458.677 303.811L96.3034 314.804L93.303 413.356L269.852 414.902L261.207 400.325L320.942 413.352L419.78 416.349C429.641 405.962 445.924 406.264 454.114 416.985L461.814 427.066L458.677 303.811Z" fill="#D9D9D9"/>
<path d="M458.677 303.811L96.3034 314.804L93.303 413.356L269.852 414.902L261.207 400.325L320.942 413.352L419.78 416.349C429.641 405.962 445.924 406.264 454.114 416.985L461.814 427.066L458.677 303.811Z" fill="url(#paint2_linear_859_654)"/>
</g>
<g filter="url(#filter4_g_859_654)">
<path d="M98.9593 314.362L44.0197 358.429L96.008 411.304L98.9593 314.362Z" fill="#46523C"/>
</g>
<path d="M131.595 191.251L146.237 190.57L146.452 195.185L131.81 195.866L131.595 191.251ZM132.794 207.088L127.34 207.342L125.975 177.974L147.413 176.977L147.626 181.55L131.641 182.293L132.794 207.088ZM166.615 205.516L166.405 200.985L166.066 200.034L165.697 192.104C165.626 190.566 165.109 189.399 164.147 188.603C163.184 187.778 161.765 187.41 159.891 187.497C158.633 187.555 157.397 187.809 156.185 188.258C155 188.705 154.005 189.298 153.198 190.036L150.965 186.314C152.124 185.335 153.519 184.584 155.149 184.059C156.805 183.506 158.528 183.188 160.318 183.104C163.562 182.954 166.102 183.62 167.937 185.105C169.798 186.56 170.805 188.91 170.955 192.154L171.566 205.286L166.615 205.516ZM159.58 206.137C157.902 206.215 156.421 206.004 155.136 205.503C153.85 204.974 152.834 204.223 152.088 203.248C151.369 202.245 150.979 201.099 150.919 199.813C150.861 198.554 151.102 197.408 151.643 196.374C152.211 195.338 153.167 194.495 154.51 193.844C155.853 193.193 157.658 192.814 159.923 192.709L166.426 192.407L166.588 195.889L160.463 196.174C158.673 196.257 157.484 196.607 156.896 197.223C156.306 197.811 156.031 198.524 156.07 199.363C156.114 200.314 156.527 201.052 157.308 201.576C158.089 202.1 159.151 202.331 160.494 202.269C161.78 202.209 162.914 201.862 163.893 201.228C164.901 200.592 165.602 199.691 165.996 198.523L167.023 201.629C166.581 202.967 165.719 204.03 164.438 204.818C163.186 205.605 161.566 206.045 159.58 206.137ZM185.232 204.945C183.358 205.032 181.543 204.878 179.787 204.483C178.058 204.059 176.673 203.521 175.634 202.869L177.462 198.789C178.499 199.386 179.726 199.861 181.144 200.216C182.562 200.57 183.971 200.715 185.369 200.65C187.019 200.573 188.198 200.294 188.904 199.813C189.639 199.33 189.988 198.712 189.953 197.956C189.924 197.341 189.651 196.891 189.134 196.607C188.614 196.295 187.945 196.074 187.127 195.943C186.308 195.813 185.391 195.702 184.378 195.609C183.393 195.514 182.391 195.379 181.374 195.202C180.383 194.996 179.472 194.688 178.64 194.278C177.807 193.84 177.12 193.241 176.58 192.481C176.041 191.722 175.741 190.698 175.681 189.412C175.615 187.985 175.963 186.736 176.726 185.663C177.488 184.563 178.583 183.699 180.011 183.072C181.466 182.416 183.201 182.041 185.215 181.947C186.725 181.877 188.257 181.974 189.811 182.238C191.365 182.502 192.66 182.918 193.695 183.487L191.867 187.566C190.774 186.972 189.677 186.589 188.576 186.416C187.501 186.214 186.432 186.137 185.37 186.186C183.775 186.261 182.598 186.554 181.837 187.065C181.104 187.576 180.754 188.195 180.788 188.922C180.819 189.593 181.094 190.085 181.613 190.397C182.132 190.71 182.802 190.945 183.622 191.103C184.442 191.261 185.345 191.387 186.33 191.482C187.343 191.547 188.344 191.682 189.335 191.889C190.325 192.095 191.237 192.403 192.068 192.813C192.927 193.193 193.626 193.763 194.166 194.523C194.706 195.283 195.005 196.292 195.064 197.551C195.129 198.949 194.766 200.185 193.975 201.259C193.212 202.332 192.089 203.197 190.606 203.854C189.121 204.484 187.33 204.848 185.232 204.945ZM208.335 203.871C205.873 203.986 203.942 203.445 202.541 202.248C201.139 201.024 200.38 199.168 200.264 196.678L199.33 176.582L204.574 176.338L205.503 196.309C205.552 197.371 205.856 198.184 206.415 198.747C207.001 199.308 207.784 199.566 208.763 199.521C209.938 199.466 210.903 199.113 211.657 198.461L213.299 202.127C212.707 202.659 211.97 203.072 211.086 203.365C210.203 203.658 209.286 203.827 208.335 203.871ZM196.071 186.067L195.876 181.872L210.812 181.178L211.007 185.373L196.071 186.067ZM215.687 193.733L215.484 189.37L227.021 188.833L227.224 193.197L215.687 193.733ZM233.906 202.388L232.541 173.02L237.995 172.766L239.146 197.52L254.501 196.806L254.716 201.421L233.906 202.388ZM272.362 200.601L272.152 196.07L271.813 195.118L271.445 187.189C271.373 185.651 270.856 184.483 269.894 183.687C268.931 182.863 267.512 182.494 265.638 182.581C264.38 182.64 263.144 182.894 261.932 183.342C260.747 183.79 259.752 184.383 258.945 185.121L256.712 181.399C257.872 180.42 259.266 179.668 260.896 179.144C262.552 178.591 264.275 178.272 266.065 178.189C269.309 178.038 271.849 178.705 273.684 180.189C275.546 181.644 276.552 183.994 276.703 187.239L277.313 200.371L272.362 200.601ZM265.328 201.222C263.649 201.3 262.168 201.089 260.883 200.588C259.597 200.059 258.581 199.307 257.835 198.333C257.116 197.329 256.726 196.184 256.667 194.897C256.608 193.639 256.849 192.492 257.39 191.458C257.958 190.423 258.914 189.579 260.257 188.928C261.6 188.277 263.405 187.899 265.67 187.794L272.173 187.491L272.335 190.974L266.21 191.258C264.42 191.342 263.231 191.691 262.643 192.307C262.053 192.895 261.778 193.609 261.817 194.448C261.861 195.399 262.274 196.136 263.055 196.661C263.837 197.185 264.898 197.416 266.241 197.353C267.528 197.294 268.661 196.947 269.64 196.312C270.648 195.677 271.349 194.776 271.743 193.608L272.77 196.714C272.328 198.052 271.466 199.115 270.186 199.903C268.933 200.69 267.313 201.13 265.328 201.222ZM293.539 199.911C291.637 199.999 289.942 199.727 288.456 199.096C286.967 198.436 285.784 197.398 284.905 195.981C284.025 194.537 283.533 192.696 283.429 190.458L282.834 177.662L288.079 177.418L288.64 189.501C288.734 191.515 289.252 193.004 290.193 193.97C291.162 194.906 292.485 195.335 294.163 195.257C295.394 195.199 296.445 194.898 297.317 194.353C298.216 193.807 298.895 193.019 299.351 191.988C299.836 190.957 300.044 189.7 299.975 188.217L299.448 176.889L304.693 176.646L305.734 199.05L300.741 199.282L300.461 193.24L301.427 195.045C300.74 196.535 299.687 197.705 298.269 198.556C296.85 199.378 295.273 199.83 293.539 199.911ZM324.26 175.484C326.05 175.401 327.66 175.676 329.091 176.31C330.55 176.943 331.719 177.968 332.598 179.385C333.475 180.774 333.967 182.601 334.072 184.866L334.669 197.705L329.424 197.948L328.859 185.781C328.766 183.796 328.222 182.335 327.226 181.401C326.257 180.465 324.934 180.036 323.256 180.114C322.025 180.171 320.946 180.473 320.018 181.021C319.091 181.568 318.385 182.358 317.9 183.39C317.442 184.392 317.248 185.648 317.318 187.159L317.845 198.487L312.6 198.73L311.559 176.327L316.552 176.094L316.833 182.136L315.866 180.331C316.583 178.868 317.665 177.725 319.112 176.9C320.586 176.047 322.302 175.575 324.26 175.484ZM351.655 197.209C349.305 197.318 347.185 196.927 345.293 196.033C343.429 195.111 341.938 193.807 340.823 192.121C339.708 190.435 339.098 188.487 338.996 186.277C338.892 184.04 339.317 182.044 340.273 180.29C341.227 178.507 342.591 177.084 344.363 176.021C346.164 174.956 348.239 174.369 350.588 174.26C352.77 174.159 354.707 174.517 356.398 175.335C358.117 176.125 359.449 177.352 360.396 179.018L356.477 181.554C355.757 180.523 354.895 179.778 353.893 179.32C352.918 178.861 351.872 178.657 350.753 178.709C349.466 178.769 348.319 179.103 347.31 179.71C346.301 180.318 345.527 181.167 344.989 182.257C344.45 183.319 344.214 184.577 344.282 186.032C344.35 187.486 344.702 188.731 345.339 189.767C345.974 190.774 346.822 191.534 347.883 192.045C348.944 192.556 350.118 192.782 351.404 192.722C352.523 192.67 353.546 192.37 354.474 191.823C355.429 191.274 356.218 190.452 356.84 189.358L360.977 191.52C360.188 193.239 358.976 194.599 357.34 195.6C355.732 196.571 353.837 197.108 351.655 197.209ZM377.195 173.023C378.985 172.94 380.595 173.216 382.026 173.85C383.485 174.483 384.654 175.508 385.533 176.924C386.41 178.313 386.902 180.14 387.007 182.406L387.604 195.244L382.359 195.488L381.794 183.321C381.701 181.335 381.157 179.875 380.161 178.94C379.192 178.004 377.869 177.575 376.191 177.653C374.96 177.71 373.881 178.013 372.953 178.56C372.026 179.108 371.32 179.898 370.835 180.929C370.377 181.931 370.183 183.188 370.253 184.698L370.78 196.026L365.536 196.27L364.088 165.139L369.333 164.896L370.019 179.664L368.801 177.87C369.518 176.407 370.6 175.264 372.047 174.44C373.521 173.587 375.237 173.114 377.195 173.023Z" fill="#FDEFE8"/>
<path d="M169.492 376.544C167.253 376.594 165.159 376.276 163.212 375.591C161.291 374.877 159.602 373.865 158.145 372.553C156.715 371.212 155.587 369.627 154.763 367.796C153.938 365.966 153.501 363.959 153.453 361.776C153.404 359.593 153.752 357.568 154.494 355.703C155.237 353.838 156.308 352.218 157.705 350.843C159.103 349.44 160.745 348.353 162.632 347.583C164.519 346.785 166.596 346.361 168.864 346.31C171.271 346.257 173.478 346.628 175.484 347.424C177.489 348.192 179.196 349.372 180.604 350.965L177.15 354.361C176.061 353.236 174.852 352.409 173.524 351.878C172.196 351.32 170.761 351.057 169.222 351.092C167.682 351.126 166.274 351.409 164.998 351.942C163.749 352.473 162.659 353.212 161.728 354.157C160.825 355.101 160.121 356.209 159.617 357.48C159.141 358.751 158.92 360.142 158.953 361.654C158.987 363.166 159.27 364.546 159.801 365.794C160.361 367.042 161.113 368.118 162.058 369.021C163.03 369.924 164.151 370.613 165.422 371.089C166.721 371.564 168.14 371.785 169.68 371.751C171.22 371.716 172.641 371.405 173.944 370.816C175.247 370.199 176.417 369.291 177.455 368.091L181.056 371.372C179.72 372.998 178.068 374.253 176.099 375.137C174.13 376.021 171.928 376.49 169.492 376.544ZM199.492 375.458L199.392 370.923L199.076 369.964L198.9 362.028C198.866 360.489 198.378 359.309 197.435 358.49C196.492 357.642 195.083 357.24 193.207 357.281C191.948 357.309 190.706 357.533 189.483 357.952C188.288 358.371 187.279 358.939 186.454 359.658L184.312 355.882C185.495 354.932 186.908 354.214 188.55 353.73C190.219 353.216 191.949 352.94 193.74 352.9C196.988 352.828 199.51 353.557 201.309 355.085C203.134 356.585 204.083 358.958 204.155 362.206L204.447 375.348L199.492 375.458ZM192.444 375.909C190.765 375.946 189.289 375.699 188.017 375.167C186.744 374.607 185.747 373.831 185.024 372.839C184.33 371.818 183.968 370.663 183.939 369.376C183.911 368.116 184.18 366.976 184.746 365.955C185.339 364.934 186.315 364.114 187.674 363.495C189.033 362.877 190.846 362.543 193.113 362.493L199.621 362.348L199.699 365.833L193.568 365.969C191.777 366.009 190.579 366.33 189.977 366.931C189.373 367.505 189.081 368.211 189.099 369.051C189.121 370.003 189.515 370.75 190.283 371.294C191.052 371.837 192.108 372.093 193.451 372.063C194.739 372.035 195.88 371.715 196.875 371.105C197.898 370.494 198.62 369.61 199.043 368.453L199.994 371.582C199.52 372.909 198.632 373.951 197.333 374.708C196.061 375.464 194.432 375.865 192.444 375.909ZM218.118 375.339C216.242 375.381 214.431 375.183 212.685 374.746C210.967 374.28 209.595 373.708 208.572 373.03L210.499 368.997C211.521 369.618 212.737 370.123 214.146 370.512C215.555 370.901 216.959 371.08 218.359 371.049C220.01 371.012 221.195 370.762 221.913 370.298C222.659 369.833 223.023 369.223 223.007 368.467C222.993 367.851 222.731 367.395 222.22 367.098C221.709 366.773 221.045 366.536 220.23 366.386C219.414 366.236 218.501 366.102 217.49 365.985C216.507 365.867 215.509 365.707 214.497 365.505C213.511 365.275 212.608 364.945 211.786 364.515C210.964 364.057 210.292 363.442 209.771 362.669C209.249 361.897 208.975 360.866 208.946 359.579C208.914 358.151 209.293 356.91 210.082 355.857C210.87 354.775 211.986 353.938 213.429 353.346C214.899 352.725 216.642 352.392 218.658 352.348C220.17 352.314 221.699 352.448 223.246 352.75C224.793 353.052 226.077 353.499 227.099 354.093L225.172 358.127C224.094 357.506 223.006 357.096 221.91 356.897C220.84 356.668 219.774 356.566 218.71 356.589C217.114 356.625 215.93 356.889 215.157 357.382C214.412 357.875 214.047 358.485 214.063 359.213C214.078 359.885 214.341 360.383 214.852 360.708C215.364 361.033 216.028 361.284 216.844 361.462C217.66 361.64 218.559 361.788 219.542 361.906C220.552 361.996 221.55 362.156 222.536 362.386C223.521 362.616 224.424 362.946 225.246 363.376C226.095 363.777 226.78 364.364 227.302 365.137C227.823 365.91 228.098 366.926 228.126 368.185C228.157 369.585 227.764 370.812 226.947 371.867C226.158 372.92 225.014 373.758 223.516 374.379C222.017 374.973 220.217 375.293 218.118 375.339ZM245.013 351.763C246.804 351.723 248.408 352.038 249.823 352.706C251.266 353.375 252.41 354.428 253.254 355.865C254.097 357.275 254.544 359.113 254.594 361.381L254.879 374.23L249.631 374.346L249.361 362.169C249.317 360.182 248.808 358.708 247.834 357.75C246.889 356.791 245.576 356.33 243.897 356.367C242.665 356.394 241.579 356.67 240.638 357.195C239.698 357.72 238.973 358.493 238.463 359.512C237.981 360.503 237.757 361.754 237.79 363.266L238.042 374.603L232.793 374.72L232.102 343.563L237.35 343.447L237.678 358.227L236.504 356.405C237.256 354.96 238.365 353.843 239.832 353.054C241.326 352.237 243.053 351.806 245.013 351.763ZM287.26 373.931C285.021 373.981 282.927 373.663 280.979 372.978C279.059 372.265 277.37 371.252 275.913 369.94C274.483 368.599 273.355 367.014 272.531 365.184C271.706 363.354 271.269 361.347 271.221 359.164C271.172 356.98 271.519 354.956 272.262 353.091C273.005 351.226 274.075 349.606 275.473 348.231C276.87 346.827 278.513 345.74 280.4 344.97C282.287 344.172 284.364 343.748 286.631 343.698C289.039 343.645 291.246 344.016 293.252 344.811C295.257 345.579 296.964 346.76 298.372 348.353L294.918 351.748C293.829 350.624 292.62 349.797 291.292 349.266C289.963 348.707 288.529 348.445 286.99 348.479C285.45 348.513 284.042 348.797 282.765 349.329C281.517 349.861 280.427 350.599 279.496 351.544C278.592 352.488 277.889 353.596 277.385 354.868C276.909 356.139 276.688 357.53 276.721 359.041C276.755 360.553 277.038 361.933 277.569 363.182C278.129 364.43 278.881 365.505 279.825 366.408C280.798 367.311 281.919 368 283.19 368.476C284.489 368.952 285.908 369.172 287.448 369.138C288.988 369.104 290.409 368.792 291.712 368.203C293.015 367.586 294.185 366.678 295.223 365.479L298.824 368.76C297.488 370.386 295.835 371.641 293.867 372.525C291.898 373.408 289.696 373.877 287.26 373.931ZM312.873 373.237C310.578 373.288 308.524 372.844 306.71 371.904C304.896 370.936 303.452 369.595 302.378 367.883C301.304 366.17 300.742 364.208 300.693 361.997C300.643 359.757 301.117 357.772 302.115 356.042C303.113 354.283 304.496 352.894 306.266 351.874C308.036 350.855 310.068 350.32 312.364 350.269C314.687 350.217 316.756 350.662 318.569 351.602C320.41 352.541 321.854 353.853 322.899 355.539C323.973 357.223 324.535 359.199 324.585 361.467C324.634 363.678 324.16 365.663 323.163 367.422C322.194 369.18 320.81 370.583 319.013 371.631C317.243 372.65 315.197 373.186 312.873 373.237ZM312.774 368.744C314.061 368.716 315.203 368.41 316.198 367.828C317.194 367.246 317.959 366.417 318.496 365.341C319.06 364.264 319.326 363.012 319.294 361.584C319.262 360.128 318.941 358.889 318.33 357.866C317.746 356.815 316.945 356.021 315.924 355.483C314.904 354.946 313.764 354.691 312.505 354.719C311.217 354.747 310.075 355.053 309.08 355.635C308.113 356.217 307.347 357.046 306.783 358.123C306.218 359.171 305.951 360.424 305.984 361.879C306.015 363.307 306.337 364.546 306.948 365.597C307.56 366.647 308.362 367.442 309.354 367.98C310.374 368.517 311.514 368.772 312.774 368.744ZM334.193 372.47L325.465 350.23L330.42 350.12L337.913 369.741L335.562 369.793L342.513 349.852L346.922 349.754L354.541 369.372L352.232 369.423L359.057 349.485L363.718 349.382L355.943 371.988L350.905 372.099L343.966 354.735L345.519 354.701L339.231 372.358L334.193 372.47Z" fill="#FDEFE8"/>
<defs>
<filter id="filter0_g_859_654" x="234.222" y="-0.000195265" width="62.6" height="901.6" filterUnits="userSpaceOnUse" color-interpolation-filters="sRGB">
<feFlood flood-opacity="0" result="BackgroundImageFix"/>
<feBlend mode="normal" in="SourceGraphic" in2="BackgroundImageFix" result="shape"/>
<feTurbulence type="fractalNoise" baseFrequency="0.10000000149011612 0.10000000149011612" numOctaves="3" seed="8450" />
<feDisplacementMap in="shape" scale="5.5999999046325684" xChannelSelector="R" yChannelSelector="G" result="displacedImage" width="100%" height="100%" />
<feMerge result="effect1_texture_859_654">
<feMergeNode in="displacedImage"/>
</feMerge>
</filter>
<filter id="filter1_g_859_654" x="55.1902" y="125.84" width="432.205" height="126.307" filterUnits="userSpaceOnUse" color-interpolation-filters="sRGB">
<feFlood flood-opacity="0" result="BackgroundImageFix"/>
<feBlend mode="normal" in="SourceGraphic" in2="BackgroundImageFix" result="shape"/>
<feTurbulence type="fractalNoise" baseFrequency="0.10000000149011612 0.10000000149011612" numOctaves="3" seed="8450" />
<feDisplacementMap in="shape" scale="5.5999999046325684" xChannelSelector="R" yChannelSelector="G" result="displacedImage" width="100%" height="100%" />
<feMerge result="effect1_texture_859_654">
<feMergeNode in="displacedImage"/>
</feMerge>
</filter>
<filter id="filter2_g_859_654" x="-0.000195265" y="132.262" width="63.6645" height="118.869" filterUnits="userSpaceOnUse" color-interpolation-filters="sRGB">
<feFlood flood-opacity="0" result="BackgroundImageFix"/>
<feBlend mode="normal" in="SourceGraphic" in2="BackgroundImageFix" result="shape"/>
<feTurbulence type="fractalNoise" baseFrequency="0.10000000149011612 0.10000000149011612" numOctaves="3" seed="8450" />
<feDisplacementMap in="shape" scale="5.5999999046325684" xChannelSelector="R" yChannelSelector="G" result="displacedImage" width="100%" height="100%" />
<feMerge result="effect1_texture_859_654">
<feMergeNode in="displacedImage"/>
</feMerge>
</filter>
<filter id="filter3_g_859_654" x="90.5032" y="301.011" width="374.111" height="128.855" filterUnits="userSpaceOnUse" color-interpolation-filters="sRGB">
<feFlood flood-opacity="0" result="BackgroundImageFix"/>
<feBlend mode="normal" in="SourceGraphic" in2="BackgroundImageFix" result="shape"/>
<feTurbulence type="fractalNoise" baseFrequency="0.10000000149011612 0.10000000149011612" numOctaves="3" seed="8450" />
<feDisplacementMap in="shape" scale="5.5999999046325684" xChannelSelector="R" yChannelSelector="G" result="displacedImage" width="100%" height="100%" />
<feMerge result="effect1_texture_859_654">
<feMergeNode in="displacedImage"/>
</feMerge>
</filter>
<filter id="filter4_g_859_654" x="41.2195" y="311.562" width="60.5399" height="102.541" filterUnits="userSpaceOnUse" color-interpolation-filters="sRGB">
<feFlood flood-opacity="0" result="BackgroundImageFix"/>
<feBlend mode="normal" in="SourceGraphic" in2="BackgroundImageFix" result="shape"/>
<feTurbulence type="fractalNoise" baseFrequency="0.10000000149011612 0.10000000149011612" numOctaves="3" seed="8450" />
<feDisplacementMap in="shape" scale="5.5999999046325684" xChannelSelector="R" yChannelSelector="G" result="displacedImage" width="100%" height="100%" />
<feMerge result="effect1_texture_859_654">
<feMergeNode in="displacedImage"/>
</feMerge>
</filter>
<linearGradient id="paint0_linear_859_654" x1="28.5" y1="0" x2="28.5" y2="896" gradientUnits="userSpaceOnUse">
<stop stop-color="#8D6D57"/>
<stop offset="1" stop-color="#FBBC97"/>
</linearGradient>
<linearGradient id="paint1_linear_859_654" x1="211.194" y1="187.286" x2="58.8204" y2="187.056" gradientUnits="userSpaceOnUse">
<stop stop-color="#5F7977"/>
<stop offset="1" stop-color="#4B6A68"/>
</linearGradient>
<linearGradient id="paint2_linear_859_654" x1="224.89" y1="354.403" x2="95.4511" y2="348.079" gradientUnits="userSpaceOnUse">
<stop stop-color="#535F4C"/>
<stop offset="1" stop-color="#46523C"/>
</linearGradient>
</defs>
</svg>
