<svg width="461" height="756" viewBox="0 0 461 756" fill="none" xmlns="http://www.w3.org/2000/svg">
<g filter="url(#filter0_g_869_2)">
<rect width="51" height="750" transform="matrix(-1 0 0 1 282.411 2.7998)" fill="url(#paint0_linear_869_2)"/>
</g>
<g filter="url(#filter1_g_869_2)">
<path d="M393.537 255.723L115.527 265.488L113.225 353.027L248.672 354.4L287.868 353.024L363.696 355.686C370.858 346.952 384.007 347.112 389.874 356.005L395.944 365.205L393.537 255.723Z" fill="#D9D9D9"/>
<g clip-path="url(#paint1_diamond_869_2_clip_path)" data-figma-skip-parse="true"><g transform="matrix(-0.151887 0.00445323 0.00158136 0.0539356 266.432 298.35)"><rect x="0" y="0" width="1033.42" height="1357.89" fill="url(#paint1_diamond_869_2)" opacity="1" shape-rendering="crispEdges"/><rect x="0" y="0" width="1033.42" height="1357.89" transform="scale(1 -1)" fill="url(#paint1_diamond_869_2)" opacity="1" shape-rendering="crispEdges"/><rect x="0" y="0" width="1033.42" height="1357.89" transform="scale(-1 1)" fill="url(#paint1_diamond_869_2)" opacity="1" shape-rendering="crispEdges"/><rect x="0" y="0" width="1033.42" height="1357.89" transform="scale(-1)" fill="url(#paint1_diamond_869_2)" opacity="1" shape-rendering="crispEdges"/></g></g><path d="M393.537 255.723L115.527 265.488L113.225 353.027L248.672 354.4L287.868 353.024L363.696 355.686C370.858 346.952 384.007 347.112 389.874 356.005L395.944 365.205L393.537 255.723Z" data-figma-gradient-fill="{&#34;type&#34;:&#34;GRADIENT_DIAMOND&#34;,&#34;stops&#34;:[{&#34;color&#34;:{&#34;r&#34;:0.85411655902862549,&#34;g&#34;:0.61727255582809448,&#34;b&#34;:0.50581640005111694,&#34;a&#34;:1.0},&#34;position&#34;:0.0},{&#34;color&#34;:{&#34;r&#34;:0.67957484722137451,&#34;g&#34;:0.41124692559242249,&#34;b&#34;:0.28689983487129211,&#34;a&#34;:1.0},&#34;position&#34;:1.0}],&#34;stopsVar&#34;:[{&#34;color&#34;:{&#34;r&#34;:0.85411655902862549,&#34;g&#34;:0.61727255582809448,&#34;b&#34;:0.50581640005111694,&#34;a&#34;:1.0},&#34;position&#34;:0.0},{&#34;color&#34;:{&#34;r&#34;:0.67957484722137451,&#34;g&#34;:0.41124692559242249,&#34;b&#34;:0.28689983487129211,&#34;a&#34;:1.0},&#34;position&#34;:1.0}],&#34;transform&#34;:{&#34;m00&#34;:-303.77313232421875,&#34;m01&#34;:3.1627228260040283,&#34;m02&#34;:416.73721313476562,&#34;m10&#34;:8.9064569473266602,&#34;m11&#34;:107.87120819091797,&#34;m12&#34;:239.96095275878906},&#34;opacity&#34;:1.0,&#34;blendMode&#34;:&#34;NORMAL&#34;,&#34;visible&#34;:true}"/>
</g>
<g filter="url(#filter2_g_869_2)">
<path d="M117.564 265.096L75.4143 304.238L115.299 351.205L117.564 265.096Z" fill="#AD6949"/>
</g>
<path d="M197.34 323.89C193.309 323.979 190.121 322.915 187.775 320.699C185.458 318.482 184.251 315.232 184.156 310.949L183.788 294.363L189.247 294.242L189.61 310.618C189.677 313.641 190.37 315.824 191.688 317.167C193.034 318.51 194.897 319.155 197.276 319.102C199.656 319.049 201.474 318.322 202.731 316.922C203.989 315.522 204.584 313.31 204.517 310.287L204.153 293.911L209.528 293.792L209.896 310.378C209.991 314.661 208.916 317.961 206.671 320.28C204.454 322.597 201.343 323.801 197.34 323.89ZM217.825 323.015L217.173 293.622L222.631 293.501L223.283 322.894L217.825 323.015ZM226.12 327.032L239.099 287.17L243.802 287.066L230.823 326.928L226.12 327.032ZM259.464 322.511C255.433 322.601 252.244 321.537 249.899 319.321C247.581 317.104 246.375 313.854 246.28 309.571L245.912 292.985L251.37 292.864L251.734 309.24C251.801 312.263 252.493 314.446 253.811 315.789C255.157 317.132 257.02 317.776 259.4 317.724C261.779 317.671 263.597 316.944 264.855 315.544C266.112 314.144 266.707 311.932 266.64 308.909L266.277 292.533L271.651 292.414L272.019 309C272.114 313.283 271.039 316.583 268.794 318.902C266.577 321.219 263.467 322.423 259.464 322.511ZM275.969 321.725L287.978 304.403L288.069 308.518L275.905 292.319L282.077 292.182L291.123 304.165L288.605 304.263L297.026 291.851L302.946 291.72L291.59 308.145L291.502 304.198L304.354 321.096L298.056 321.235L288.531 308.507L291.008 308.452L282.183 321.587L275.969 321.725Z" fill="#FDEFE8"/>
<g filter="url(#filter3_g_869_2)">
<path d="M9.56748 94.8864L380.145 115.805L377.732 187.05L197.164 188.174L145.022 187.055L43.8163 189.225L41.5133 184.134C36.7592 173.625 24.8772 168.39 13.7898 171.921L2.79985 175.421L9.56748 94.8864Z" fill="#D9D9D9"/>
<path d="M9.56748 94.8864L380.145 115.805L377.732 187.05L197.164 188.174L145.022 187.055L43.8163 189.225L41.5133 184.134C36.7592 173.625 24.8772 168.39 13.7898 171.921L2.79985 175.421L9.56748 94.8864Z" fill="url(#paint2_linear_869_2)"/>
</g>
<path d="M105.365 160.89L105.845 131.494L119.619 131.719C123.147 131.776 125.823 132.52 127.648 133.95C129.473 135.352 130.367 137.215 130.329 139.539C130.303 141.106 129.918 142.444 129.171 143.552C128.426 144.632 127.432 145.47 126.19 146.066C124.977 146.634 123.656 146.907 122.228 146.883L123.009 145.384C124.66 145.411 126.139 145.743 127.445 146.38C128.751 146.99 129.773 147.875 130.51 149.035C131.275 150.195 131.644 151.63 131.616 153.337C131.575 155.857 130.577 157.801 128.622 159.169C126.668 160.538 123.787 161.191 119.979 161.129L105.365 160.89ZM110.894 156.696L119.713 156.84C121.757 156.873 123.33 156.563 124.433 155.909C125.536 155.254 126.099 154.185 126.124 152.702C126.147 151.246 125.619 150.173 124.538 149.483C123.458 148.766 121.895 148.39 119.852 148.357L110.613 148.206L110.682 143.965L118.829 144.098C120.733 144.129 122.194 143.816 123.213 143.161C124.26 142.506 124.794 141.507 124.816 140.163C124.839 138.791 124.337 137.761 123.312 137.072C122.315 136.383 120.865 136.024 118.961 135.993L111.234 135.866L110.894 156.696ZM147.344 161.869C144.852 161.829 142.677 161.303 140.817 160.292C138.986 159.254 137.566 157.859 136.559 156.106C135.579 154.354 135.107 152.372 135.144 150.161C135.18 147.921 135.702 145.955 136.71 144.263C137.746 142.544 139.14 141.209 140.892 140.257C142.672 139.306 144.681 138.849 146.921 138.885C149.105 138.921 151.043 139.429 152.735 140.408C154.427 141.388 155.749 142.754 156.701 144.506C157.652 146.257 158.109 148.309 158.07 150.661C158.067 150.885 158.049 151.136 158.016 151.416C158.012 151.696 157.993 151.962 157.961 152.213L139.274 151.908L139.33 148.423L155.246 148.682L153.171 149.741C153.22 148.453 152.972 147.315 152.428 146.326C151.884 145.337 151.127 144.555 150.156 143.979C149.214 143.403 148.112 143.105 146.853 143.085C145.565 143.064 144.426 143.325 143.437 143.869C142.476 144.413 141.708 145.185 141.131 146.184C140.583 147.155 140.298 148.312 140.276 149.656L140.263 150.496C140.241 151.84 140.529 153.035 141.128 154.081C141.727 155.127 142.582 155.939 143.693 156.517C144.804 157.095 146.087 157.396 147.543 157.42C148.803 157.44 149.94 157.263 150.954 156.887C151.968 156.512 152.874 155.911 153.672 155.084L156.433 158.363C155.405 159.522 154.117 160.412 152.566 161.03C151.045 161.622 149.304 161.901 147.344 161.869ZM172.957 170.436C170.885 170.403 168.86 170.089 166.881 169.497C164.93 168.933 163.333 168.123 162.09 167.067L164.506 163.157C165.473 163.985 166.694 164.649 168.17 165.15C169.674 165.678 171.196 165.955 172.735 165.98C175.199 166.02 177.014 165.476 178.181 164.347C179.347 163.246 179.948 161.561 179.985 159.294L180.051 155.304L180.553 150.23L180.468 145.146L180.557 139.686L185.555 139.768L185.244 158.791C185.178 162.851 184.094 165.815 181.991 167.685C179.887 169.583 176.876 170.5 172.957 170.436ZM172.439 160.977C170.311 160.942 168.387 160.462 166.666 159.538C164.973 158.586 163.636 157.29 162.655 155.65C161.701 154.01 161.242 152.099 161.278 149.915C161.313 147.759 161.834 145.878 162.84 144.27C163.875 142.662 165.253 141.425 166.975 140.557C168.726 139.689 170.665 139.273 172.793 139.308C174.696 139.339 176.398 139.744 177.897 140.525C179.397 141.306 180.582 142.501 181.451 144.111C182.349 145.722 182.778 147.774 182.737 150.265C182.696 152.757 182.201 154.807 181.251 156.416C180.329 157.997 179.105 159.167 177.581 159.926C176.057 160.658 174.343 161.008 172.439 160.977ZM173.309 156.538C174.625 156.56 175.805 156.313 176.85 155.798C177.895 155.255 178.705 154.512 179.281 153.569C179.885 152.599 180.197 151.484 180.217 150.224C180.238 148.964 179.962 147.854 179.39 146.892C178.846 145.903 178.06 145.148 177.032 144.627C176.005 144.079 174.834 143.793 173.518 143.772C172.202 143.75 171.008 143.997 169.935 144.512C168.891 144.999 168.067 145.727 167.463 146.698C166.888 147.64 166.59 148.742 166.569 150.001C166.549 151.261 166.81 152.386 167.354 153.375C167.927 154.336 168.726 155.105 169.753 155.682C170.808 156.231 171.994 156.517 173.309 156.538ZM192.09 162.306L192.456 139.88L197.705 139.966L197.339 162.391L192.09 162.306ZM195.162 136.228C194.182 136.212 193.375 135.891 192.741 135.265C192.135 134.639 191.84 133.892 191.854 133.024C191.868 132.128 192.188 131.391 192.814 130.813C193.468 130.208 194.285 129.913 195.265 129.929C196.245 129.945 197.038 130.252 197.644 130.85C198.279 131.42 198.589 132.14 198.575 133.007C198.56 133.931 198.239 134.71 197.613 135.344C196.987 135.95 196.17 136.245 195.162 136.228ZM217.323 140.034C219.115 140.064 220.705 140.44 222.094 141.162C223.51 141.886 224.612 142.982 225.4 144.451C226.189 145.892 226.565 147.746 226.528 150.014L226.318 162.864L221.069 162.778L221.268 150.6C221.3 148.612 220.848 147.121 219.912 146.125C219.004 145.13 217.711 144.619 216.031 144.592C214.799 144.572 213.703 144.806 212.743 145.294C211.783 145.783 211.029 146.526 210.48 147.526C209.96 148.497 209.688 149.739 209.663 151.251L209.478 162.589L204.229 162.504L204.595 140.079L209.592 140.16L209.494 146.207L208.642 144.345C209.449 142.93 210.601 141.857 212.097 141.125C213.622 140.366 215.364 140.002 217.323 140.034ZM246.072 140.504C247.863 140.533 249.453 140.909 250.842 141.632C252.258 142.355 253.36 143.451 254.149 144.92C254.937 146.361 255.313 148.215 255.276 150.483L255.066 163.333L249.817 163.248L250.016 151.069C250.048 149.082 249.596 147.59 248.66 146.595C247.753 145.6 246.459 145.088 244.779 145.061C243.547 145.041 242.451 145.275 241.491 145.763C240.531 146.252 239.777 146.996 239.228 147.995C238.708 148.967 238.436 150.208 238.411 151.72L238.226 163.059L232.977 162.973L233.343 140.548L238.34 140.629L238.242 146.677L237.39 144.814C238.197 143.399 239.349 142.326 240.845 141.594C242.37 140.835 244.112 140.472 246.072 140.504ZM272.302 163.909C269.81 163.868 267.635 163.342 265.775 162.332C263.944 161.294 262.524 159.899 261.517 158.146C260.537 156.394 260.065 154.412 260.101 152.2C260.138 149.96 260.66 147.995 261.668 146.303C262.704 144.584 264.098 143.248 265.85 142.297C267.63 141.345 269.639 140.888 271.879 140.925C274.063 140.96 276.001 141.468 277.693 142.448C279.385 143.428 280.707 144.793 281.659 146.545C282.61 148.297 283.067 150.349 283.028 152.7C283.025 152.924 283.007 153.176 282.974 153.455C282.969 153.735 282.951 154.001 282.919 154.253L264.232 153.948L264.288 150.462L280.204 150.722L278.129 151.78C278.178 150.493 277.93 149.355 277.386 148.366C276.842 147.377 276.085 146.594 275.114 146.018C274.172 145.443 273.07 145.145 271.811 145.124C270.523 145.103 269.384 145.365 268.395 145.909C267.434 146.453 266.666 147.225 266.089 148.223C265.541 149.194 265.256 150.352 265.234 151.696L265.221 152.536C265.199 153.879 265.487 155.074 266.086 156.12C266.685 157.166 267.54 157.978 268.651 158.556C269.762 159.135 271.045 159.436 272.501 159.459C273.761 159.48 274.898 159.302 275.912 158.927C276.926 158.551 277.832 157.95 278.63 157.123L281.39 160.403C280.363 161.562 279.075 162.451 277.524 163.07C276.003 163.661 274.262 163.941 272.302 163.909ZM287.89 163.869L288.256 141.444L293.253 141.526L293.152 147.699L292.594 145.883C293.29 144.383 294.359 143.252 295.8 142.491C297.268 141.731 299.08 141.369 301.236 141.404L301.155 146.401C300.931 146.342 300.722 146.31 300.526 146.307C300.33 146.276 300.135 146.259 299.939 146.255C297.951 146.223 296.36 146.785 295.165 147.942C293.97 149.07 293.354 150.783 293.317 153.078L293.139 163.955L287.89 163.869Z" fill="#FDEFE8"/>
<g filter="url(#filter4_g_869_2)">
<path d="M378.002 114.925L453.88 148.119L375.717 188.206L378.002 114.925Z" fill="#774243"/>
<path d="M378.002 114.925L453.88 148.119L375.717 188.206L378.002 114.925Z" fill="url(#paint3_linear_869_2)"/>
</g>
<defs>
<filter id="filter0_g_869_2" x="228.611" y="-0.000195265" width="56.6" height="755.6" filterUnits="userSpaceOnUse" color-interpolation-filters="sRGB">
<feFlood flood-opacity="0" result="BackgroundImageFix"/>
<feBlend mode="normal" in="SourceGraphic" in2="BackgroundImageFix" result="shape"/>
<feTurbulence type="fractalNoise" baseFrequency="0.10000000149011612 0.10000000149011612" numOctaves="3" seed="8450" />
<feDisplacementMap in="shape" scale="5.5999999046325684" xChannelSelector="R" yChannelSelector="G" result="displacedImage" width="100%" height="100%" />
<feMerge result="effect1_texture_869_2">
<feMergeNode in="displacedImage"/>
</feMerge>
</filter>
<filter id="filter1_g_869_2" x="110.425" y="252.923" width="288.32" height="115.082" filterUnits="userSpaceOnUse" color-interpolation-filters="sRGB">
<feFlood flood-opacity="0" result="BackgroundImageFix"/>
<feBlend mode="normal" in="SourceGraphic" in2="BackgroundImageFix" result="shape"/>
<feTurbulence type="fractalNoise" baseFrequency="0.10000000149011612 0.10000000149011612" numOctaves="3" seed="8450" />
<feDisplacementMap in="shape" scale="5.5999999046325684" xChannelSelector="R" yChannelSelector="G" result="displacedImage" width="100%" height="100%" />
<feMerge result="effect1_texture_869_2">
<feMergeNode in="displacedImage"/>
</feMerge>
</filter>
<clipPath id="paint1_diamond_869_2_clip_path"><path d="M393.537 255.723L115.527 265.488L113.225 353.027L248.672 354.4L287.868 353.024L363.696 355.686C370.858 346.952 384.007 347.112 389.874 356.005L395.944 365.205L393.537 255.723Z"/></clipPath><filter id="filter2_g_869_2" x="72.6141" y="262.296" width="47.7494" height="91.7094" filterUnits="userSpaceOnUse" color-interpolation-filters="sRGB">
<feFlood flood-opacity="0" result="BackgroundImageFix"/>
<feBlend mode="normal" in="SourceGraphic" in2="BackgroundImageFix" result="shape"/>
<feTurbulence type="fractalNoise" baseFrequency="0.10000000149011612 0.10000000149011612" numOctaves="3" seed="8450" />
<feDisplacementMap in="shape" scale="5.5999999046325684" xChannelSelector="R" yChannelSelector="G" result="displacedImage" width="100%" height="100%" />
<feMerge result="effect1_texture_869_2">
<feMergeNode in="displacedImage"/>
</feMerge>
</filter>
<filter id="filter3_g_869_2" x="-0.000195265" y="92.0867" width="382.945" height="99.9389" filterUnits="userSpaceOnUse" color-interpolation-filters="sRGB">
<feFlood flood-opacity="0" result="BackgroundImageFix"/>
<feBlend mode="normal" in="SourceGraphic" in2="BackgroundImageFix" result="shape"/>
<feTurbulence type="fractalNoise" baseFrequency="0.10000000149011612 0.10000000149011612" numOctaves="3" seed="8450" />
<feDisplacementMap in="shape" scale="5.5999999046325684" xChannelSelector="R" yChannelSelector="G" result="displacedImage" width="100%" height="100%" />
<feMerge result="effect1_texture_869_2">
<feMergeNode in="displacedImage"/>
</feMerge>
</filter>
<filter id="filter4_g_869_2" x="372.917" y="112.125" width="83.7631" height="78.8812" filterUnits="userSpaceOnUse" color-interpolation-filters="sRGB">
<feFlood flood-opacity="0" result="BackgroundImageFix"/>
<feBlend mode="normal" in="SourceGraphic" in2="BackgroundImageFix" result="shape"/>
<feTurbulence type="fractalNoise" baseFrequency="0.10000000149011612 0.10000000149011612" numOctaves="3" seed="8450" />
<feDisplacementMap in="shape" scale="5.5999999046325684" xChannelSelector="R" yChannelSelector="G" result="displacedImage" width="100%" height="100%" />
<feMerge result="effect1_texture_869_2">
<feMergeNode in="displacedImage"/>
</feMerge>
</filter>
<linearGradient id="paint0_linear_869_2" x1="25.5" y1="0" x2="25.5" y2="750" gradientUnits="userSpaceOnUse">
<stop stop-color="#8D6D57"/>
<stop offset="1" stop-color="#8D674C"/>
</linearGradient>
<linearGradient id="paint1_diamond_869_2" x1="0" y1="0" x2="500" y2="500" gradientUnits="userSpaceOnUse">
<stop stop-color="#DA9D81"/>
<stop offset="1" stop-color="#AD6949"/>
</linearGradient>
<linearGradient id="paint2_linear_869_2" x1="246.492" y1="144.436" x2="349.841" y2="149.912" gradientUnits="userSpaceOnUse">
<stop stop-color="#774243"/>
<stop offset="1" stop-color="#8C5152"/>
</linearGradient>
<linearGradient id="paint3_linear_869_2" x1="429.784" y1="143.793" x2="380.363" y2="152.258" gradientUnits="userSpaceOnUse">
<stop stop-color="#774243"/>
<stop offset="1" stop-color="#8C5152"/>
</linearGradient>
</defs>
</svg>
