<svg width="609" height="1209" viewBox="0 0 609 1209" fill="none" xmlns="http://www.w3.org/2000/svg">
<g filter="url(#filter0_g_791_205)">
<rect width="57" height="1203" transform="matrix(-1 0 0 1 360 2.80005)" fill="url(#paint0_linear_791_205)"/>
</g>
<g filter="url(#filter1_g_791_205)">
<path d="M548.915 128.64L123.968 135.361L125.771 249.347L430.748 235.385L451.39 222.694L470.896 234.75L550.573 233.489L548.915 128.64Z" fill="#D9D9D9"/>
<path d="M548.915 128.64L123.968 135.361L125.771 249.347L430.748 235.385L451.39 222.694L470.896 234.75L550.573 233.489L548.915 128.64Z" fill="url(#paint1_linear_791_205)"/>
</g>
<g filter="url(#filter2_g_791_205)">
<path d="M125.051 135.061L68.7781 188.994L126.842 248.33L125.051 135.061Z" fill="#4B6A68"/>
</g>
<g filter="url(#filter3_g_791_205)">
<path d="M524.654 303.811L162.281 314.804L159.281 413.356L335.83 414.902L327.185 400.325L386.92 413.352L485.758 416.349C495.619 405.962 511.901 406.264 520.092 416.985L527.792 427.066L524.654 303.811Z" fill="#D9D9D9"/>
<path d="M524.654 303.811L162.281 314.804L159.281 413.356L335.83 414.902L327.185 400.325L386.92 413.352L485.758 416.349C495.619 405.962 511.901 406.264 520.092 416.985L527.792 427.066L524.654 303.811Z" fill="url(#paint2_linear_791_205)"/>
</g>
<g filter="url(#filter4_g_791_205)">
<path d="M164.937 314.363L109.998 358.43L161.986 411.305L164.937 314.363Z" fill="#46523C"/>
</g>
<g filter="url(#filter5_g_791_205)">
<path d="M88.727 488.521L514.467 500.835L511.606 614.71L303.737 616.686L315.001 596.496L243.713 614.95L127.203 618.52L122.914 605.328C118.685 592.325 104.139 585.807 91.6689 591.329L80.0013 596.496L88.727 488.521Z" fill="#D9D9D9"/>
<path d="M88.727 488.521L514.467 500.835L511.606 614.71L303.737 616.686L315.001 596.496L243.713 614.95L127.203 618.52L122.914 605.328C118.685 592.325 104.139 585.807 91.6689 591.329L80.0013 596.496L88.727 488.521Z" fill="url(#paint3_linear_791_205)"/>
</g>
<g filter="url(#filter6_g_791_205)">
<path d="M511.733 500.785L602.788 552.486L508.919 612.786L511.733 500.785Z" fill="#724F40"/>
</g>
<g filter="url(#filter7_g_791_205)">
<path d="M593.433 723.636L77.415 678.364L66.6651 800.894L438.763 815.332L466.021 801.845L487.515 819.609L584.268 828.097L593.433 723.636Z" fill="#D9D9D9"/>
<g clip-path="url(#paint4_diamond_791_205_clip_path)" data-figma-skip-parse="true"><g transform="matrix(-0.232007 -0.00317958 -0.00247678 0.180725 306.105 760.574)"><rect x="0" y="0" width="1240.65" height="458.466" fill="url(#paint4_diamond_791_205)" opacity="1" shape-rendering="crispEdges"/><rect x="0" y="0" width="1240.65" height="458.466" transform="scale(1 -1)" fill="url(#paint4_diamond_791_205)" opacity="1" shape-rendering="crispEdges"/><rect x="0" y="0" width="1240.65" height="458.466" transform="scale(-1 1)" fill="url(#paint4_diamond_791_205)" opacity="1" shape-rendering="crispEdges"/><rect x="0" y="0" width="1240.65" height="458.466" transform="scale(-1)" fill="url(#paint4_diamond_791_205)" opacity="1" shape-rendering="crispEdges"/></g></g><path d="M593.433 723.636L77.415 678.364L66.6651 800.894L438.763 815.332L466.021 801.845L487.515 819.609L584.268 828.097L593.433 723.636Z" data-figma-gradient-fill="{&#34;type&#34;:&#34;GRADIENT_DIAMOND&#34;,&#34;stops&#34;:[{&#34;color&#34;:{&#34;r&#34;:0.63529413938522339,&#34;g&#34;:0.53333336114883423,&#34;b&#34;:0.41568627953529358,&#34;a&#34;:1.0},&#34;position&#34;:0.0},{&#34;color&#34;:{&#34;r&#34;:0.82457554340362549,&#34;g&#34;:0.63286727666854858,&#34;b&#34;:0.41320142149925232,&#34;a&#34;:1.0},&#34;position&#34;:1.0}],&#34;stopsVar&#34;:[{&#34;color&#34;:{&#34;r&#34;:0.63529413938522339,&#34;g&#34;:0.53333336114883423,&#34;b&#34;:0.41568627953529358,&#34;a&#34;:1.0},&#34;position&#34;:0.0},{&#34;color&#34;:{&#34;r&#34;:0.82457554340362549,&#34;g&#34;:0.63286727666854858,&#34;b&#34;:0.41320142149925232,&#34;a&#34;:1.0},&#34;position&#34;:1.0}],&#34;transform&#34;:{&#34;m00&#34;:-464.01428222656250,&#34;m01&#34;:-4.9535579681396484,&#34;m02&#34;:540.58905029296875,&#34;m10&#34;:-6.3591628074645996,&#34;m11&#34;:361.45013427734375,&#34;m12&#34;:583.02886962890625},&#34;opacity&#34;:1.0,&#34;blendMode&#34;:&#34;NORMAL&#34;,&#34;visible&#34;:true}"/>
</g>
<g filter="url(#filter8_g_791_205)">
<path d="M79.6342 678.459L5.77943 725.22L69.0461 799.145L79.6342 678.459Z" fill="#D2A169"/>
</g>
<path d="M197.573 191.251L212.215 190.571L212.43 195.186L197.788 195.866L197.573 191.251ZM198.772 207.089L193.318 207.342L191.953 177.974L213.391 176.977L213.604 181.551L197.619 182.294L198.772 207.089ZM232.593 205.517L232.383 200.986L232.044 200.034L231.675 192.105C231.604 190.566 231.087 189.399 230.125 188.603C229.162 187.779 227.743 187.41 225.869 187.497C224.611 187.556 223.375 187.81 222.163 188.258C220.978 188.706 219.982 189.299 219.176 190.037L216.943 186.315C218.102 185.336 219.497 184.584 221.126 184.06C222.783 183.506 224.506 183.188 226.296 183.105C229.54 182.954 232.08 183.621 233.915 185.105C235.776 186.56 236.783 188.91 236.933 192.155L237.544 205.287L232.593 205.517ZM225.558 206.138C223.88 206.216 222.399 206.005 221.114 205.504C219.828 204.975 218.812 204.223 218.066 203.249C217.347 202.245 216.957 201.1 216.897 199.813C216.839 198.555 217.08 197.408 217.62 196.374C218.189 195.338 219.145 194.495 220.488 193.844C221.831 193.193 223.636 192.815 225.901 192.71L232.404 192.407L232.566 195.89L226.441 196.174C224.651 196.257 223.462 196.607 222.874 197.223C222.284 197.811 222.009 198.525 222.048 199.364C222.092 200.315 222.505 201.052 223.286 201.577C224.067 202.101 225.129 202.332 226.472 202.269C227.758 202.21 228.891 201.863 229.871 201.228C230.879 200.593 231.58 199.691 231.974 198.524L233.001 201.63C232.559 202.967 231.697 204.031 230.416 204.819C229.164 205.606 227.544 206.046 225.558 206.138ZM251.21 204.946C249.336 205.033 247.521 204.879 245.765 204.484C244.036 204.06 242.651 203.521 241.612 202.869L243.44 198.79C244.477 199.386 245.704 199.862 247.122 200.216C248.54 200.571 249.949 200.716 251.347 200.651C252.997 200.574 254.176 200.295 254.882 199.814C255.616 199.331 255.966 198.712 255.931 197.957C255.902 197.342 255.629 196.892 255.111 196.607C254.592 196.295 253.923 196.074 253.104 195.944C252.286 195.814 251.369 195.702 250.356 195.609C249.371 195.515 248.369 195.379 247.352 195.202C246.361 194.996 245.45 194.688 244.618 194.278C243.785 193.84 243.098 193.242 242.558 192.482C242.019 191.722 241.719 190.699 241.659 189.412C241.593 187.986 241.941 186.736 242.704 185.664C243.466 184.563 244.561 183.699 245.989 183.072C247.444 182.416 249.179 182.041 251.193 181.948C252.703 181.877 254.235 181.974 255.789 182.238C257.343 182.503 258.638 182.919 259.673 183.487L257.845 187.567C256.752 186.973 255.655 186.589 254.554 186.416C253.479 186.214 252.41 186.138 251.348 186.187C249.753 186.261 248.576 186.554 247.815 187.066C247.081 187.577 246.732 188.195 246.766 188.923C246.797 189.594 247.072 190.086 247.591 190.398C248.11 190.71 248.78 190.945 249.6 191.103C250.42 191.262 251.323 191.388 252.308 191.482C253.321 191.547 254.322 191.683 255.313 191.889C256.303 192.095 257.215 192.403 258.046 192.813C258.905 193.194 259.604 193.764 260.144 194.524C260.684 195.283 260.983 196.292 261.042 197.551C261.107 198.95 260.744 200.186 259.953 201.26C259.19 202.332 258.067 203.197 256.584 203.855C255.099 204.485 253.308 204.848 251.21 204.946ZM274.313 203.872C271.851 203.986 269.92 203.445 268.519 202.249C267.117 201.025 266.358 199.168 266.242 196.679L265.308 176.582L270.552 176.339L271.481 196.309C271.53 197.372 271.834 198.185 272.393 198.747C272.979 199.309 273.762 199.567 274.741 199.521C275.916 199.467 276.881 199.113 277.635 198.462L279.277 202.127C278.685 202.659 277.948 203.072 277.064 203.365C276.181 203.659 275.264 203.828 274.313 203.872ZM262.049 186.068L261.854 181.872L276.79 181.178L276.985 185.374L262.049 186.068ZM281.665 193.733L281.462 189.37L292.999 188.834L293.202 193.197L281.665 193.733ZM299.884 202.389L298.519 173.02L303.973 172.767L305.124 197.52L320.479 196.806L320.694 201.421L299.884 202.389ZM338.34 200.601L338.13 196.07L337.791 195.119L337.423 187.189C337.351 185.651 336.834 184.484 335.872 183.688C334.909 182.863 333.49 182.495 331.616 182.582C330.358 182.64 329.122 182.894 327.91 183.343C326.725 183.79 325.73 184.383 324.923 185.122L322.69 181.399C323.85 180.42 325.244 179.669 326.874 179.144C328.53 178.591 330.253 178.273 332.043 178.189C335.287 178.039 337.827 178.705 339.662 180.19C341.524 181.645 342.53 183.995 342.681 187.239L343.291 200.371L338.34 200.601ZM331.306 201.223C329.627 201.301 328.146 201.089 326.861 200.588C325.575 200.059 324.559 199.308 323.813 198.333C323.094 197.33 322.704 196.184 322.645 194.898C322.586 193.639 322.827 192.493 323.368 191.459C323.936 190.423 324.892 189.58 326.235 188.929C327.578 188.278 329.383 187.899 331.648 187.794L338.151 187.492L338.313 190.974L332.188 191.259C330.398 191.342 329.209 191.692 328.621 192.308C328.031 192.896 327.756 193.609 327.795 194.448C327.839 195.399 328.252 196.137 329.033 196.661C329.814 197.185 330.876 197.416 332.219 197.354C333.506 197.294 334.639 196.947 335.618 196.313C336.626 195.678 337.327 194.776 337.721 193.608L338.748 196.714C338.306 198.052 337.444 199.115 336.164 199.904C334.911 200.691 333.291 201.13 331.306 201.223ZM359.517 199.911C357.615 200 355.92 199.728 354.433 199.096C352.945 198.437 351.762 197.399 350.883 195.982C350.003 194.537 349.511 192.696 349.407 190.458L348.812 177.662L354.057 177.418L354.618 189.501C354.712 191.515 355.23 193.005 356.171 193.97C357.14 194.906 358.463 195.335 360.141 195.257C361.372 195.2 362.423 194.899 363.295 194.354C364.194 193.807 364.873 193.019 365.329 191.989C365.814 190.957 366.022 189.7 365.953 188.218L365.426 176.89L370.671 176.646L371.712 199.05L366.719 199.282L366.439 193.241L367.405 195.046C366.718 196.535 365.665 197.705 364.247 198.556C362.828 199.379 361.251 199.831 359.517 199.911ZM390.238 175.484C392.028 175.401 393.638 175.677 395.069 176.311C396.528 176.944 397.697 177.969 398.576 179.385C399.453 180.774 399.945 182.601 400.05 184.867L400.647 197.705L395.402 197.949L394.837 185.782C394.744 183.796 394.2 182.336 393.204 181.401C392.235 180.465 390.912 180.036 389.234 180.114C388.003 180.171 386.924 180.474 385.996 181.021C385.069 181.569 384.362 182.359 383.878 183.39C383.42 184.393 383.226 185.649 383.296 187.159L383.823 198.487L378.578 198.731L377.537 176.327L382.53 176.095L382.81 182.136L381.844 180.331C382.56 178.869 383.643 177.725 385.09 176.901C386.564 176.048 388.28 175.575 390.238 175.484ZM417.633 197.21C415.283 197.319 413.163 196.927 411.271 196.034C409.407 195.111 407.916 193.807 406.801 192.121C405.685 190.435 405.076 188.487 404.974 186.278C404.87 184.04 405.295 182.044 406.251 180.29C407.205 178.508 408.569 177.085 410.341 176.021C412.142 174.957 414.217 174.37 416.566 174.261C418.748 174.159 420.685 174.518 422.376 175.336C424.095 176.125 425.427 177.352 426.374 179.018L422.455 181.555C421.735 180.523 420.873 179.779 419.871 179.321C418.896 178.861 417.85 178.658 416.731 178.71C415.444 178.77 414.297 179.103 413.288 179.711C412.279 180.318 411.505 181.167 410.967 182.257C410.428 183.319 410.192 184.578 410.26 186.032C410.328 187.486 410.68 188.731 411.317 189.767C411.952 190.775 412.8 191.534 413.861 192.045C414.922 192.557 416.096 192.782 417.382 192.723C418.501 192.671 419.524 192.371 420.452 191.823C421.407 191.274 422.196 190.453 422.818 189.359L426.955 191.521C426.166 193.239 424.954 194.599 423.318 195.6C421.71 196.572 419.815 197.108 417.633 197.21ZM443.173 173.024C444.963 172.941 446.573 173.216 448.004 173.85C449.463 174.483 450.632 175.508 451.511 176.925C452.388 178.314 452.88 180.141 452.985 182.406L453.582 195.244L448.337 195.488L447.772 183.321C447.679 181.336 447.135 179.875 446.139 178.94C445.17 178.004 443.847 177.575 442.169 177.653C440.938 177.711 439.859 178.013 438.931 178.561C438.004 179.108 437.298 179.898 436.813 180.93C436.355 181.932 436.161 183.188 436.231 184.699L436.758 196.026L431.513 196.27L430.066 165.14L435.311 164.896L435.997 179.664L434.779 177.871C435.496 176.408 436.578 175.264 438.025 174.44C439.499 173.587 441.215 173.115 443.173 173.024Z" fill="#FDEFE8"/>
<path d="M235.471 376.544C233.231 376.594 231.138 376.276 229.19 375.591C227.27 374.878 225.581 373.865 224.123 372.553C222.693 371.212 221.566 369.627 220.741 367.797C219.916 365.967 219.48 363.96 219.431 361.776C219.383 359.593 219.73 357.569 220.473 355.704C221.215 353.839 222.286 352.219 223.684 350.843C225.081 349.44 226.723 348.353 228.611 347.583C230.497 346.785 232.574 346.361 234.842 346.311C237.249 346.257 239.456 346.629 241.462 347.424C243.468 348.192 245.174 349.372 246.582 350.966L243.128 354.361C242.039 353.237 240.831 352.41 239.502 351.879C238.174 351.32 236.74 351.058 235.2 351.092C233.66 351.126 232.252 351.41 230.976 351.942C229.727 352.474 228.637 353.212 227.706 354.157C226.803 355.101 226.099 356.209 225.595 357.481C225.119 358.752 224.898 360.143 224.932 361.654C224.965 363.166 225.248 364.546 225.78 365.795C226.34 367.043 227.092 368.118 228.036 369.021C229.008 369.924 230.13 370.613 231.401 371.089C232.699 371.565 234.119 371.785 235.658 371.751C237.198 371.717 238.619 371.405 239.923 370.816C241.225 370.199 242.395 369.291 243.433 368.092L247.035 371.373C245.698 372.999 244.046 374.254 242.077 375.138C240.108 376.021 237.906 376.49 235.471 376.544ZM265.47 375.459L265.37 370.924L265.054 369.965L264.878 362.029C264.844 360.489 264.356 359.31 263.414 358.49C262.471 357.643 261.061 357.24 259.186 357.282C257.926 357.31 256.685 357.533 255.462 357.952C254.267 358.371 253.257 358.94 252.433 359.658L250.29 355.883C251.474 354.932 252.886 354.215 254.528 353.73C256.197 353.217 257.927 352.941 259.719 352.901C262.966 352.829 265.489 353.557 267.287 355.085C269.113 356.585 270.062 358.959 270.134 362.206L270.425 375.349L265.47 375.459ZM258.423 375.909C256.743 375.946 255.267 375.699 253.995 375.167C252.722 374.607 251.725 373.831 251.003 372.839C250.308 371.818 249.946 370.664 249.918 369.376C249.89 368.117 250.158 366.976 250.724 365.955C251.317 364.934 252.294 364.114 253.652 363.496C255.011 362.878 256.824 362.543 259.091 362.493L265.6 362.349L265.677 365.834L259.546 365.97C257.755 366.01 256.558 366.33 255.955 366.932C255.351 367.505 255.059 368.212 255.078 369.052C255.099 370.003 255.494 370.751 256.262 371.294C257.03 371.837 258.086 372.094 259.43 372.064C260.717 372.035 261.858 371.716 262.853 371.106C263.876 370.495 264.598 369.611 265.021 368.453L265.973 371.583C265.498 372.91 264.611 373.951 263.311 374.708C262.04 375.465 260.41 375.865 258.423 375.909ZM284.096 375.34C282.22 375.381 280.41 375.183 278.664 374.746C276.945 374.28 275.574 373.708 274.55 373.031L276.477 368.997C277.5 369.619 278.715 370.124 280.124 370.513C281.533 370.901 282.937 371.08 284.337 371.049C285.989 371.013 287.173 370.762 287.891 370.298C288.637 369.834 289.002 369.223 288.985 368.468C288.971 367.852 288.709 367.395 288.198 367.099C287.687 366.774 287.024 366.537 286.208 366.387C285.392 366.237 284.479 366.103 283.468 365.985C282.486 365.867 281.488 365.707 280.475 365.506C279.49 365.275 278.586 364.945 277.764 364.515C276.942 364.058 276.27 363.442 275.749 362.67C275.228 361.897 274.953 360.867 274.924 359.579C274.893 358.152 275.271 356.911 276.06 355.857C276.848 354.775 277.964 353.938 279.407 353.346C280.878 352.725 282.621 352.393 284.636 352.348C286.148 352.315 287.677 352.449 289.224 352.75C290.771 353.052 292.056 353.5 293.077 354.093L291.15 358.127C290.072 357.507 288.985 357.097 287.888 356.897C286.819 356.669 285.752 356.566 284.688 356.59C283.093 356.625 281.908 356.89 281.135 357.383C280.39 357.876 280.025 358.486 280.041 359.214C280.056 359.885 280.319 360.384 280.831 360.709C281.342 361.033 282.006 361.285 282.822 361.463C283.638 361.64 284.538 361.789 285.52 361.907C286.531 361.996 287.529 362.156 288.514 362.387C289.499 362.617 290.403 362.947 291.224 363.377C292.074 363.778 292.759 364.365 293.28 365.137C293.801 365.91 294.076 366.926 294.104 368.186C294.135 369.586 293.742 370.813 292.925 371.867C292.136 372.921 290.993 373.758 289.494 374.38C287.995 374.973 286.196 375.293 284.096 375.34ZM310.991 351.763C312.783 351.724 314.386 352.038 315.801 352.707C317.244 353.375 318.388 354.428 319.232 355.866C320.075 357.275 320.522 359.114 320.573 361.381L320.858 374.23L315.609 374.347L315.339 362.17C315.295 360.182 314.786 358.709 313.812 357.75C312.867 356.791 311.554 356.33 309.875 356.367C308.643 356.395 307.557 356.671 306.616 357.196C305.676 357.721 304.951 358.493 304.441 359.513C303.959 360.504 303.735 361.755 303.768 363.266L304.02 374.604L298.771 374.72L298.08 343.564L303.329 343.447L303.657 358.228L302.482 356.405C303.234 354.96 304.344 353.843 305.81 353.055C307.305 352.237 309.031 351.807 310.991 351.763ZM353.238 373.932C350.999 373.982 348.905 373.664 346.958 372.979C345.037 372.265 343.349 371.253 341.891 369.941C340.461 368.6 339.334 367.015 338.509 365.184C337.684 363.354 337.247 361.347 337.199 359.164C337.151 356.981 337.498 354.956 338.241 353.091C338.983 351.226 340.054 349.606 341.452 348.231C342.849 346.828 344.491 345.741 346.378 344.971C348.265 344.173 350.342 343.749 352.61 343.698C355.017 343.645 357.224 344.016 359.23 344.812C361.236 345.58 362.942 346.76 364.35 348.353L360.896 351.749C359.807 350.625 358.598 349.797 357.27 349.266C355.942 348.708 354.508 348.446 352.968 348.48C351.428 348.514 350.02 348.797 348.744 349.33C347.495 349.861 346.405 350.6 345.474 351.545C344.571 352.489 343.867 353.597 343.363 354.868C342.887 356.139 342.666 357.53 342.7 359.042C342.733 360.554 343.016 361.934 343.548 363.182C344.107 364.43 344.859 365.506 345.804 366.409C346.776 367.312 347.898 368.001 349.168 368.477C350.467 368.952 351.887 369.173 353.426 369.139C354.966 369.104 356.387 368.793 357.69 368.204C358.993 367.587 360.163 366.679 361.201 365.479L364.803 368.76C363.466 370.386 361.814 371.641 359.845 372.525C357.876 373.409 355.674 373.878 353.238 373.932ZM378.852 373.238C376.556 373.289 374.502 372.844 372.689 371.904C370.875 370.936 369.431 369.596 368.356 367.883C367.282 366.171 366.72 364.209 366.671 361.997C366.622 359.758 367.096 357.773 368.094 356.042C369.091 354.284 370.474 352.894 372.244 351.875C374.014 350.855 376.047 350.32 378.342 350.269C380.666 350.218 382.734 350.662 384.547 351.602C386.388 352.541 387.832 353.854 388.878 355.539C389.951 357.224 390.513 359.2 390.563 361.467C390.613 363.679 390.138 365.664 389.141 367.422C388.172 369.18 386.789 370.583 384.992 371.631C383.222 372.651 381.175 373.186 378.852 373.238ZM378.752 368.745C380.04 368.716 381.181 368.411 382.176 367.829C383.172 367.246 383.938 366.417 384.474 365.341C385.038 364.264 385.304 363.012 385.273 361.584C385.24 360.129 384.919 358.89 384.308 357.867C383.725 356.816 382.923 356.021 381.903 355.484C380.882 354.946 379.743 354.691 378.483 354.719C377.195 354.748 376.054 355.053 375.058 355.635C374.091 356.217 373.325 357.046 372.761 358.123C372.196 359.172 371.93 360.424 371.962 361.88C371.994 363.307 372.315 364.547 372.927 365.597C373.538 366.648 374.34 367.442 375.332 367.98C376.352 368.518 377.492 368.773 378.752 368.745ZM400.171 372.471L391.444 350.231L396.398 350.121L403.891 369.742L401.54 369.794L408.491 349.853L412.9 349.755L420.519 369.373L418.21 369.424L425.035 349.486L429.696 349.382L421.922 371.988L416.883 372.1L409.944 354.736L411.498 354.701L405.21 372.359L400.171 372.471Z" fill="#FDEFE8"/>
<path d="M185.208 562.11C182.912 562.075 180.719 561.72 178.629 561.044C176.54 560.34 174.887 559.461 173.671 558.406L175.625 554.193C176.787 555.135 178.231 555.927 179.957 556.569C181.684 557.212 183.457 557.547 185.277 557.574C186.816 557.598 188.065 557.449 189.022 557.127C189.979 556.806 190.686 556.369 191.142 555.815C191.599 555.234 191.833 554.58 191.844 553.852C191.858 552.956 191.547 552.237 190.911 551.695C190.275 551.126 189.442 550.679 188.411 550.355C187.408 550.004 186.279 549.679 185.023 549.38C183.796 549.081 182.555 548.74 181.3 548.357C180.074 547.946 178.948 547.439 177.921 546.835C176.923 546.204 176.109 545.38 175.48 544.362C174.852 543.344 174.549 542.052 174.573 540.484C174.598 538.888 175.04 537.438 175.9 536.135C176.788 534.805 178.106 533.761 179.854 533.003C181.63 532.218 183.862 531.846 186.549 531.887C188.313 531.914 190.06 532.164 191.789 532.639C193.518 533.113 195.02 533.78 196.295 534.639L194.508 538.855C193.204 538.051 191.855 537.456 190.461 537.071C189.067 536.658 187.726 536.441 186.438 536.422C184.927 536.399 183.692 536.562 182.735 536.911C181.805 537.261 181.112 537.727 180.655 538.308C180.226 538.89 180.006 539.558 179.995 540.314C179.981 541.21 180.278 541.943 180.885 542.512C181.521 543.054 182.341 543.486 183.344 543.809C184.375 544.133 185.518 544.459 186.773 544.786C188.029 545.085 189.27 545.426 190.496 545.809C191.75 546.192 192.877 546.685 193.876 547.288C194.903 547.892 195.717 548.702 196.317 549.72C196.946 550.737 197.249 552.016 197.225 553.556C197.201 555.124 196.745 556.573 195.857 557.903C194.997 559.207 193.679 560.251 191.903 561.036C190.127 561.793 187.895 562.151 185.208 562.11ZM212.082 562.393C209.787 562.358 207.75 561.837 205.974 560.83C204.197 559.795 202.804 558.401 201.795 556.65C200.785 554.898 200.297 552.916 200.331 550.705C200.365 548.465 200.913 546.499 201.975 544.807C203.037 543.087 204.472 541.751 206.278 540.798C208.085 539.845 210.136 539.386 212.432 539.421C214.756 539.457 216.806 539.978 218.583 540.985C220.388 541.993 221.781 543.358 222.763 545.081C223.773 546.805 224.261 548.8 224.226 551.068C224.192 553.28 223.645 555.246 222.582 556.966C221.548 558.686 220.113 560.037 218.278 561.017C216.471 561.969 214.406 562.428 212.082 562.393ZM212.151 557.899C213.439 557.919 214.591 557.656 215.607 557.112C216.624 556.567 217.42 555.767 217.996 554.712C218.6 553.657 218.913 552.415 218.935 550.988C218.957 549.532 218.682 548.281 218.11 547.237C217.566 546.164 216.794 545.34 215.795 544.765C214.796 544.19 213.666 543.893 212.406 543.874C211.118 543.854 209.966 544.116 208.95 544.661C207.961 545.206 207.165 546.006 206.561 547.061C205.957 548.088 205.644 549.329 205.622 550.785C205.601 552.213 205.876 553.463 206.447 554.536C207.019 555.609 207.791 556.433 208.762 557.008C209.761 557.583 210.891 557.88 212.151 557.899ZM239.36 562.808C237.008 562.772 234.916 562.25 233.083 561.242C231.278 560.206 229.871 558.813 228.862 557.061C227.852 555.31 227.364 553.328 227.398 551.116C227.432 548.877 227.98 546.911 229.042 545.219C230.104 543.499 231.553 542.163 233.387 541.21C235.25 540.259 237.357 539.801 239.709 539.836C241.893 539.87 243.804 540.347 245.442 541.268C247.109 542.161 248.363 543.468 249.205 545.189L245.137 547.48C244.482 546.406 243.668 545.609 242.696 545.09C241.751 544.572 240.719 544.304 239.599 544.287C238.312 544.268 237.145 544.53 236.101 545.074C235.057 545.618 234.232 546.418 233.628 547.473C233.025 548.5 232.712 549.741 232.689 551.197C232.667 552.653 232.942 553.917 233.514 554.99C234.086 556.035 234.886 556.845 235.913 557.421C236.941 557.996 238.098 558.294 239.386 558.314C240.506 558.331 241.546 558.094 242.505 557.605C243.493 557.116 244.331 556.345 245.019 555.291L249.014 557.704C248.121 559.371 246.827 560.653 245.133 561.551C243.468 562.422 241.543 562.841 239.36 562.808ZM253.272 562.725L253.613 540.3L258.862 540.38L258.521 562.805L253.272 562.725ZM256.315 536.644C255.335 536.63 254.528 536.309 253.893 535.684C253.287 535.058 252.99 534.312 253.003 533.444C253.017 532.548 253.336 531.811 253.961 531.232C254.614 530.626 255.431 530.33 256.411 530.345C257.39 530.36 258.184 530.666 258.791 531.264C259.426 531.833 259.737 532.552 259.724 533.42C259.71 534.344 259.39 535.123 258.765 535.758C258.139 536.364 257.323 536.66 256.315 536.644ZM279.227 563.12L279.296 558.585L279.017 557.614L279.138 549.677C279.161 548.137 278.717 546.94 277.806 546.086C276.896 545.205 275.502 544.749 273.627 544.721C272.367 544.702 271.118 544.879 269.88 545.252C268.67 545.625 267.64 546.156 266.789 546.843L264.79 542.99C266.008 542.085 267.446 541.42 269.105 540.998C270.792 540.547 272.531 540.336 274.323 540.363C277.571 540.412 280.064 541.234 281.804 542.829C283.573 544.396 284.432 546.803 284.383 550.051L284.183 563.195L279.227 563.12ZM272.168 563.307C270.488 563.281 269.022 562.979 267.771 562.4C266.52 561.793 265.552 560.98 264.868 559.961C264.212 558.915 263.893 557.748 263.913 556.46C263.932 555.2 264.243 554.071 264.847 553.072C265.478 552.074 266.484 551.291 267.865 550.724C269.245 550.157 271.07 549.89 273.337 549.925L279.847 550.024L279.794 553.51L273.662 553.416C271.871 553.389 270.662 553.665 270.037 554.243C269.413 554.794 269.094 555.489 269.081 556.329C269.067 557.281 269.433 558.043 270.181 558.614C270.928 559.185 271.974 559.481 273.318 559.502C274.606 559.521 275.758 559.245 276.775 558.672C277.82 558.1 278.575 557.243 279.04 556.102L279.874 559.265C279.35 560.574 278.425 561.582 277.098 562.29C275.799 562.998 274.155 563.337 272.168 563.307ZM290.92 563.298L291.394 532.138L296.643 532.217L296.169 563.378L290.92 563.298ZM315.169 563.667L315.616 534.27L321.075 534.353L320.628 563.75L315.169 563.667ZM356.725 541.616C358.517 541.643 360.094 542.018 361.455 542.738C362.844 543.46 363.919 544.554 364.681 546.022C365.443 547.462 365.807 549.315 365.773 551.583L365.577 564.434L360.328 564.354L360.513 552.175C360.543 550.187 360.132 548.697 359.279 547.704C358.426 546.711 357.188 546.202 355.564 546.177C354.416 546.16 353.39 546.396 352.487 546.886C351.611 547.377 350.914 548.109 350.395 549.081C349.904 550.053 349.647 551.296 349.624 552.808L349.451 564.188L344.202 564.108L344.387 551.93C344.417 549.942 344.006 548.452 343.153 547.458C342.3 546.465 341.061 545.957 339.438 545.932C338.29 545.914 337.264 546.151 336.36 546.641C335.485 547.132 334.788 547.863 334.269 548.836C333.778 549.808 333.521 551.05 333.498 552.562L333.325 563.943L328.076 563.863L328.417 541.438L333.414 541.514L333.323 547.477L332.468 545.7C333.246 544.255 334.355 543.166 335.794 542.432C337.262 541.698 338.919 541.345 340.767 541.373C342.867 541.405 344.679 541.951 346.203 543.01C347.755 544.07 348.767 545.654 349.239 547.761L347.192 547.016C347.945 545.347 349.17 544.022 350.865 543.039C352.56 542.057 354.514 541.583 356.725 541.616ZM384.711 565.019C382.892 564.991 381.232 564.546 379.733 563.683C378.262 562.82 377.091 561.542 376.221 559.849C375.379 558.128 374.978 555.966 375.018 553.362C375.058 550.73 375.51 548.581 376.376 546.914C377.269 545.247 378.464 544.019 379.96 543.23C381.457 542.412 383.157 542.018 385.061 542.047C387.273 542.081 389.211 542.586 390.876 543.564C392.57 544.542 393.893 545.892 394.847 547.615C395.829 549.338 396.302 551.361 396.267 553.685C396.232 556.009 395.697 558.031 394.663 559.751C393.657 561.444 392.293 562.754 390.57 563.68C388.876 564.606 386.923 565.052 384.711 565.019ZM372.161 572.683L372.626 542.11L377.624 542.186L377.543 547.478L377.285 553.438L377.614 559.408L377.411 572.762L372.161 572.683ZM384.192 560.516C385.452 560.535 386.576 560.272 387.564 559.727C388.581 559.183 389.391 558.383 389.995 557.328C390.599 556.273 390.912 555.032 390.934 553.604C390.956 552.148 390.681 550.898 390.109 549.853C389.537 548.78 388.751 547.956 387.752 547.381C386.781 546.806 385.665 546.509 384.405 546.49C383.145 546.471 382.007 546.733 380.991 547.278C379.974 547.823 379.164 548.622 378.56 549.677C377.956 550.704 377.643 551.946 377.621 553.401C377.6 554.829 377.875 556.08 378.446 557.152C379.018 558.225 379.804 559.049 380.803 559.625C381.802 560.2 382.932 560.497 384.192 560.516ZM414.604 565.179L414.673 560.644L414.394 559.673L414.515 551.736C414.538 550.197 414.094 549 413.183 548.146C412.272 547.264 410.879 546.808 409.003 546.78C407.744 546.761 406.495 546.938 405.257 547.311C404.047 547.685 403.017 548.215 402.166 548.902L400.167 545.049C401.385 544.144 402.823 543.48 404.482 543.057C406.169 542.606 407.908 542.395 409.7 542.422C412.947 542.471 415.441 543.293 417.181 544.888C418.95 546.455 419.809 548.863 419.76 552.11L419.56 565.255L414.604 565.179ZM407.545 565.366C405.865 565.34 404.399 565.038 403.148 564.459C401.897 563.852 400.929 563.039 400.245 562.02C399.588 560.974 399.27 559.807 399.29 558.52C399.309 557.26 399.62 556.13 400.223 555.131C400.855 554.133 401.861 553.35 403.241 552.783C404.622 552.216 406.447 551.95 408.714 551.984L415.224 552.083L415.171 555.569L409.039 555.475C407.247 555.448 406.039 555.724 405.414 556.302C404.79 556.853 404.471 557.548 404.458 558.388C404.444 559.34 404.81 560.102 405.558 560.673C406.305 561.245 407.351 561.541 408.695 561.561C409.982 561.581 411.135 561.304 412.152 560.731C413.196 560.159 413.952 559.303 414.417 558.162L415.251 561.325C414.727 562.633 413.802 563.641 412.475 564.349C411.176 565.057 409.532 565.396 407.545 565.366ZM436.622 565.808C434.27 565.772 432.178 565.251 430.345 564.243C428.541 563.207 427.134 561.813 426.124 560.062C425.115 558.31 424.627 556.329 424.66 554.117C424.694 551.877 425.242 549.911 426.304 548.219C427.367 546.499 428.815 545.163 430.65 544.211C432.512 543.259 434.62 542.801 436.971 542.837C439.155 542.87 441.066 543.347 442.704 544.268C444.371 545.162 445.625 546.469 446.467 548.19L442.4 550.48C441.744 549.406 440.93 548.61 439.958 548.091C439.014 547.572 437.982 547.305 436.862 547.288C435.574 547.268 434.408 547.53 433.363 548.075C432.319 548.619 431.495 549.418 430.891 550.473C430.287 551.5 429.974 552.742 429.952 554.197C429.93 555.653 430.204 556.918 430.776 557.99C431.348 559.035 432.148 559.845 433.176 560.421C434.203 560.997 435.36 561.294 436.648 561.314C437.768 561.331 438.808 561.095 439.767 560.605C440.755 560.116 441.593 559.345 442.281 558.291L446.277 560.704C445.383 562.371 444.09 563.654 442.396 564.552C440.73 565.423 438.806 565.841 436.622 565.808ZM459.463 566.156C456.999 566.118 455.105 565.459 453.78 564.179C452.456 562.871 451.813 560.971 451.851 558.479L452.157 538.363L457.406 538.443L457.102 558.433C457.086 559.497 457.339 560.327 457.862 560.923C458.413 561.519 459.179 561.825 460.158 561.84C461.334 561.858 462.319 561.565 463.112 560.961L464.525 564.72C463.902 565.215 463.14 565.581 462.24 565.82C461.34 566.058 460.415 566.17 459.463 566.156ZM448.319 547.63L448.383 543.43L463.333 543.658L463.269 547.857L448.319 547.63Z" fill="#FDEFE8"/>
<path d="M126.534 752.893L128.006 723.53L132.495 723.755L144.256 745.834L141.907 745.716L155.608 724.914L160.096 725.139L158.666 754.504L153.506 754.245L154.531 732.976L155.621 733.031L143.985 750.404L141.552 750.282L131.543 731.824L132.802 731.887L131.736 753.154L126.534 752.893ZM176.146 755.675C173.853 755.56 171.836 754.968 170.096 753.9C168.356 752.803 167.013 751.362 166.065 749.576C165.117 747.791 164.699 745.793 164.81 743.584C164.922 741.347 165.538 739.401 166.658 737.747C167.78 736.065 169.26 734.78 171.099 733.891C172.938 733.002 175.004 732.615 177.297 732.73C179.618 732.846 181.649 733.438 183.389 734.507C185.158 735.577 186.503 736.99 187.424 738.746C188.373 740.504 188.791 742.515 188.678 744.781C188.567 746.99 187.951 748.935 186.829 750.617C185.735 752.301 184.255 753.6 182.386 754.516C180.548 755.405 178.468 755.791 176.146 755.675ZM176.371 751.187C177.658 751.251 178.818 751.029 179.853 750.52C180.888 750.011 181.712 749.239 182.324 748.205C182.965 747.172 183.321 745.942 183.392 744.516C183.465 743.061 183.234 741.802 182.699 740.738C182.193 739.647 181.45 738.797 180.471 738.187C179.493 737.578 178.374 737.241 177.116 737.178C175.829 737.114 174.669 737.336 173.634 737.845C172.627 738.355 171.804 739.127 171.163 740.16C170.524 741.165 170.168 742.395 170.095 743.849C170.023 745.275 170.255 746.534 170.789 747.627C171.323 748.719 172.065 749.569 173.016 750.177C173.995 750.787 175.113 751.123 176.371 751.187ZM200.037 756.873C198.163 756.779 196.371 756.45 194.661 755.888C192.981 755.299 191.655 754.63 190.683 753.88L192.896 749.996C193.871 750.69 195.046 751.282 196.424 751.771C197.801 752.261 199.189 752.541 200.587 752.611C202.237 752.693 203.437 752.529 204.186 752.118C204.964 751.709 205.371 751.126 205.409 750.371C205.44 749.756 205.211 749.282 204.723 748.949C204.237 748.588 203.592 748.304 202.79 748.095C201.987 747.887 201.086 747.688 200.086 747.497C199.115 747.308 198.131 747.077 197.135 746.803C196.169 746.502 195.292 746.107 194.503 745.619C193.716 745.103 193.091 744.441 192.626 743.633C192.162 742.825 191.962 741.777 192.027 740.491C192.098 739.065 192.566 737.855 193.428 736.861C194.293 735.839 195.466 735.084 196.948 734.598C198.46 734.085 200.222 733.879 202.236 733.98C203.746 734.056 205.262 734.3 206.783 734.713C208.304 735.125 209.553 735.664 210.528 736.33L208.315 740.214C207.285 739.518 206.23 739.03 205.15 738.752C204.1 738.447 203.044 738.268 201.981 738.215C200.387 738.135 199.187 738.313 198.38 738.749C197.601 739.186 197.194 739.769 197.157 740.496C197.123 741.167 197.35 741.683 197.836 742.044C198.323 742.405 198.967 742.703 199.768 742.94C200.569 743.176 201.456 743.389 202.427 743.578C203.429 743.74 204.412 743.971 205.378 744.272C206.345 744.573 207.222 744.967 208.01 745.455C208.828 745.917 209.469 746.552 209.933 747.36C210.398 748.168 210.598 749.202 210.535 750.46C210.465 751.858 209.984 753.054 209.094 754.046C208.231 755.041 207.03 755.793 205.49 756.305C203.952 756.788 202.134 756.978 200.037 756.873ZM223.135 758.031C220.674 757.907 218.804 757.183 217.525 755.857C216.247 754.503 215.67 752.582 215.795 750.093L216.803 730L222.046 730.263L221.045 750.23C220.992 751.293 221.216 752.131 221.718 752.745C222.248 753.36 223.002 753.692 223.981 753.741C225.155 753.8 226.15 753.542 226.963 752.966L228.244 756.773C227.604 757.245 226.83 757.585 225.922 757.792C225.015 757.999 224.086 758.078 223.135 758.031ZM212.644 739.128L212.855 734.933L227.788 735.681L227.578 739.876L212.644 739.128ZM244.593 758.812L246.065 729.449L251.518 729.722L250.046 759.085L244.593 758.812ZM271.331 737.444C273.12 737.534 274.697 737.963 276.06 738.732C277.451 739.503 278.516 740.636 279.254 742.13C279.993 743.597 280.306 745.463 280.193 747.728L279.549 760.564L274.306 760.301L274.916 748.137C275.015 746.151 274.614 744.645 273.712 743.619C272.839 742.594 271.563 742.039 269.885 741.955C268.654 741.893 267.551 742.09 266.575 742.546C265.599 743.002 264.82 743.72 264.238 744.7C263.686 745.653 263.372 746.885 263.296 748.395L262.728 759.721L257.485 759.458L258.608 737.058L263.6 737.309L263.297 743.349L262.508 741.459C263.363 740.072 264.55 739.038 266.07 738.358C267.62 737.65 269.373 737.346 271.331 737.444ZM300.046 738.883C301.836 738.973 303.413 739.403 304.776 740.172C306.167 740.942 307.232 742.075 307.97 743.57C308.709 745.037 309.022 746.903 308.909 749.168L308.265 762.004L303.022 761.741L303.632 749.576C303.731 747.591 303.33 746.085 302.428 745.058C301.554 744.033 300.279 743.479 298.601 743.395C297.37 743.333 296.267 743.53 295.291 743.986C294.315 744.441 293.536 745.159 292.954 746.139C292.402 747.093 292.088 748.325 292.012 749.835L291.444 761.161L286.201 760.898L287.324 738.498L292.315 738.748L292.013 744.789L291.224 742.899C292.079 741.512 293.266 740.478 294.786 739.797C296.335 739.09 298.089 738.785 300.046 738.883ZM325.01 763.138C322.717 763.023 320.7 762.431 318.96 761.363C317.22 760.266 315.877 758.825 314.929 757.039C313.981 755.254 313.563 753.256 313.673 751.047C313.786 748.81 314.402 746.864 315.522 745.21C316.644 743.528 318.124 742.243 319.963 741.354C321.802 740.465 323.867 740.078 326.161 740.193C328.482 740.309 330.513 740.901 332.253 741.97C334.022 743.04 335.367 744.453 336.288 746.209C337.237 747.967 337.655 749.978 337.541 752.244C337.431 754.453 336.815 756.398 335.693 758.08C334.599 759.764 333.118 761.063 331.25 761.979C329.411 762.868 327.331 763.254 325.01 763.138ZM325.235 758.649C326.522 758.714 327.682 758.492 328.717 757.983C329.752 757.474 330.575 756.702 331.188 755.668C331.829 754.635 332.185 753.405 332.256 751.979C332.329 750.524 332.098 749.265 331.562 748.201C331.056 747.11 330.314 746.26 329.335 745.65C328.357 745.041 327.238 744.704 325.98 744.641C324.693 744.577 323.533 744.799 322.498 745.308C321.491 745.818 320.667 746.59 320.027 747.623C319.388 748.628 319.032 749.858 318.959 751.312C318.887 752.738 319.119 753.997 319.653 755.089C320.187 756.182 320.929 757.032 321.88 757.64C322.858 758.25 323.977 758.586 325.235 758.649ZM347.336 763.963L338.853 741.081L344.306 741.355L351.579 761.526L348.895 761.391L358.442 742.063L363.476 742.316L352.747 764.234L347.336 763.963ZM378.735 765.537L378.962 761.006L378.716 760.027L379.114 752.099C379.191 750.561 378.789 749.349 377.908 748.464C377.029 747.551 375.653 747.047 373.779 746.953C372.52 746.89 371.266 747.024 370.016 747.353C368.794 747.685 367.746 748.179 366.872 748.836L365.008 744.916C366.257 744.053 367.717 743.439 369.39 743.075C371.091 742.683 372.837 742.533 374.627 742.622C377.871 742.785 380.334 743.693 382.018 745.348C383.73 746.976 384.505 749.411 384.343 752.655L383.684 765.785L378.735 765.537ZM371.673 765.477C369.995 765.393 368.541 765.04 367.31 764.417C366.081 763.767 365.143 762.921 364.494 761.879C363.875 760.811 363.597 759.633 363.662 758.347C363.725 757.089 364.075 755.971 364.713 754.993C365.379 754.018 366.411 753.27 367.811 752.752C369.211 752.233 371.043 752.031 373.308 752.144L379.81 752.47L379.636 755.952L373.511 755.645C371.722 755.555 370.504 755.788 369.86 756.345C369.216 756.873 368.874 757.557 368.832 758.396C368.784 759.347 369.124 760.121 369.851 760.718C370.578 761.315 371.612 761.647 372.955 761.715C374.241 761.779 375.402 761.543 376.439 761.006C377.503 760.471 378.287 759.641 378.792 758.517L379.515 761.707C378.946 762.996 377.986 763.971 376.635 764.632C375.312 765.295 373.658 765.577 371.673 765.477ZM398.83 766.839C396.369 766.715 394.499 765.991 393.22 764.665C391.942 763.311 391.366 761.39 391.491 758.901L392.498 738.808L397.741 739.071L396.74 759.038C396.687 760.101 396.911 760.939 397.413 761.553C397.943 762.168 398.697 762.5 399.676 762.55C400.851 762.608 401.845 762.35 402.659 761.774L403.94 765.581C403.299 766.053 402.525 766.393 401.618 766.6C400.71 766.807 399.781 766.886 398.83 766.839ZM388.34 747.936L388.55 743.741L403.483 744.489L403.273 748.684L388.34 747.936ZM408.192 767.014L409.315 744.614L414.559 744.877L413.436 767.276L408.192 767.014ZM412.143 741.055C411.164 741.006 410.368 740.657 409.756 740.01C409.172 739.364 408.901 738.607 408.945 737.74C408.99 736.846 409.334 736.12 409.979 735.564C410.653 734.981 411.479 734.714 412.458 734.763C413.437 734.812 414.219 735.145 414.805 735.763C415.42 736.355 415.706 737.084 415.663 737.951C415.616 738.874 415.27 739.642 414.622 740.254C413.976 740.838 413.15 741.105 412.143 741.055ZM426.274 767.92L417.791 745.039L423.244 745.312L430.517 765.483L427.833 765.349L437.38 746.021L442.414 746.273L431.685 768.191L426.274 767.92ZM454.468 769.628C451.979 769.503 449.822 768.904 447.998 767.832C446.203 766.732 444.831 765.29 443.883 763.504C442.963 761.72 442.559 759.723 442.67 757.514C442.782 755.277 443.37 753.33 444.434 751.673C445.528 749.99 446.966 748.702 448.749 747.81C450.56 746.92 452.584 746.531 454.821 746.643C457.002 746.752 458.922 747.325 460.58 748.361C462.239 749.398 463.514 750.807 464.405 752.59C465.297 754.373 465.684 756.439 465.567 758.788C465.555 759.012 465.529 759.263 465.487 759.541C465.473 759.821 465.445 760.085 465.405 760.336L446.738 759.4L446.913 755.918L462.811 756.715L460.701 757.703C460.793 756.418 460.584 755.272 460.074 754.265C459.564 753.258 458.833 752.451 457.883 751.842C456.96 751.236 455.869 750.9 454.611 750.837C453.325 750.773 452.178 750.996 451.171 751.506C450.192 752.018 449.398 752.763 448.788 753.741C448.208 754.694 447.884 755.841 447.817 757.183L447.775 758.022C447.707 759.364 447.955 760.568 448.519 761.634C449.082 762.699 449.909 763.54 451 764.155C452.09 764.771 453.362 765.115 454.817 765.188C456.075 765.251 457.217 765.112 458.244 764.771C459.27 764.43 460.196 763.859 461.021 763.06L463.67 766.431C462.604 767.555 461.286 768.4 459.716 768.966C458.175 769.505 456.425 769.726 454.468 769.628Z" fill="#FDEFE8"/>
<defs>
<filter id="filter0_g_791_205" x="300.2" y="4.88758e-05" width="62.6" height="1208.6" filterUnits="userSpaceOnUse" color-interpolation-filters="sRGB">
<feFlood flood-opacity="0" result="BackgroundImageFix"/>
<feBlend mode="normal" in="SourceGraphic" in2="BackgroundImageFix" result="shape"/>
<feTurbulence type="fractalNoise" baseFrequency="0.10000000149011612 0.10000000149011612" numOctaves="3" seed="8450" />
<feDisplacementMap in="shape" scale="5.5999999046325684" xChannelSelector="R" yChannelSelector="G" result="displacedImage" width="100%" height="100%" />
<feMerge result="effect1_texture_791_205">
<feMergeNode in="displacedImage"/>
</feMerge>
</filter>
<filter id="filter1_g_791_205" x="121.168" y="125.84" width="432.205" height="126.307" filterUnits="userSpaceOnUse" color-interpolation-filters="sRGB">
<feFlood flood-opacity="0" result="BackgroundImageFix"/>
<feBlend mode="normal" in="SourceGraphic" in2="BackgroundImageFix" result="shape"/>
<feTurbulence type="fractalNoise" baseFrequency="0.10000000149011612 0.10000000149011612" numOctaves="3" seed="8450" />
<feDisplacementMap in="shape" scale="5.5999999046325684" xChannelSelector="R" yChannelSelector="G" result="displacedImage" width="100%" height="100%" />
<feMerge result="effect1_texture_791_205">
<feMergeNode in="displacedImage"/>
</feMerge>
</filter>
<filter id="filter2_g_791_205" x="65.9781" y="132.261" width="63.6643" height="118.869" filterUnits="userSpaceOnUse" color-interpolation-filters="sRGB">
<feFlood flood-opacity="0" result="BackgroundImageFix"/>
<feBlend mode="normal" in="SourceGraphic" in2="BackgroundImageFix" result="shape"/>
<feTurbulence type="fractalNoise" baseFrequency="0.10000000149011612 0.10000000149011612" numOctaves="3" seed="8450" />
<feDisplacementMap in="shape" scale="5.5999999046325684" xChannelSelector="R" yChannelSelector="G" result="displacedImage" width="100%" height="100%" />
<feMerge result="effect1_texture_791_205">
<feMergeNode in="displacedImage"/>
</feMerge>
</filter>
<filter id="filter3_g_791_205" x="156.481" y="301.011" width="374.111" height="128.855" filterUnits="userSpaceOnUse" color-interpolation-filters="sRGB">
<feFlood flood-opacity="0" result="BackgroundImageFix"/>
<feBlend mode="normal" in="SourceGraphic" in2="BackgroundImageFix" result="shape"/>
<feTurbulence type="fractalNoise" baseFrequency="0.10000000149011612 0.10000000149011612" numOctaves="3" seed="8450" />
<feDisplacementMap in="shape" scale="5.5999999046325684" xChannelSelector="R" yChannelSelector="G" result="displacedImage" width="100%" height="100%" />
<feMerge result="effect1_texture_791_205">
<feMergeNode in="displacedImage"/>
</feMerge>
</filter>
<filter id="filter4_g_791_205" x="107.198" y="311.563" width="60.5396" height="102.542" filterUnits="userSpaceOnUse" color-interpolation-filters="sRGB">
<feFlood flood-opacity="0" result="BackgroundImageFix"/>
<feBlend mode="normal" in="SourceGraphic" in2="BackgroundImageFix" result="shape"/>
<feTurbulence type="fractalNoise" baseFrequency="0.10000000149011612 0.10000000149011612" numOctaves="3" seed="8450" />
<feDisplacementMap in="shape" scale="5.5999999046325684" xChannelSelector="R" yChannelSelector="G" result="displacedImage" width="100%" height="100%" />
<feMerge result="effect1_texture_791_205">
<feMergeNode in="displacedImage"/>
</feMerge>
</filter>
<filter id="filter5_g_791_205" x="77.2013" y="485.721" width="440.065" height="135.598" filterUnits="userSpaceOnUse" color-interpolation-filters="sRGB">
<feFlood flood-opacity="0" result="BackgroundImageFix"/>
<feBlend mode="normal" in="SourceGraphic" in2="BackgroundImageFix" result="shape"/>
<feTurbulence type="fractalNoise" baseFrequency="0.10000000149011612 0.10000000149011612" numOctaves="3" seed="8450" />
<feDisplacementMap in="shape" scale="5.5999999046325684" xChannelSelector="R" yChannelSelector="G" result="displacedImage" width="100%" height="100%" />
<feMerge result="effect1_texture_791_205">
<feMergeNode in="displacedImage"/>
</feMerge>
</filter>
<filter id="filter6_g_791_205" x="506.119" y="497.985" width="99.4693" height="117.601" filterUnits="userSpaceOnUse" color-interpolation-filters="sRGB">
<feFlood flood-opacity="0" result="BackgroundImageFix"/>
<feBlend mode="normal" in="SourceGraphic" in2="BackgroundImageFix" result="shape"/>
<feTurbulence type="fractalNoise" baseFrequency="0.10000000149011612 0.10000000149011612" numOctaves="3" seed="8450" />
<feDisplacementMap in="shape" scale="5.5999999046325684" xChannelSelector="R" yChannelSelector="G" result="displacedImage" width="100%" height="100%" />
<feMerge result="effect1_texture_791_205">
<feMergeNode in="displacedImage"/>
</feMerge>
</filter>
<filter id="filter7_g_791_205" x="63.8651" y="675.565" width="532.368" height="155.333" filterUnits="userSpaceOnUse" color-interpolation-filters="sRGB">
<feFlood flood-opacity="0" result="BackgroundImageFix"/>
<feBlend mode="normal" in="SourceGraphic" in2="BackgroundImageFix" result="shape"/>
<feTurbulence type="fractalNoise" baseFrequency="0.10000000149011612 0.10000000149011612" numOctaves="3" seed="8450" />
<feDisplacementMap in="shape" scale="5.5999999046325684" xChannelSelector="R" yChannelSelector="G" result="displacedImage" width="100%" height="100%" />
<feMerge result="effect1_texture_791_205">
<feMergeNode in="displacedImage"/>
</feMerge>
</filter>
<clipPath id="paint4_diamond_791_205_clip_path"><path d="M593.433 723.636L77.415 678.364L66.6651 800.894L438.763 815.332L466.021 801.845L487.515 819.609L584.268 828.097L593.433 723.636Z"/></clipPath><filter id="filter8_g_791_205" x="2.97942" y="675.659" width="79.4548" height="126.286" filterUnits="userSpaceOnUse" color-interpolation-filters="sRGB">
<feFlood flood-opacity="0" result="BackgroundImageFix"/>
<feBlend mode="normal" in="SourceGraphic" in2="BackgroundImageFix" result="shape"/>
<feTurbulence type="fractalNoise" baseFrequency="0.10000000149011612 0.10000000149011612" numOctaves="3" seed="8450" />
<feDisplacementMap in="shape" scale="5.5999999046325684" xChannelSelector="R" yChannelSelector="G" result="displacedImage" width="100%" height="100%" />
<feMerge result="effect1_texture_791_205">
<feMergeNode in="displacedImage"/>
</feMerge>
</filter>
<linearGradient id="paint0_linear_791_205" x1="28.5" y1="0" x2="28.5" y2="1203" gradientUnits="userSpaceOnUse">
<stop stop-color="#8D6D57"/>
<stop offset="1" stop-color="#FBBC97"/>
</linearGradient>
<linearGradient id="paint1_linear_791_205" x1="277.172" y1="187.286" x2="124.799" y2="187.056" gradientUnits="userSpaceOnUse">
<stop stop-color="#5F7977"/>
<stop offset="1" stop-color="#4B6A68"/>
</linearGradient>
<linearGradient id="paint2_linear_791_205" x1="290.867" y1="354.403" x2="161.429" y2="348.079" gradientUnits="userSpaceOnUse">
<stop stop-color="#535F4C"/>
<stop offset="1" stop-color="#46523C"/>
</linearGradient>
<linearGradient id="paint3_linear_791_205" x1="360.574" y1="546.731" x2="513.258" y2="547.703" gradientUnits="userSpaceOnUse">
<stop stop-color="#835947"/>
<stop offset="1" stop-color="#724F40"/>
</linearGradient>
<linearGradient id="paint4_diamond_791_205" x1="0" y1="0" x2="500" y2="500" gradientUnits="userSpaceOnUse">
<stop stop-color="#A2886A"/>
<stop offset="1" stop-color="#D2A169"/>
</linearGradient>
</defs>
</svg>
