<svg width="603" height="944" viewBox="0 0 603 944" fill="none" xmlns="http://www.w3.org/2000/svg">
<g filter="url(#filter0_g_791_176)">
<rect width="50.6307" height="938" transform="matrix(-1 0 0 1 335.897 2.80005)" fill="url(#paint0_linear_791_176)"/>
</g>
<g filter="url(#filter1_g_791_176)">
<rect width="534.497" height="93.1708" transform="matrix(-0.997988 -0.0633986 -0.013129 0.999914 537.445 116.63)" fill="#D9D9D9"/>
<rect width="534.497" height="93.1708" transform="matrix(-0.997988 -0.0633986 -0.013129 0.999914 537.445 116.63)" fill="url(#paint1_linear_791_176)"/>
</g>
<g filter="url(#filter2_g_791_176)">
<path d="M536.091 116.704L589.462 166.92L535.024 209.882L536.091 116.704Z" fill="#AC8B73"/>
</g>
<g filter="url(#filter3_g_791_176)">
<path d="M479.523 270.39L158.002 251.021L111.352 250.933L59.2333 251.769L90.1851 300.754L55.2072 347.317L475.497 365.938L479.523 270.39Z" fill="#D9D9D9"/>
<path d="M479.523 270.39L158.002 251.021L111.352 250.933L59.2333 251.769L90.1851 300.754L55.2072 347.317L475.497 365.938L479.523 270.39Z" fill="url(#paint2_linear_791_176)"/>
</g>
<g filter="url(#filter4_g_791_176)">
<path d="M476.461 271.56L566.538 325.82L472.668 367.124L476.461 271.56Z" fill="#B08D8D"/>
<path d="M476.461 271.56L566.538 325.82L472.668 367.124L476.461 271.56Z" fill="url(#paint3_linear_791_176)"/>
</g>
<path d="M55.9868 141.958L57.6628 112.606L71.4164 113.392C74.9387 113.593 77.5824 114.445 79.3476 115.948C81.1144 117.423 81.9315 119.321 81.799 121.641C81.7096 123.206 81.2696 124.527 80.4789 125.604C79.6899 126.653 78.6628 127.45 77.3977 127.994C76.1621 128.513 74.8315 128.731 73.4058 128.65L74.2468 127.183C75.8961 127.278 77.3601 127.67 78.6389 128.36C79.9192 129.022 80.904 129.947 81.5934 131.137C82.3106 132.327 82.6206 133.776 82.5232 135.481C82.3795 137.997 81.3034 139.898 79.2947 141.186C77.286 142.474 74.3808 143.009 70.579 142.792L55.9868 141.958ZM61.6821 137.993L70.4878 138.496C72.5284 138.612 74.113 138.366 75.2416 137.757C76.3701 137.149 76.9767 136.104 77.0613 134.622C77.1443 133.168 76.6598 132.075 75.6079 131.342C74.5576 130.581 73.0121 130.142 70.9714 130.025L61.7465 129.499L61.9883 125.263L70.123 125.728C72.0239 125.836 73.4967 125.584 74.5414 124.971C75.614 124.359 76.1887 123.382 76.2653 122.04C76.3435 120.67 75.8846 119.62 74.8886 118.891C73.9205 118.162 72.4861 117.744 70.5852 117.635L62.8697 117.195L61.6821 137.993ZM97.8909 144.646C95.4029 144.504 93.2504 143.89 91.4333 142.805C89.6458 141.693 88.2844 140.241 87.349 138.449C86.4416 136.658 86.051 134.659 86.1771 132.45C86.3048 130.214 86.9065 128.271 87.9823 126.622C89.0876 124.946 90.5348 123.668 92.3239 122.789C94.1409 121.911 96.1676 121.536 98.4039 121.664C100.584 121.788 102.5 122.374 104.151 123.422C105.802 124.47 107.067 125.888 107.947 127.677C108.826 129.466 109.199 131.535 109.065 133.883C109.052 134.107 109.024 134.358 108.98 134.636C108.964 134.915 108.934 135.18 108.892 135.43L90.2326 134.364L90.4313 130.884L106.323 131.792L104.206 132.764C104.308 131.48 104.107 130.333 103.604 129.323C103.101 128.312 102.376 127.5 101.429 126.885C100.511 126.271 99.4224 125.929 98.1645 125.857C96.8786 125.783 95.7305 125.998 94.7201 126.501C93.7377 127.006 92.9383 127.746 92.3217 128.72C91.7347 129.668 91.4029 130.813 91.3263 132.155L91.2784 132.994C91.2018 134.336 91.4414 135.541 91.9974 136.611C92.5533 137.68 93.3744 138.526 94.4607 139.149C95.5469 139.772 96.8169 140.125 98.2705 140.208C99.5284 140.28 100.672 140.149 101.7 139.815C102.729 139.481 103.659 138.917 104.489 138.123L107.115 141.512C106.041 142.629 104.717 143.465 103.143 144.02C101.598 144.549 99.8477 144.757 97.8909 144.646ZM120.369 145.929C118.496 145.822 116.707 145.482 115.001 144.908C113.324 144.307 112.003 143.629 111.036 142.872L113.277 139.004C114.246 139.704 115.418 140.304 116.792 140.803C118.165 141.302 119.551 141.592 120.949 141.671C122.598 141.766 123.799 141.61 124.551 141.204C125.332 140.8 125.743 140.22 125.787 139.466C125.822 138.851 125.596 138.375 125.111 138.039C124.627 137.675 123.984 137.386 123.183 137.171C122.382 136.957 121.482 136.752 120.484 136.555C119.513 136.359 118.531 136.121 117.538 135.839C116.574 135.532 115.699 135.132 114.914 134.638C114.131 134.116 113.51 133.45 113.051 132.638C112.593 131.827 112.4 130.778 112.473 129.492C112.555 128.067 113.03 126.86 113.9 125.872C114.771 124.856 115.95 124.11 117.436 123.634C118.951 123.131 120.715 122.938 122.727 123.053C124.237 123.139 125.751 123.393 127.269 123.817C128.787 124.24 130.032 124.788 131.003 125.46L128.763 129.329C127.738 128.625 126.686 128.13 125.609 127.845C124.561 127.532 123.506 127.346 122.443 127.285C120.85 127.194 119.648 127.364 118.839 127.795C118.057 128.227 117.645 128.806 117.603 129.533C117.565 130.204 117.788 130.721 118.272 131.086C118.756 131.45 119.398 131.753 120.197 131.995C120.997 132.237 121.882 132.456 122.852 132.651C123.852 132.821 124.834 133.059 125.798 133.366C126.762 133.674 127.637 134.074 128.422 134.568C129.237 135.035 129.873 135.674 130.332 136.486C130.79 137.297 130.984 138.332 130.912 139.59C130.832 140.988 130.343 142.18 129.446 143.166C128.576 144.154 127.369 144.899 125.826 145.4C124.285 145.872 122.466 146.049 120.369 145.929ZM143.459 147.248C140.999 147.107 139.134 146.37 137.864 145.035C136.595 143.673 136.032 141.747 136.174 139.26L137.321 119.174L142.563 119.474L141.423 139.433C141.362 140.495 141.581 141.335 142.078 141.952C142.604 142.571 143.356 142.909 144.334 142.965C145.509 143.032 146.504 142.78 147.322 142.21L148.577 146.026C147.933 146.494 147.157 146.828 146.248 147.028C145.339 147.229 144.409 147.302 143.459 147.248ZM133.1 128.272L133.339 124.079L148.267 124.932L148.027 129.125L133.1 128.272ZM170.806 132.613L185.44 133.449L185.177 138.061L170.542 137.226L170.806 132.613ZM170.362 148.49L164.911 148.178L166.587 118.826L188.014 120.05L187.753 124.62L171.777 123.708L170.362 148.49ZM201 150.534C198.512 150.391 196.36 149.778 194.543 148.692C192.755 147.581 191.394 146.129 190.458 144.336C189.551 142.546 189.16 140.546 189.286 138.338C189.414 136.102 190.016 134.159 191.092 132.509C192.197 130.834 193.644 129.556 195.433 128.677C197.25 127.799 199.277 127.424 201.513 127.551C203.694 127.676 205.609 128.262 207.26 129.31C208.911 130.358 210.177 131.776 211.056 133.565C211.935 135.354 212.308 137.423 212.174 139.771C212.161 139.995 212.133 140.245 212.089 140.523C212.073 140.803 212.044 141.068 212.002 141.318L193.342 140.252L193.541 136.772L209.433 137.679L207.316 138.652C207.417 137.368 207.216 136.221 206.713 135.21C206.21 134.2 205.485 133.387 204.539 132.772C203.62 132.159 202.532 131.816 201.274 131.745C199.988 131.671 198.84 131.886 197.83 132.389C196.847 132.894 196.048 133.634 195.431 134.608C194.844 135.556 194.512 136.701 194.436 138.043L194.388 138.882C194.311 140.223 194.551 141.429 195.107 142.498C195.663 143.568 196.484 144.414 197.57 145.037C198.656 145.66 199.926 146.013 201.38 146.096C202.638 146.168 203.781 146.037 204.81 145.703C205.839 145.369 206.768 144.805 207.599 144.011L210.224 147.4C209.15 148.517 207.827 149.353 206.252 149.908C204.708 150.437 202.957 150.645 201 150.534ZM246.132 130.099C247.921 130.201 249.48 130.641 250.81 131.418C252.168 132.197 253.197 133.335 253.896 134.834C254.598 136.304 254.884 138.171 254.754 140.436L254.022 153.267L248.78 152.967L249.475 140.807C249.588 138.822 249.239 137.316 248.428 136.288C247.618 135.26 246.402 134.7 244.78 134.608C243.634 134.542 242.6 134.735 241.676 135.187C240.781 135.641 240.054 136.343 239.495 137.293C238.964 138.244 238.655 139.474 238.569 140.984L237.92 152.347L232.678 152.048L233.373 139.888C233.486 137.903 233.137 136.397 232.327 135.369C231.516 134.341 230.3 133.781 228.679 133.688C227.532 133.623 226.498 133.816 225.574 134.268C224.679 134.722 223.952 135.423 223.393 136.373C222.862 137.324 222.553 138.555 222.467 140.064L221.818 151.428L216.577 151.129L217.855 128.737L222.845 129.022L222.505 134.976L221.725 133.165C222.563 131.754 223.716 130.712 225.185 130.039C226.682 129.367 228.353 129.084 230.198 129.189C232.294 129.309 234.082 129.93 235.56 131.052C237.066 132.176 238.011 133.8 238.395 135.926L236.381 135.095C237.203 133.46 238.482 132.187 240.217 131.276C241.952 130.365 243.923 129.973 246.132 130.099ZM274.515 154.437L274.774 149.908L274.535 148.927L274.988 141.002C275.076 139.465 274.682 138.25 273.808 137.359C272.935 136.44 271.562 135.926 269.689 135.819C268.431 135.748 267.176 135.872 265.923 136.193C264.699 136.516 263.647 137.003 262.769 137.654L260.932 133.721C262.187 132.867 263.652 132.264 265.326 131.91C267.031 131.531 268.778 131.392 270.567 131.495C273.809 131.68 276.267 132.605 277.938 134.271C279.64 135.911 280.398 138.352 280.212 141.595L279.463 154.719L274.515 154.437ZM267.454 154.328C265.777 154.232 264.325 153.869 263.099 153.238C261.874 152.579 260.942 151.727 260.3 150.68C259.688 149.608 259.419 148.429 259.493 147.143C259.564 145.885 259.923 144.769 260.567 143.796C261.239 142.825 262.277 142.085 263.681 141.576C265.084 141.068 266.918 140.878 269.182 141.007L275.681 141.378L275.483 144.859L269.361 144.509C267.572 144.407 266.353 144.632 265.704 145.184C265.057 145.708 264.71 146.389 264.662 147.227C264.608 148.178 264.942 148.954 265.665 149.556C266.388 150.159 267.42 150.498 268.762 150.575C270.048 150.648 271.211 150.42 272.251 149.89C273.318 149.362 274.109 148.538 274.621 147.418L275.322 150.613C274.744 151.898 273.777 152.866 272.422 153.518C271.095 154.171 269.439 154.442 267.454 154.328ZM286.19 155.104L287.966 123.99L293.208 124.29L291.431 155.403L286.19 155.104ZM308.819 156.69C306.331 156.548 304.178 155.934 302.361 154.849C300.574 153.737 299.212 152.285 298.277 150.493C297.37 148.703 296.979 146.703 297.105 144.495C297.233 142.258 297.834 140.315 298.91 138.666C300.016 136.99 301.463 135.713 303.252 134.833C305.069 133.955 307.095 133.58 309.332 133.708C311.512 133.833 313.428 134.419 315.079 135.467C316.73 136.514 317.995 137.933 318.874 139.722C319.754 141.511 320.127 143.58 319.993 145.928C319.98 146.151 319.951 146.402 319.907 146.68C319.892 146.96 319.862 147.224 319.82 147.474L301.16 146.409L301.359 142.929L317.251 143.836L315.134 144.809C315.236 143.525 315.035 142.377 314.532 141.367C314.028 140.357 313.304 139.544 312.357 138.929C311.439 138.316 310.35 137.973 309.092 137.901C307.806 137.828 306.658 138.043 305.648 138.546C304.666 139.051 303.866 139.79 303.25 140.765C302.663 141.713 302.331 142.858 302.254 144.2L302.206 145.038C302.13 146.38 302.369 147.586 302.925 148.655C303.481 149.725 304.302 150.571 305.389 151.194C306.475 151.817 307.745 152.17 309.198 152.253C310.456 152.324 311.6 152.193 312.628 151.86C313.657 151.526 314.587 150.962 315.417 150.168L318.042 153.557C316.969 154.674 315.645 155.509 314.071 156.065C312.526 156.593 310.776 156.802 308.819 156.69ZM358.793 129.802L364.244 130.113L362.568 159.465L357.117 159.154L358.793 129.802ZM341.938 158.287L336.487 157.976L338.163 128.623L343.614 128.935L341.938 158.287ZM358.255 146.598L342.195 145.681L342.461 141.027L358.521 141.944L358.255 146.598ZM383.726 160.673L383.984 156.144L383.746 155.163L384.199 147.238C384.286 145.701 383.893 144.486 383.018 143.595C382.145 142.676 380.772 142.163 378.899 142.056C377.641 141.984 376.386 142.108 375.134 142.43C373.91 142.752 372.858 143.239 371.98 143.89L370.143 139.957C371.398 139.103 372.862 138.5 374.537 138.147C376.242 137.767 377.988 137.629 379.777 137.731C383.02 137.916 385.477 138.841 387.149 140.507C388.85 142.147 389.608 144.588 389.423 147.831L388.674 160.956L383.726 160.673ZM376.665 160.564C374.987 160.469 373.536 160.105 372.31 159.474C371.085 158.815 370.152 157.963 369.511 156.917C368.899 155.844 368.63 154.665 368.703 153.379C368.775 152.121 369.133 151.005 369.778 150.033C370.45 149.061 371.488 148.321 372.891 147.813C374.295 147.304 376.129 147.114 378.393 147.243L384.892 147.614L384.694 151.095L378.571 150.745C376.782 150.643 375.564 150.868 374.915 151.42C374.268 151.944 373.921 152.625 373.873 153.464C373.819 154.414 374.153 155.19 374.876 155.793C375.599 156.395 376.631 156.734 377.973 156.811C379.259 156.884 380.421 156.656 381.461 156.127C382.529 155.599 383.319 154.774 383.832 153.654L384.533 156.849C383.955 158.134 382.988 159.103 381.633 159.754C380.305 160.408 378.649 160.678 376.665 160.564ZM405.698 162.222C403.35 162.088 401.281 161.479 399.492 160.395C397.732 159.285 396.385 157.834 395.45 156.042C394.514 154.25 394.11 152.249 394.236 150.041C394.364 147.805 394.993 145.863 396.125 144.217C397.258 142.543 398.761 141.269 400.634 140.394C402.535 139.521 404.66 139.152 407.008 139.286C409.188 139.41 411.078 139.967 412.676 140.955C414.304 141.918 415.502 143.276 416.271 145.031L412.112 147.149C411.502 146.049 410.722 145.219 409.772 144.66C408.85 144.102 407.83 143.792 406.712 143.728C405.426 143.655 404.25 143.868 403.184 144.368C402.118 144.868 401.261 145.632 400.613 146.661C399.967 147.662 399.602 148.889 399.519 150.343C399.436 151.796 399.658 153.071 400.184 154.167C400.712 155.235 401.477 156.078 402.48 156.696C403.482 157.314 404.626 157.66 405.912 157.733C407.03 157.797 408.079 157.604 409.058 157.156C410.065 156.708 410.935 155.973 411.666 154.949L415.558 157.527C414.595 159.154 413.249 160.382 411.519 161.208C409.819 162.009 407.878 162.347 405.698 162.222ZM424.163 157.976L424.665 151.4L436.982 141.25L443.272 141.609L432.764 151.021L429.865 153.169L424.163 157.976ZM419.601 162.722L421.378 131.608L426.619 131.908L424.843 163.021L419.601 162.722ZM436.5 163.687L428.9 153.114L432.452 149.11L442.873 164.051L436.5 163.687ZM455.866 165.087C453.378 164.945 451.226 164.331 449.409 163.246C447.621 162.134 446.26 160.682 445.324 158.89C444.417 157.099 444.026 155.1 444.153 152.891C444.28 150.655 444.882 148.712 445.958 147.063C447.063 145.387 448.51 144.11 450.299 143.23C452.116 142.352 454.143 141.977 456.379 142.105C458.56 142.229 460.476 142.816 462.126 143.863C463.777 144.911 465.043 146.33 465.922 148.119C466.801 149.908 467.174 151.976 467.04 154.324C467.027 154.548 466.999 154.799 466.955 155.077C466.939 155.356 466.91 155.621 466.868 155.871L448.208 154.806L448.407 151.325L464.299 152.233L462.182 153.206C462.283 151.921 462.082 150.774 461.579 149.764C461.076 148.753 460.351 147.941 459.405 147.326C458.486 146.712 457.398 146.37 456.14 146.298C454.854 146.225 453.706 146.439 452.696 146.943C451.713 147.448 450.914 148.187 450.297 149.162C449.71 150.11 449.378 151.255 449.302 152.596L449.254 153.435C449.177 154.777 449.417 155.982 449.973 157.052C450.529 158.121 451.35 158.968 452.436 159.59C453.522 160.213 454.792 160.566 456.246 160.649C457.504 160.721 458.647 160.59 459.676 160.256C460.705 159.922 461.634 159.358 462.465 158.565L465.09 161.954C464.017 163.07 462.693 163.906 461.119 164.461C459.574 164.99 457.823 165.199 455.866 165.087ZM471.443 165.682L472.721 143.29L477.711 143.575L477.359 149.739L476.875 147.903C477.632 146.432 478.746 145.345 480.216 144.644C481.715 143.944 483.54 143.656 485.693 143.779L485.408 148.769C485.187 148.7 484.979 148.66 484.783 148.649C484.589 148.61 484.394 148.585 484.199 148.573C482.214 148.46 480.601 148.957 479.36 150.064C478.12 151.143 477.435 152.829 477.304 155.121L476.684 165.981L471.443 165.682Z" fill="#FDEFE8"/>
<path d="M128.866 311.26L120.495 281.44L126.159 281.703L133.611 308.663L130.8 308.533L141.053 282.394L146.088 282.628L153.624 309.592L150.897 309.466L161.023 283.321L166.226 283.562L155.129 312.479L149.34 312.21L142.438 287.882L143.948 287.952L134.697 311.531L128.866 311.26ZM177.178 313.797C174.885 313.69 172.866 313.106 171.121 312.044C169.378 310.954 168.029 309.518 167.075 307.736C166.12 305.954 165.694 303.958 165.797 301.748C165.901 299.51 166.51 297.563 167.624 295.904C168.739 294.218 170.214 292.927 172.05 292.031C173.885 291.136 175.95 290.741 178.243 290.847C180.565 290.955 182.598 291.54 184.343 292.602C186.115 293.665 187.465 295.073 188.393 296.826C189.349 298.58 189.774 300.59 189.669 302.856C189.567 305.065 188.958 307.013 187.842 308.699C186.755 310.387 185.279 311.692 183.414 312.614C181.578 313.51 179.5 313.904 177.178 313.797ZM177.387 309.307C178.673 309.367 179.833 309.141 180.866 308.628C181.899 308.115 182.72 307.341 183.328 306.304C183.965 305.268 184.317 304.037 184.383 302.611C184.45 301.156 184.214 299.898 183.675 298.836C183.165 297.747 182.419 296.899 181.438 296.293C180.457 295.687 179.338 295.355 178.079 295.296C176.792 295.237 175.633 295.463 174.6 295.976C173.595 296.49 172.774 297.265 172.137 298.3C171.502 299.308 171.151 300.539 171.083 301.993C171.017 303.42 171.253 304.678 171.791 305.768C172.329 306.858 173.074 307.706 174.027 308.311C175.008 308.917 176.128 309.249 177.387 309.307ZM223.493 292.947C225.283 293.03 226.847 293.453 228.185 294.216C229.551 294.98 230.592 296.108 231.308 297.598C232.025 299.061 232.331 300.925 232.226 303.191L231.63 316.029L226.385 315.786L226.95 303.619C227.042 301.633 226.678 300.131 225.856 299.111C225.034 298.092 223.812 297.545 222.19 297.47C221.043 297.416 220.011 297.621 219.092 298.083C218.202 298.546 217.482 299.255 216.933 300.211C216.412 301.168 216.117 302.401 216.047 303.912L215.519 315.282L210.275 315.038L210.839 302.871C210.932 300.885 210.567 299.383 209.745 298.364C208.924 297.345 207.702 296.797 206.079 296.722C204.933 296.669 203.9 296.873 202.982 297.335C202.091 297.798 201.372 298.508 200.823 299.463C200.302 300.42 200.006 301.654 199.936 303.164L199.408 314.534L194.164 314.291L195.204 291.887L200.196 292.118L199.92 298.076L199.121 296.273C199.943 294.854 201.085 293.799 202.547 293.11C204.036 292.423 205.704 292.122 207.55 292.207C209.648 292.305 211.442 292.907 212.932 294.013C214.451 295.12 215.413 296.735 215.819 298.856L213.796 298.047C214.601 296.403 215.866 295.116 217.591 294.187C219.316 293.258 221.283 292.845 223.493 292.947ZM248.889 317.125C246.4 317.009 244.241 316.418 242.413 315.352C240.613 314.26 239.237 312.822 238.282 311.04C237.356 309.259 236.944 307.264 237.046 305.055C237.15 302.817 237.731 300.868 238.789 299.207C239.877 297.52 241.31 296.227 243.09 295.328C244.897 294.431 246.92 294.034 249.157 294.138C251.339 294.239 253.261 294.805 254.923 295.835C256.585 296.865 257.865 298.27 258.764 300.05C259.662 301.829 260.057 303.894 259.948 306.243C259.937 306.467 259.912 306.718 259.871 306.997C259.858 307.276 259.831 307.541 259.792 307.792L241.122 306.925L241.283 303.443L257.184 304.181L255.078 305.177C255.166 303.891 254.953 302.746 254.439 301.741C253.925 300.736 253.191 299.931 252.238 299.327C251.313 298.723 250.221 298.392 248.963 298.334C247.676 298.274 246.53 298.501 245.525 299.015C244.548 299.53 243.757 300.278 243.151 301.259C242.574 302.214 242.254 303.362 242.192 304.705L242.153 305.544C242.091 306.886 242.343 308.089 242.911 309.153C243.478 310.216 244.308 311.054 245.401 311.665C246.494 312.276 247.767 312.616 249.222 312.683C250.48 312.742 251.622 312.598 252.647 312.253C253.672 311.909 254.596 311.335 255.418 310.532L258.079 313.893C257.018 315.021 255.703 315.871 254.135 316.443C252.596 316.988 250.847 317.215 248.889 317.125ZM278.235 295.488C280.025 295.571 281.603 295.994 282.969 296.758C284.363 297.524 285.432 298.653 286.176 300.145C286.921 301.609 287.24 303.474 287.135 305.739L286.54 318.577L281.295 318.334L281.86 306.167C281.952 304.181 281.545 302.677 280.64 301.654C279.762 300.632 278.484 300.082 276.806 300.004C275.575 299.947 274.473 300.148 273.499 300.608C272.524 301.067 271.748 301.788 271.17 302.77C270.621 303.726 270.311 304.958 270.241 306.469L269.716 317.797L264.471 317.553L265.511 295.149L270.504 295.381L270.223 301.423L269.428 299.536C270.277 298.146 271.461 297.107 272.978 296.421C274.525 295.708 276.277 295.397 278.235 295.488ZM292.458 300.394L295.323 291.193L295.891 294.373C294.912 294.327 294.101 293.981 293.458 293.335C292.843 292.69 292.56 291.85 292.608 290.815C292.656 289.78 293.016 288.97 293.688 288.384C294.389 287.772 295.215 287.488 296.166 287.532C297.145 287.578 297.941 287.937 298.555 288.61C299.168 289.283 299.451 290.123 299.405 291.13C299.39 291.438 299.347 291.758 299.276 292.091C299.234 292.398 299.133 292.757 298.974 293.171C298.844 293.557 298.624 294.065 298.314 294.696L295.856 300.552L292.458 300.394ZM309.443 319.935C307.569 319.848 305.776 319.526 304.064 318.97C302.381 318.388 301.052 317.723 300.078 316.977L302.277 313.085C303.254 313.775 304.432 314.362 305.811 314.847C307.19 315.331 308.578 315.606 309.977 315.671C311.627 315.747 312.826 315.579 313.574 315.165C314.35 314.753 314.756 314.169 314.791 313.414C314.819 312.798 314.589 312.325 314.1 311.994C313.612 311.635 312.966 311.353 312.163 311.147C311.36 310.942 310.458 310.746 309.457 310.559C308.485 310.374 307.5 310.146 306.504 309.876C305.537 309.578 304.658 309.187 303.867 308.702C303.078 308.189 302.45 307.529 301.983 306.723C301.516 305.916 301.312 304.87 301.372 303.583C301.438 302.156 301.901 300.945 302.76 299.947C303.621 298.922 304.791 298.164 306.271 297.672C307.781 297.153 309.543 296.941 311.557 297.034C313.067 297.104 314.584 297.343 316.106 297.75C317.629 298.157 318.88 298.691 319.858 299.353L317.659 303.246C316.626 302.553 315.57 302.069 314.489 301.795C313.438 301.494 312.381 301.319 311.318 301.269C309.724 301.195 308.524 301.378 307.719 301.817C306.942 302.258 306.536 302.841 306.502 303.569C306.471 304.24 306.699 304.755 307.187 305.114C307.675 305.473 308.32 305.769 309.122 306.003C309.924 306.236 310.812 306.446 311.784 306.631C312.786 306.789 313.77 307.017 314.737 307.314C315.705 307.612 316.584 308.003 317.374 308.488C318.194 308.946 318.837 309.579 319.304 310.385C319.771 311.192 319.975 312.225 319.917 313.483C319.852 314.882 319.376 316.079 318.489 317.075C317.63 318.072 316.431 318.829 314.894 319.347C313.358 319.836 311.54 320.032 309.443 319.935ZM336.224 320.883L337.587 291.515L343.041 291.768L341.678 321.136L336.224 320.883ZM356.027 322.096C354.153 322.009 352.36 321.688 350.648 321.132C348.966 320.549 347.637 319.885 346.662 319.139L348.861 315.247C349.838 315.937 351.016 316.524 352.395 317.009C353.774 317.493 355.163 317.768 356.562 317.833C358.212 317.909 359.411 317.741 360.159 317.327C360.935 316.914 361.34 316.331 361.375 315.575C361.404 314.96 361.174 314.487 360.684 314.156C360.197 313.797 359.551 313.515 358.748 313.309C357.944 313.104 357.042 312.908 356.042 312.721C355.07 312.536 354.085 312.308 353.089 312.037C352.121 311.74 351.242 311.349 350.452 310.864C349.663 310.351 349.035 309.691 348.568 308.884C348.101 308.078 347.897 307.031 347.957 305.745C348.023 304.318 348.486 303.106 349.345 302.109C350.205 301.084 351.376 300.325 352.856 299.833C354.366 299.315 356.127 299.102 358.141 299.196C359.652 299.266 361.168 299.504 362.691 299.912C364.214 300.319 365.464 300.853 366.443 301.515L364.244 305.407C363.211 304.715 362.154 304.231 361.074 303.957C360.023 303.656 358.966 303.481 357.903 303.431C356.308 303.357 355.109 303.54 354.303 303.979C353.526 304.419 353.121 305.003 353.087 305.731C353.056 306.402 353.284 306.917 353.772 307.276C354.26 307.635 354.905 307.931 355.707 308.165C356.509 308.398 357.396 308.607 358.369 308.793C359.37 308.951 360.355 309.179 361.322 309.476C362.289 309.773 363.168 310.165 363.959 310.65C364.778 311.108 365.422 311.741 365.889 312.547C366.356 313.354 366.56 314.386 366.502 315.645C366.437 317.044 365.961 318.241 365.074 319.237C364.215 320.234 363.016 320.991 361.478 321.509C359.942 321.998 358.125 322.194 356.027 322.096ZM377.619 323.098C375.745 323.012 373.952 322.69 372.24 322.134C370.557 321.551 369.229 320.887 368.254 320.141L370.453 316.249C371.43 316.939 372.608 317.526 373.987 318.011C375.366 318.495 376.755 318.77 378.154 318.835C379.804 318.911 381.003 318.743 381.751 318.329C382.527 317.916 382.932 317.333 382.967 316.577C382.996 315.962 382.766 315.489 382.276 315.158C381.789 314.799 381.143 314.517 380.34 314.311C379.536 314.106 378.634 313.91 377.634 313.723C376.662 313.538 375.677 313.31 374.681 313.039C373.713 312.742 372.834 312.351 372.044 311.866C371.255 311.353 370.627 310.693 370.16 309.886C369.693 309.08 369.489 308.033 369.549 306.747C369.615 305.32 370.078 304.108 370.937 303.111C371.797 302.086 372.968 301.327 374.448 300.836C375.958 300.317 377.719 300.104 379.733 300.198C381.244 300.268 382.76 300.506 384.283 300.914C385.806 301.321 387.056 301.855 388.035 302.517L385.836 306.409C384.803 305.717 383.746 305.233 382.666 304.959C381.615 304.658 380.558 304.483 379.495 304.433C377.9 304.359 376.701 304.542 375.895 304.981C375.118 305.422 374.713 306.005 374.679 306.733C374.648 307.404 374.876 307.919 375.364 308.278C375.852 308.637 376.497 308.933 377.299 309.167C378.101 309.4 378.988 309.609 379.961 309.795C380.962 309.953 381.947 310.181 382.914 310.478C383.881 310.776 384.76 311.167 385.551 311.652C386.37 312.11 387.014 312.743 387.481 313.549C387.948 314.356 388.152 315.388 388.094 316.647C388.029 318.046 387.553 319.243 386.666 320.239C385.807 321.236 384.608 321.993 383.07 322.511C381.534 323 379.717 323.196 377.619 323.098ZM401.771 324.219C399.869 324.131 398.207 323.703 396.785 322.937C395.364 322.142 394.282 320.999 393.538 319.507C392.796 317.987 392.477 316.108 392.58 313.87L393.174 301.074L398.419 301.317L397.858 313.4C397.764 315.414 398.142 316.945 398.99 317.994C399.868 319.015 401.146 319.565 402.824 319.643C404.055 319.7 405.129 319.498 406.047 319.036C406.994 318.575 407.742 317.853 408.292 316.87C408.87 315.887 409.194 314.655 409.263 313.173L409.788 301.845L415.033 302.088L413.993 324.492L409 324.26L409.281 318.219L410.076 320.106C409.254 321.525 408.097 322.593 406.606 323.308C405.117 323.996 403.505 324.3 401.771 324.219ZM431.377 325.593C428.887 325.478 426.728 324.887 424.9 323.821C423.101 322.728 421.724 321.291 420.769 319.509C419.843 317.728 419.431 315.733 419.533 313.523C419.637 311.286 420.218 309.336 421.276 307.676C422.364 305.988 423.797 304.695 425.577 303.797C427.384 302.9 429.407 302.503 431.645 302.607C433.826 302.708 435.748 303.274 437.41 304.304C439.072 305.334 440.352 306.739 441.251 308.519C442.149 310.298 442.544 312.363 442.435 314.712C442.425 314.936 442.399 315.187 442.358 315.465C442.345 315.745 442.319 316.01 442.279 316.261L423.609 315.394L423.771 311.912L439.672 312.65L437.565 313.645C437.653 312.36 437.44 311.215 436.926 310.21C436.412 309.205 435.678 308.4 434.725 307.795C433.8 307.192 432.708 306.861 431.45 306.802C430.163 306.743 429.017 306.97 428.013 307.484C427.036 307.999 426.244 308.747 425.638 309.728C425.061 310.682 424.741 311.831 424.679 313.173L424.64 314.012C424.578 315.355 424.83 316.558 425.398 317.621C425.965 318.685 426.795 319.522 427.888 320.134C428.981 320.745 430.254 321.084 431.709 321.152C432.968 321.21 434.109 321.067 435.134 320.722C436.16 320.377 437.083 319.803 437.905 319.001L440.566 322.362C439.505 323.49 438.19 324.34 436.622 324.912C435.083 325.457 433.335 325.684 431.377 325.593Z" fill="#FDEFE8"/>
<g filter="url(#filter5_g_791_176)">
<path d="M464.989 580.692L186.979 590.457L184.677 677.996L320.124 679.369L359.32 677.993L435.148 680.655C442.31 671.921 455.459 672.081 461.326 680.974L467.397 690.174L464.989 580.692Z" fill="#D9D9D9"/>
<g clip-path="url(#paint4_diamond_791_176_clip_path)" data-figma-skip-parse="true"><g transform="matrix(-0.151887 0.00445323 0.00158136 0.0539356 337.884 623.319)"><rect x="0" y="0" width="1033.42" height="1357.89" fill="url(#paint4_diamond_791_176)" opacity="1" shape-rendering="crispEdges"/><rect x="0" y="0" width="1033.42" height="1357.89" transform="scale(1 -1)" fill="url(#paint4_diamond_791_176)" opacity="1" shape-rendering="crispEdges"/><rect x="0" y="0" width="1033.42" height="1357.89" transform="scale(-1 1)" fill="url(#paint4_diamond_791_176)" opacity="1" shape-rendering="crispEdges"/><rect x="0" y="0" width="1033.42" height="1357.89" transform="scale(-1)" fill="url(#paint4_diamond_791_176)" opacity="1" shape-rendering="crispEdges"/></g></g><path d="M464.989 580.692L186.979 590.457L184.677 677.996L320.124 679.369L359.32 677.993L435.148 680.655C442.31 671.921 455.459 672.081 461.326 680.974L467.397 690.174L464.989 580.692Z" data-figma-gradient-fill="{&#34;type&#34;:&#34;GRADIENT_DIAMOND&#34;,&#34;stops&#34;:[{&#34;color&#34;:{&#34;r&#34;:0.85411655902862549,&#34;g&#34;:0.61727255582809448,&#34;b&#34;:0.50581640005111694,&#34;a&#34;:1.0},&#34;position&#34;:0.0},{&#34;color&#34;:{&#34;r&#34;:0.67957484722137451,&#34;g&#34;:0.41124692559242249,&#34;b&#34;:0.28689983487129211,&#34;a&#34;:1.0},&#34;position&#34;:1.0}],&#34;stopsVar&#34;:[{&#34;color&#34;:{&#34;r&#34;:0.85411655902862549,&#34;g&#34;:0.61727255582809448,&#34;b&#34;:0.50581640005111694,&#34;a&#34;:1.0},&#34;position&#34;:0.0},{&#34;color&#34;:{&#34;r&#34;:0.67957484722137451,&#34;g&#34;:0.41124692559242249,&#34;b&#34;:0.28689983487129211,&#34;a&#34;:1.0},&#34;position&#34;:1.0}],&#34;transform&#34;:{&#34;m00&#34;:-303.77313232421875,&#34;m01&#34;:3.1627228260040283,&#34;m02&#34;:488.18939208984375,&#34;m10&#34;:8.9064569473266602,&#34;m11&#34;:107.87120819091797,&#34;m12&#34;:564.9299316406250},&#34;opacity&#34;:1.0,&#34;blendMode&#34;:&#34;NORMAL&#34;,&#34;visible&#34;:true}"/>
</g>
<g filter="url(#filter6_g_791_176)">
<path d="M189.016 590.065L146.867 629.208L186.752 676.175L189.016 590.065Z" fill="#AD6949"/>
</g>
<path d="M268.793 648.859C264.762 648.948 261.574 647.884 259.228 645.668C256.91 643.451 255.704 640.201 255.609 635.918L255.241 619.332L260.7 619.211L261.063 635.587C261.13 638.61 261.822 640.793 263.141 642.136C264.487 643.479 266.349 644.124 268.729 644.071C271.108 644.018 272.927 643.291 274.184 641.891C275.441 640.491 276.036 638.279 275.969 635.256L275.606 618.88L280.981 618.761L281.349 635.347C281.444 639.63 280.368 642.93 278.123 645.249C275.906 647.566 272.796 648.77 268.793 648.859ZM289.277 647.984L288.625 618.591L294.084 618.47L294.736 647.863L289.277 647.984ZM297.573 652.001L310.552 612.139L315.255 612.035L302.275 651.897L297.573 652.001ZM330.916 647.48C326.885 647.57 323.697 646.506 321.351 644.29C319.034 642.073 317.827 638.823 317.732 634.54L317.364 617.954L322.823 617.833L323.186 634.209C323.253 637.232 323.946 639.415 325.264 640.758C326.61 642.101 328.473 642.745 330.852 642.693C333.232 642.64 335.05 641.913 336.307 640.513C337.565 639.113 338.16 636.901 338.093 633.878L337.729 617.502L343.104 617.383L343.472 633.969C343.567 638.252 342.492 641.552 340.247 643.871C338.03 646.188 334.919 647.392 330.916 647.48ZM347.422 646.694L359.43 629.372L359.522 633.487L347.357 617.288L353.53 617.151L362.576 629.134L360.057 629.232L368.478 616.82L374.399 616.689L363.042 633.114L362.955 629.167L375.807 646.065L369.508 646.204L359.984 633.476L362.461 633.421L353.636 646.556L347.422 646.694Z" fill="#FDEFE8"/>
<g filter="url(#filter7_g_791_176)">
<path d="M81.0196 419.855L451.597 440.774L449.184 512.018L268.617 513.142L216.474 512.024L115.268 514.194L112.965 509.103C108.211 498.594 96.3293 493.359 85.2419 496.89L74.2519 500.389L81.0196 419.855Z" fill="#D9D9D9"/>
<path d="M81.0196 419.855L451.597 440.774L449.184 512.018L268.617 513.142L216.474 512.024L115.268 514.194L112.965 509.103C108.211 498.594 96.3293 493.359 85.2419 496.89L74.2519 500.389L81.0196 419.855Z" fill="url(#paint5_linear_791_176)"/>
</g>
<path d="M176.818 485.859L177.297 456.463L191.072 456.688C194.599 456.745 197.275 457.489 199.1 458.919C200.926 460.321 201.819 462.184 201.781 464.508C201.756 466.075 201.37 467.413 200.624 468.521C199.878 469.601 198.884 470.439 197.642 471.035C196.429 471.603 195.108 471.876 193.68 471.852L194.461 470.353C196.113 470.38 197.592 470.712 198.897 471.349C200.204 471.959 201.225 472.844 201.962 474.004C202.728 475.164 203.096 476.599 203.068 478.306C203.027 480.826 202.029 482.77 200.075 484.138C198.12 485.507 195.239 486.16 191.432 486.098L176.818 485.859ZM182.347 481.665L191.166 481.809C193.209 481.842 194.783 481.532 195.885 480.878C196.988 480.223 197.552 479.154 197.576 477.671C197.6 476.215 197.071 475.142 195.99 474.452C194.91 473.735 193.348 473.359 191.304 473.326L182.065 473.175L182.135 468.934L190.281 469.067C192.185 469.098 193.647 468.785 194.665 468.13C195.712 467.475 196.247 466.476 196.268 465.132C196.291 463.76 195.79 462.73 194.765 462.041C193.768 461.352 192.318 460.993 190.414 460.962L182.687 460.835L182.347 481.665ZM218.796 486.838C216.305 486.798 214.129 486.272 212.269 485.261C210.438 484.223 209.019 482.828 208.011 481.075C207.031 479.323 206.56 477.341 206.596 475.13C206.632 472.89 207.155 470.924 208.162 469.232C209.199 467.513 210.592 466.178 212.344 465.226C214.124 464.275 216.134 463.818 218.373 463.854C220.557 463.89 222.495 464.398 224.187 465.377C225.88 466.357 227.201 467.723 228.153 469.475C229.105 471.226 229.561 473.278 229.523 475.63C229.519 475.854 229.501 476.105 229.468 476.385C229.464 476.665 229.446 476.931 229.413 477.182L210.726 476.877L210.783 473.392L226.699 473.651L224.623 474.71C224.672 473.422 224.425 472.284 223.881 471.295C223.337 470.306 222.579 469.524 221.609 468.948C220.666 468.372 219.565 468.074 218.305 468.054C217.017 468.033 215.879 468.294 214.89 468.838C213.929 469.382 213.16 470.154 212.584 471.153C212.036 472.124 211.751 473.281 211.729 474.625L211.715 475.465C211.693 476.809 211.982 478.004 212.581 479.05C213.18 480.096 214.035 480.908 215.145 481.486C216.256 482.064 217.539 482.365 218.995 482.389C220.255 482.409 221.392 482.232 222.406 481.856C223.42 481.481 224.326 480.88 225.124 480.053L227.885 483.332C226.858 484.491 225.569 485.381 224.019 485.999C222.497 486.591 220.756 486.87 218.796 486.838ZM244.409 495.405C242.337 495.372 240.312 495.058 238.333 494.466C236.382 493.902 234.785 493.092 233.543 492.036L235.959 488.126C236.925 488.954 238.147 489.618 239.623 490.119C241.126 490.647 242.648 490.924 244.188 490.949C246.651 490.989 248.466 490.445 249.633 489.316C250.799 488.215 251.401 486.53 251.438 484.263L251.503 480.273L252.006 475.199L251.921 470.115L252.01 464.655L257.007 464.737L256.697 483.76C256.63 487.82 255.546 490.784 253.443 492.654C251.34 494.552 248.328 495.469 244.409 495.405ZM243.891 485.946C241.764 485.911 239.839 485.431 238.118 484.507C236.425 483.555 235.088 482.259 234.107 480.619C233.154 478.979 232.695 477.068 232.73 474.884C232.765 472.728 233.286 470.847 234.293 469.239C235.327 467.631 236.705 466.394 238.428 465.526C240.178 464.658 242.117 464.242 244.245 464.277C246.149 464.308 247.85 464.713 249.35 465.494C250.849 466.275 252.034 467.47 252.904 469.08C253.802 470.691 254.23 472.743 254.189 475.234C254.149 477.726 253.653 479.776 252.703 481.385C251.781 482.966 250.558 484.136 249.033 484.895C247.509 485.627 245.795 485.977 243.891 485.946ZM244.762 481.507C246.078 481.529 247.258 481.282 248.302 480.767C249.347 480.224 250.158 479.481 250.733 478.538C251.337 477.568 251.649 476.453 251.67 475.193C251.69 473.933 251.414 472.823 250.842 471.861C250.298 470.872 249.512 470.117 248.485 469.596C247.458 469.048 246.286 468.762 244.97 468.741C243.654 468.719 242.46 468.966 241.388 469.481C240.344 469.968 239.52 470.696 238.916 471.667C238.34 472.609 238.042 473.711 238.022 474.97C238.001 476.23 238.263 477.355 238.807 478.344C239.379 479.305 240.179 480.074 241.205 480.651C242.261 481.2 243.446 481.486 244.762 481.507ZM263.542 487.274L263.908 464.849L269.158 464.935L268.792 487.36L263.542 487.274ZM266.614 461.197C265.634 461.181 264.828 460.86 264.194 460.234C263.588 459.608 263.292 458.861 263.306 457.993C263.321 457.097 263.641 456.36 264.266 455.782C264.92 455.177 265.737 454.882 266.717 454.898C267.697 454.914 268.49 455.221 269.096 455.819C269.731 456.389 270.041 457.109 270.027 457.976C270.012 458.9 269.691 459.679 269.065 460.313C268.439 460.919 267.622 461.214 266.614 461.197ZM288.776 465.003C290.568 465.033 292.158 465.409 293.546 466.131C294.962 466.855 296.065 467.951 296.853 469.42C297.641 470.861 298.017 472.715 297.98 474.983L297.77 487.833L292.521 487.747L292.72 475.569C292.752 473.581 292.301 472.09 291.365 471.094C290.457 470.099 289.163 469.588 287.483 469.561C286.251 469.541 285.155 469.775 284.195 470.263C283.235 470.752 282.481 471.495 281.933 472.495C281.413 473.466 281.14 474.708 281.116 476.22L280.931 487.558L275.681 487.473L276.047 465.048L281.045 465.129L280.946 471.176L280.094 469.314C280.901 467.899 282.053 466.826 283.549 466.094C285.074 465.335 286.816 464.971 288.776 465.003ZM317.524 465.473C319.316 465.502 320.906 465.878 322.294 466.601C323.71 467.324 324.813 468.42 325.601 469.889C326.389 471.33 326.765 473.184 326.728 475.452L326.519 488.302L321.269 488.217L321.468 476.038C321.5 474.051 321.049 472.559 320.113 471.564C319.205 470.569 317.911 470.057 316.231 470.03C314.999 470.01 313.904 470.244 312.943 470.732C311.983 471.221 311.229 471.965 310.681 472.964C310.161 473.936 309.888 475.177 309.864 476.689L309.679 488.028L304.429 487.942L304.795 465.517L309.793 465.598L309.694 471.646L308.842 469.783C309.65 468.368 310.801 467.295 312.297 466.563C313.822 465.804 315.564 465.441 317.524 465.473ZM343.754 488.878C341.263 488.837 339.087 488.311 337.227 487.301C335.396 486.263 333.977 484.868 332.969 483.115C331.989 481.363 331.518 479.381 331.554 477.169C331.59 474.929 332.113 472.964 333.12 471.272C334.156 469.553 335.55 468.217 337.302 467.266C339.082 466.314 341.092 465.857 343.331 465.894C345.515 465.929 347.453 466.437 349.145 467.417C350.838 468.397 352.159 469.762 353.111 471.514C354.063 473.266 354.519 475.318 354.481 477.669C354.477 477.893 354.459 478.145 354.426 478.424C354.422 478.704 354.403 478.97 354.371 479.222L335.684 478.917L335.741 475.431L351.657 475.691L349.581 476.749C349.63 475.462 349.383 474.324 348.839 473.335C348.295 472.346 347.537 471.563 346.567 470.987C345.624 470.412 344.523 470.114 343.263 470.093C341.975 470.072 340.837 470.334 339.848 470.878C338.887 471.422 338.118 472.194 337.542 473.192C336.994 474.163 336.709 475.321 336.687 476.665L336.673 477.505C336.651 478.848 336.94 480.043 337.539 481.089C338.138 482.135 338.993 482.947 340.103 483.525C341.214 484.104 342.497 484.405 343.953 484.428C345.213 484.449 346.35 484.271 347.364 483.896C348.378 483.52 349.284 482.919 350.082 482.092L352.843 485.372C351.816 486.531 350.527 487.42 348.977 488.039C347.455 488.63 345.714 488.91 343.754 488.878ZM359.342 488.838L359.708 466.413L364.705 466.495L364.605 472.668L364.046 470.852C364.743 469.352 365.811 468.221 367.252 467.46C368.721 466.7 370.533 466.338 372.688 466.373L372.607 471.37C372.384 471.311 372.174 471.279 371.978 471.276C371.783 471.245 371.587 471.228 371.391 471.224C369.403 471.192 367.812 471.754 366.617 472.911C365.422 474.039 364.806 475.752 364.769 478.047L364.591 488.924L359.342 488.838Z" fill="#FDEFE8"/>
<g filter="url(#filter8_g_791_176)">
<path d="M449.454 439.894L525.333 473.088L447.17 513.176L449.454 439.894Z" fill="#774243"/>
<path d="M449.454 439.894L525.333 473.088L447.17 513.176L449.454 439.894Z" fill="url(#paint6_linear_791_176)"/>
</g>
<defs>
<filter id="filter0_g_791_176" x="282.466" y="4.88758e-05" width="56.2307" height="943.6" filterUnits="userSpaceOnUse" color-interpolation-filters="sRGB">
<feFlood flood-opacity="0" result="BackgroundImageFix"/>
<feBlend mode="normal" in="SourceGraphic" in2="BackgroundImageFix" result="shape"/>
<feTurbulence type="fractalNoise" baseFrequency="0.10000000149011612 0.10000000149011612" numOctaves="3" seed="8450" />
<feDisplacementMap in="shape" scale="5.5999999046325684" xChannelSelector="R" yChannelSelector="G" result="displacedImage" width="100%" height="100%" />
<feMerge result="effect1_texture_791_176">
<feMergeNode in="displacedImage"/>
</feMerge>
</filter>
<filter id="filter1_g_791_176" x="3.09944e-06" y="79.9432" width="540.245" height="132.649" filterUnits="userSpaceOnUse" color-interpolation-filters="sRGB">
<feFlood flood-opacity="0" result="BackgroundImageFix"/>
<feBlend mode="normal" in="SourceGraphic" in2="BackgroundImageFix" result="shape"/>
<feTurbulence type="fractalNoise" baseFrequency="0.10000000149011612 0.10000000149011612" numOctaves="3" seed="8450" />
<feDisplacementMap in="shape" scale="5.5999999046325684" xChannelSelector="R" yChannelSelector="G" result="displacedImage" width="100%" height="100%" />
<feMerge result="effect1_texture_791_176">
<feMergeNode in="displacedImage"/>
</feMerge>
</filter>
<filter id="filter2_g_791_176" x="532.224" y="113.904" width="60.0381" height="98.7777" filterUnits="userSpaceOnUse" color-interpolation-filters="sRGB">
<feFlood flood-opacity="0" result="BackgroundImageFix"/>
<feBlend mode="normal" in="SourceGraphic" in2="BackgroundImageFix" result="shape"/>
<feTurbulence type="fractalNoise" baseFrequency="0.10000000149011612 0.10000000149011612" numOctaves="3" seed="8450" />
<feDisplacementMap in="shape" scale="5.5999999046325684" xChannelSelector="R" yChannelSelector="G" result="displacedImage" width="100%" height="100%" />
<feMerge result="effect1_texture_791_176">
<feMergeNode in="displacedImage"/>
</feMerge>
</filter>
<filter id="filter3_g_791_176" x="52.4072" y="248.133" width="429.916" height="120.605" filterUnits="userSpaceOnUse" color-interpolation-filters="sRGB">
<feFlood flood-opacity="0" result="BackgroundImageFix"/>
<feBlend mode="normal" in="SourceGraphic" in2="BackgroundImageFix" result="shape"/>
<feTurbulence type="fractalNoise" baseFrequency="0.10000000149011612 0.10000000149011612" numOctaves="3" seed="8450" />
<feDisplacementMap in="shape" scale="5.5999999046325684" xChannelSelector="R" yChannelSelector="G" result="displacedImage" width="100%" height="100%" />
<feMerge result="effect1_texture_791_176">
<feMergeNode in="displacedImage"/>
</feMerge>
</filter>
<filter id="filter4_g_791_176" x="469.868" y="268.76" width="99.4694" height="101.163" filterUnits="userSpaceOnUse" color-interpolation-filters="sRGB">
<feFlood flood-opacity="0" result="BackgroundImageFix"/>
<feBlend mode="normal" in="SourceGraphic" in2="BackgroundImageFix" result="shape"/>
<feTurbulence type="fractalNoise" baseFrequency="0.10000000149011612 0.10000000149011612" numOctaves="3" seed="8450" />
<feDisplacementMap in="shape" scale="5.5999999046325684" xChannelSelector="R" yChannelSelector="G" result="displacedImage" width="100%" height="100%" />
<feMerge result="effect1_texture_791_176">
<feMergeNode in="displacedImage"/>
</feMerge>
</filter>
<filter id="filter5_g_791_176" x="181.877" y="577.892" width="288.32" height="115.082" filterUnits="userSpaceOnUse" color-interpolation-filters="sRGB">
<feFlood flood-opacity="0" result="BackgroundImageFix"/>
<feBlend mode="normal" in="SourceGraphic" in2="BackgroundImageFix" result="shape"/>
<feTurbulence type="fractalNoise" baseFrequency="0.10000000149011612 0.10000000149011612" numOctaves="3" seed="8450" />
<feDisplacementMap in="shape" scale="5.5999999046325684" xChannelSelector="R" yChannelSelector="G" result="displacedImage" width="100%" height="100%" />
<feMerge result="effect1_texture_791_176">
<feMergeNode in="displacedImage"/>
</feMerge>
</filter>
<clipPath id="paint4_diamond_791_176_clip_path"><path d="M464.989 580.692L186.979 590.457L184.677 677.996L320.124 679.369L359.32 677.993L435.148 680.655C442.31 671.921 455.459 672.081 461.326 680.974L467.397 690.174L464.989 580.692Z"/></clipPath><filter id="filter6_g_791_176" x="144.067" y="587.265" width="47.7493" height="91.7096" filterUnits="userSpaceOnUse" color-interpolation-filters="sRGB">
<feFlood flood-opacity="0" result="BackgroundImageFix"/>
<feBlend mode="normal" in="SourceGraphic" in2="BackgroundImageFix" result="shape"/>
<feTurbulence type="fractalNoise" baseFrequency="0.10000000149011612 0.10000000149011612" numOctaves="3" seed="8450" />
<feDisplacementMap in="shape" scale="5.5999999046325684" xChannelSelector="R" yChannelSelector="G" result="displacedImage" width="100%" height="100%" />
<feMerge result="effect1_texture_791_176">
<feMergeNode in="displacedImage"/>
</feMerge>
</filter>
<filter id="filter7_g_791_176" x="71.4519" y="417.055" width="382.945" height="99.9389" filterUnits="userSpaceOnUse" color-interpolation-filters="sRGB">
<feFlood flood-opacity="0" result="BackgroundImageFix"/>
<feBlend mode="normal" in="SourceGraphic" in2="BackgroundImageFix" result="shape"/>
<feTurbulence type="fractalNoise" baseFrequency="0.10000000149011612 0.10000000149011612" numOctaves="3" seed="8450" />
<feDisplacementMap in="shape" scale="5.5999999046325684" xChannelSelector="R" yChannelSelector="G" result="displacedImage" width="100%" height="100%" />
<feMerge result="effect1_texture_791_176">
<feMergeNode in="displacedImage"/>
</feMerge>
</filter>
<filter id="filter8_g_791_176" x="444.37" y="437.094" width="83.7628" height="78.8812" filterUnits="userSpaceOnUse" color-interpolation-filters="sRGB">
<feFlood flood-opacity="0" result="BackgroundImageFix"/>
<feBlend mode="normal" in="SourceGraphic" in2="BackgroundImageFix" result="shape"/>
<feTurbulence type="fractalNoise" baseFrequency="0.10000000149011612 0.10000000149011612" numOctaves="3" seed="8450" />
<feDisplacementMap in="shape" scale="5.5999999046325684" xChannelSelector="R" yChannelSelector="G" result="displacedImage" width="100%" height="100%" />
<feMerge result="effect1_texture_791_176">
<feMergeNode in="displacedImage"/>
</feMerge>
</filter>
<linearGradient id="paint0_linear_791_176" x1="25.3153" y1="0" x2="25.3153" y2="938" gradientUnits="userSpaceOnUse">
<stop stop-color="#8D6D57"/>
<stop offset="1" stop-color="#8D674C"/>
</linearGradient>
<linearGradient id="paint1_linear_791_176" x1="342.879" y1="48.2827" x2="534.424" y2="43.5849" gradientUnits="userSpaceOnUse">
<stop stop-color="#AC8B73"/>
<stop offset="1" stop-color="#836754"/>
</linearGradient>
<linearGradient id="paint2_linear_791_176" x1="207.822" y1="307.96" x2="88.4787" y2="303.167" gradientUnits="userSpaceOnUse">
<stop stop-color="#905A5B"/>
<stop offset="1" stop-color="#AF6969"/>
</linearGradient>
<linearGradient id="paint3_linear_791_176" x1="485.045" y1="315.573" x2="565.044" y2="282.895" gradientUnits="userSpaceOnUse">
<stop stop-color="#915A5B"/>
<stop offset="1" stop-color="#AF6969"/>
</linearGradient>
<linearGradient id="paint4_diamond_791_176" x1="0" y1="0" x2="500" y2="500" gradientUnits="userSpaceOnUse">
<stop stop-color="#DA9D81"/>
<stop offset="1" stop-color="#AD6949"/>
</linearGradient>
<linearGradient id="paint5_linear_791_176" x1="317.944" y1="469.405" x2="421.293" y2="474.881" gradientUnits="userSpaceOnUse">
<stop stop-color="#774243"/>
<stop offset="1" stop-color="#8C5152"/>
</linearGradient>
<linearGradient id="paint6_linear_791_176" x1="501.236" y1="468.763" x2="451.815" y2="477.228" gradientUnits="userSpaceOnUse">
<stop stop-color="#774243"/>
<stop offset="1" stop-color="#8C5152"/>
</linearGradient>
</defs>
</svg>
