<svg width="362" height="576" viewBox="0 0 362 576" fill="none" xmlns="http://www.w3.org/2000/svg">
<path d="M188.88 128.712C180.924 148.128 221.934 144.919 218.98 206.315C227.164 191.078 233.849 158.756 227.372 137.471C219.275 110.865 196.836 109.296 188.88 128.712Z" fill="url(#paint0_linear_932_170)"/>
<path d="M220.254 93.7727C225.722 107.951 251.283 115.418 250.404 147.175C255.779 138.433 258.741 110.984 253.513 98.2485C246.979 82.3292 215.823 82.2838 220.254 93.7727Z" fill="url(#paint1_linear_932_170)"/>
<path d="M127.99 171.641C138.132 198.698 188.054 214.97 186.137 275.685C196.297 258.928 203.005 218.967 193.303 194.666C181.176 164.289 119.772 149.716 127.99 171.641Z" fill="url(#paint2_linear_932_170)"/>
<path d="M313.714 131.346C300.423 134.541 264.887 134.009 247.673 150.308C247.502 142.247 291.282 105.666 308.849 107.302C328.68 109.149 324.484 128.756 313.714 131.346Z" fill="url(#paint3_linear_932_170)"/>
<path d="M264.849 50.0563C275.065 82.0432 271.915 78.3436 271.24 106.395C276.037 98.6915 289.246 65.7983 284.505 54.5291C278.578 40.4425 261.527 39.6544 264.849 50.0563Z" fill="url(#paint4_linear_932_170)"/>
<path d="M332.057 81.294C294.693 91.0631 300.539 89.2684 271.898 106.58C277.788 97.6407 305.373 68.5214 319.026 66.1163C336.092 63.11 344.208 78.1172 332.057 81.294Z" fill="url(#paint5_linear_932_170)"/>
<path d="M278.974 330.507C254.218 331.571 187.361 319.364 156.192 340.908C155.277 327.485 237.514 276.527 270.664 284.838C308.089 294.221 299.035 329.645 278.974 330.507Z" fill="url(#paint6_linear_932_170)"/>
<path d="M289.354 249.262C260.416 267.472 238.114 243.756 188.713 272.194C198.363 249.595 243.841 215.342 266.264 210.907C294.292 205.363 307.051 238.127 289.354 249.262Z" fill="url(#paint7_linear_932_170)"/>
<path d="M221.621 197.186C269.416 142.615 303.947 151.672 310.997 169.765C322.955 200.459 259.014 175.076 221.621 197.186Z" fill="url(#paint8_linear_932_170)"/>
<path d="M87.19 265.071C98.1409 287.299 140.945 340.089 137.008 377.774C149.222 372.133 170.286 273.06 131.242 250.438C97.8572 231.096 78.3163 247.059 87.19 265.071Z" fill="url(#paint9_linear_932_170)"/>
<path d="M316.68 45.8712C317.245 45.2651 317.211 44.316 316.605 43.7512C315.999 43.1864 315.05 43.2199 314.485 43.826L315.583 44.8486L316.68 45.8712ZM68.3914 536.283L69.7662 536.883C146.841 360.226 197.936 248.872 235.1 175.956C272.268 103.03 295.452 68.6515 316.68 45.8712L315.583 44.8486L314.485 43.826C292.966 66.9192 269.63 101.6 232.427 174.593C195.219 247.597 144.092 359.023 67.0165 535.683L68.3914 536.283Z" fill="#CC8CC2"/>
<defs>
<linearGradient id="paint0_linear_932_170" x1="200.6" y1="165.613" x2="220.957" y2="117.699" gradientUnits="userSpaceOnUse">
<stop stop-color="#CC8CC2"/>
<stop offset="0.724384" stop-color="#427C80"/>
</linearGradient>
<linearGradient id="paint1_linear_932_170" x1="231.412" y1="118.874" x2="243.448" y2="86.6231" gradientUnits="userSpaceOnUse">
<stop stop-color="#CC8CC2"/>
<stop offset="0.724384" stop-color="#427C80"/>
</linearGradient>
<linearGradient id="paint2_linear_932_170" x1="149.176" y1="223.812" x2="170.486" y2="165.096" gradientUnits="userSpaceOnUse">
<stop stop-color="#CC8CC2"/>
<stop offset="0.724384" stop-color="#427C80"/>
</linearGradient>
<linearGradient id="paint3_linear_932_170" x1="288.912" y1="140.141" x2="303.721" y2="100.898" gradientUnits="userSpaceOnUse">
<stop stop-color="#CC8CC2"/>
<stop offset="0.724384" stop-color="#427C80"/>
</linearGradient>
<linearGradient id="paint4_linear_932_170" x1="275.771" y1="89.0118" x2="271.504" y2="48.4904" gradientUnits="userSpaceOnUse">
<stop stop-color="#CC8CC2"/>
<stop offset="0.724384" stop-color="#427C80"/>
</linearGradient>
<linearGradient id="paint5_linear_932_170" x1="301.771" y1="95.5282" x2="324.752" y2="59.7678" gradientUnits="userSpaceOnUse">
<stop stop-color="#CC8CC2"/>
<stop offset="0.724384" stop-color="#427C80"/>
</linearGradient>
<linearGradient id="paint6_linear_932_170" x1="176.007" y1="326.196" x2="290.767" y2="331.901" gradientUnits="userSpaceOnUse">
<stop stop-color="#CC8CC2"/>
<stop offset="0.724384" stop-color="#427C80"/>
</linearGradient>
<linearGradient id="paint7_linear_932_170" x1="220.479" y1="244.86" x2="293.289" y2="241.225" gradientUnits="userSpaceOnUse">
<stop stop-color="#CC8CC2"/>
<stop offset="0.724384" stop-color="#427C80"/>
</linearGradient>
<linearGradient id="paint8_linear_932_170" x1="259.668" y1="182.089" x2="269.562" y2="149.221" gradientUnits="userSpaceOnUse">
<stop stop-color="#CC8CC2"/>
<stop offset="0.724384" stop-color="#427C80"/>
</linearGradient>
<linearGradient id="paint9_linear_932_170" x1="140.401" y1="353.329" x2="80.3047" y2="255.396" gradientUnits="userSpaceOnUse">
<stop stop-color="#CC8CC2"/>
<stop offset="0.724384" stop-color="#427C80"/>
</linearGradient>
</defs>
</svg>
