<svg width="1472" height="1165" viewBox="0 0 1472 1165" fill="none" xmlns="http://www.w3.org/2000/svg">
<path d="M80.7756 365.028C80.7756 352.527 26.2585 116.467 -1 0V708.419L80.7756 615.459C149.311 660.169 181.908 692.707 273.059 708.419L585.052 727L176.254 578.596H541.371L753.104 649.518L1000 566.264H790.906L541.371 504.468H176.254C152.384 504.468 80.7756 380.655 80.7756 365.028Z" fill="#694125"/>
<g filter="url(#filter0_d_863_177)">
<path d="M867.55 834.777C812.901 868.333 787.632 862.398 746.628 832.806C789.63 804.743 815.929 803.938 867.55 834.777Z" fill="#FFD58C"/>
<path d="M799.919 724.721C756.119 737.999 745.227 725.236 736.264 686.937C771.454 675.028 785.837 682.158 799.919 724.721Z" fill="#FFD58C"/>
<path d="M1336.1 659.941C1291.65 649.509 1287.53 632.714 1296.13 594.318C1332.38 601.602 1342.02 615.185 1336.1 659.941Z" fill="#FFD58C"/>
<path d="M1095.71 834.777C1078.64 789.119 1089.13 775.972 1123.27 762.05C1138.13 798.594 1133.19 814.869 1095.71 834.777Z" fill="#FFD58C"/>
<path d="M484.334 960.772C488.944 911.766 503.895 905.455 540.086 910.428C537.45 950.255 526.062 962.145 484.334 960.772Z" fill="#FFD58C"/>
<path d="M736.264 745.763C711.041 786.755 695.1 784.766 665.251 762.05C684.768 728.175 699.966 723.428 736.264 745.763Z" fill="#FFD58C"/>
<path d="M1336.1 1065.69C1296.12 1089.16 1282.88 1079.33 1266.3 1044.14C1298.17 1024.07 1313.65 1027.57 1336.1 1065.69Z" fill="#FFD58C"/>
<path d="M773.558 1139.99C742.487 1140.34 737.39 1129.83 737.748 1102.84C762.915 1101.74 771.236 1109.21 773.558 1139.99Z" fill="#FFD58C"/>
<path d="M1087.55 1020.57C1034.13 990.75 1034.19 967.788 1057.33 921.99C1101.28 944.748 1109.28 965.66 1087.55 1020.57Z" fill="#FFD58C"/>
<path d="M925.263 894.772C905.569 864.159 911.28 852.539 934.335 836.044C950.977 860.329 949.857 873.247 925.263 894.772Z" fill="#FFD58C"/>
<path d="M406.689 1090.64C418.957 1055.78 431.039 1054.34 456.608 1065.69C447.45 1094.26 436.962 1100.53 406.689 1090.64Z" fill="#FFD58C"/>
<path d="M1123.27 423.376C1149.16 398.763 1160.46 403.612 1178.17 426.583C1157.75 447.205 1145.77 447.442 1123.27 423.376Z" fill="#FFD58C"/>
<path d="M259.974 515.414C293.485 506.759 301.382 516.765 307.125 546.038C280.168 553.93 269.476 548.076 259.974 515.414Z" fill="#FFD58C"/>
<path d="M483.902 848.091C469.608 814.143 477.154 803.824 502.57 792.084C514.912 819.213 511.667 831.703 483.902 848.091Z" fill="#FFD58C"/>
<path d="M142.399 464.474C175.76 473.785 178.423 486.628 170.869 515.414C143.631 508.747 136.705 498.159 142.399 464.474Z" fill="#FFD58C"/>
<path d="M456.608 584.011C482.083 609.129 478.895 621.831 459.795 643.455C438.592 623.775 437.038 610.909 456.608 584.011Z" fill="#FFD58C"/>
<path d="M222.174 921.453C233.856 956.553 225.557 966.169 199.338 975.618C189.087 947.487 193.265 935.326 222.174 921.453Z" fill="#FFD58C"/>
<path d="M1447 894.772C1430.16 959.945 1408.55 964.694 1360.63 948.776C1372.82 895.529 1390.81 882.324 1447 894.772Z" fill="#FFD58C"/>
<path d="M978.73 878.777C916.437 873.426 907.974 851.379 913.17 797.389C963.761 800.087 979.19 816.662 978.73 878.777Z" fill="#FFD58C"/>
<path d="M733.005 895.188C699.816 924.196 686.069 917.571 665.251 888.176C691.491 863.801 706.318 864.173 733.005 895.188Z" fill="#FFD58C"/>
<path d="M674.839 747.438C642.166 717.752 645.521 701.867 668.147 674.082C695.284 697.275 697.802 713.105 674.839 747.438Z" fill="#FFD58C"/>
<path d="M918.982 594.318C876.41 597.094 868.761 583.061 867.55 546.038C901.979 542.67 913.857 552.289 918.982 594.318Z" fill="#FFD58C"/>
<path d="M416.385 884.593C405.673 839.884 416.914 829.053 450.227 820.637C459.908 856.579 453.479 871.054 416.385 884.593Z" fill="#FFD58C"/>
<path d="M344.47 820.637C308.307 796.151 309.594 779.915 328.439 748.997C358.287 767.885 362.809 783.183 344.47 820.637Z" fill="#FFD58C"/>
<path d="M467.382 931.595C482.605 888.449 497.563 886.69 529.205 900.764C517.839 936.122 504.848 943.874 467.382 931.595Z" fill="#FFD58C"/>
<path d="M344.47 505.959C371.129 486.755 380.984 492.735 394.674 516.266C373.504 532.526 362.443 531.14 344.47 505.959Z" fill="#FFD58C"/>
<path d="M301.473 677.54C308.638 643.743 319.59 640.747 344.47 647.639C339.422 675.21 330.51 682.439 301.473 677.54Z" fill="#FFD58C"/>
<path d="M1068.37 686.937C1036.37 685.83 1031.55 674.768 1033 647C1058.95 647.056 1067.22 655.134 1068.37 686.937Z" fill="#FFD58C"/>
<path d="M605.253 516.266C629.192 493.24 639.718 497.68 656.291 518.925C637.411 538.211 626.28 538.501 605.253 516.266Z" fill="#FFD58C"/>
<path d="M96.4864 742.635C121.959 763.643 119.963 775.684 103.905 797.389C82.7954 781.038 80.3895 769.263 96.4864 742.635Z" fill="#FFD58C"/>
<path d="M605.253 866.63C637.086 862.915 643.281 873.145 645.401 900.863C619.692 904.709 610.47 897.951 605.253 866.63Z" fill="#FFD58C"/>
<path d="M552.399 665.558C561.895 698.674 553.819 707.228 529.113 714.818C520.677 688.236 525.025 677.134 552.399 665.558Z" fill="#FFD58C"/>
<path d="M292.76 868.882C320.679 885.856 320.245 898.081 307.125 921.99C284.124 908.971 280.232 897.672 292.76 868.882Z" fill="#FFD58C"/>
<path d="M1233.65 686.937C1223.65 719.877 1212.49 721.77 1188.3 712.43C1195.66 685.479 1205.15 679.167 1233.65 686.937Z" fill="#FFD58C"/>
<path d="M1240.68 505.959C1253.1 549.798 1244.08 564.735 1215.68 584.011C1204.77 549.102 1209.35 531.82 1240.68 505.959Z" fill="#FFD58C"/>
<path d="M509.664 412.411C472.335 434.053 457.063 427.335 434.131 400.872C463.658 382.549 480.2 384.096 509.664 412.411Z" fill="#FFD58C"/>
<path d="M799.919 353.002C786.554 396.515 771.2 403.01 737.748 400.872C747.555 365.579 760.549 354.384 799.919 353.002Z" fill="#FFD58C"/>
<path d="M860.764 674.43C818.766 668.604 809.924 653.538 805.421 617.574C839.286 621.202 851.931 632.855 860.764 674.43Z" fill="#FFD58C"/>
<path d="M222.174 792.084C198.263 754.239 202.774 737.069 224.579 709.51C244.598 739.316 244.971 757.293 222.174 792.084Z" fill="#FFD58C"/>
<path d="M805.421 546.038C835.106 513.339 851.532 514.826 880.701 532.694C857.55 559.708 841.333 563.566 805.421 546.038Z" fill="#FFD58C"/>
</g>
<defs>
<filter id="filter0_d_863_177" x="61.8" y="328.802" width="1409.4" height="835.4" filterUnits="userSpaceOnUse" color-interpolation-filters="sRGB">
<feFlood flood-opacity="0" result="BackgroundImageFix"/>
<feColorMatrix in="SourceAlpha" type="matrix" values="0 0 0 0 0 0 0 0 0 0 0 0 0 0 0 0 0 0 127 0" result="hardAlpha"/>
<feOffset/>
<feGaussianBlur stdDeviation="12.1"/>
<feComposite in2="hardAlpha" operator="out"/>
<feColorMatrix type="matrix" values="0 0 0 0 1 0 0 0 0 0.835294 0 0 0 0 0.54902 0 0 0 1 0"/>
<feBlend mode="normal" in2="BackgroundImageFix" result="effect1_dropShadow_863_177"/>
<feBlend mode="normal" in="SourceGraphic" in2="effect1_dropShadow_863_177" result="shape"/>
</filter>
</defs>
</svg>
