<svg width="1246" height="990" viewBox="0 0 1246 990" fill="none" xmlns="http://www.w3.org/2000/svg">
<path d="M24 526.702C14.4923 595.934 92.9447 639.1 122.5 589.2C147.966 546.205 216.427 442.178 251 443.702" stroke="#253B3E" stroke-width="4"/>
<path d="M-1.65774 669.12L-4.64456 570.287L1.32848 571.05L13.0594 549.402L-5.94318 527.316L-6.98106 492.972L24.7905 527.753L144.014 461.224L155.62 459.366L165.116 392.583L144.014 345.062L174.612 382.023V456.324L249.522 444.328L326.543 392.583L407.578 300.71L389.848 250.021L415.961 291.205L445.767 257.413L337.094 405.255L453.153 412.647L568.156 360.903C582.224 367.239 611.836 378.01 617.745 370.407C623.653 362.803 711.647 305.286 754.905 277.477L636.736 382.023L787.613 399.975L914.222 360.903L1001.79 254.245L996.518 189.828L1014.45 254.245L1067.21 238.404L1014.45 267.973L970.141 318.662L1155.84 267.973L970.141 332.39C947.985 348.23 904.726 381.389 908.947 387.303C913.167 393.217 951.502 434.824 970.141 454.888L892.065 387.303L798.163 428.488L776.534 425.678L748.575 463.336L655.728 449.608H739.079L754.905 422.868L578.707 399.975L453.153 440.104L311.772 444.328L230.531 492.905L155.62 503.465L51.1675 571.05L-1.65774 669.12Z" fill="#694125"/>
<path d="M-6.732 501.214L-7.23664 484.516C14.5336 457.373 30.799 461.082 58.5345 480.589C39.8087 510.625 24.8808 516.992 -6.732 501.214Z" fill="#FFD58C"/>
<path d="M144.454 333.295L-12.0378 325.647L-12.9647 294.975C-5.11096 295.867 1.34597 295.339 3.52515 292.015C8.8041 283.962 91.8962 219.565 132.782 188.374L23.3878 302.069L175.218 307.851L298.282 258.74L377.009 145.396L366.579 81.6104L389.629 144.38L440.941 124.355L390.731 158.064L350.63 212.146L531.655 146.713L351.732 225.83C330.919 243.398 290.462 279.923 295.144 285.479C299.825 291.035 341.376 329.43 361.566 347.933L278.317 286.834L188.024 335.424L166.239 334.36L141.393 374.141L47.7437 367.911L130.826 361.22L144.454 333.295Z" fill="#694125"/>
<path d="M7.29349 295.37C-1.49416 291.138 -8.34294 287.002 -13.3423 282.482L-15 227.628C24.6384 248.203 24.5572 263.969 7.29349 295.37Z" fill="#FFD58C"/>
<path d="M94.9883 399.95C136.853 377.24 150.708 386.748 168.072 420.795C134.704 440.212 118.493 436.83 94.9883 399.95Z" fill="#FFD58C"/>
<path d="M127.154 325.161C159.684 324.824 165.019 334.995 164.645 361.108C138.297 362.171 129.585 354.947 127.154 325.161Z" fill="#FFD58C"/>
<path d="M284.674 305.019C340.599 333.873 340.537 356.09 316.314 400.4C270.303 378.381 261.931 358.148 284.674 305.019Z" fill="#FFD58C"/>
<path d="M728.931 505.143C694.006 496.135 691.217 483.709 699.126 455.858C727.642 462.308 734.892 472.552 728.931 505.143Z" fill="#FFD58C"/>
<path d="M911.039 296.939C928.673 233.883 951.292 229.288 1001.46 244.689C988.699 296.206 969.867 308.982 911.039 296.939Z" fill="#FFD58C"/>
<path d="M659.314 261.06C703.882 258.375 711.89 271.952 713.158 307.773C677.114 311.032 664.678 301.725 659.314 261.06Z" fill="#FFD58C"/>
<path d="M604.448 304.741C642.307 328.431 640.961 344.14 621.232 374.053C589.984 355.779 585.249 340.978 604.448 304.741Z" fill="#FFD58C"/>
<path d="M984.219 398.876C976.717 431.575 965.252 434.474 939.205 427.806C944.49 401.13 953.82 394.135 984.219 398.876Z" fill="#FFD58C"/>
<path d="M1034.43 333.269C1048.42 291.17 1064.5 284.886 1099.52 286.955C1089.25 321.101 1075.65 331.932 1034.43 333.269Z" fill="#FFD58C"/>
<path d="M125.169 417.39C89.6333 411.214 85.8564 399.053 91.5038 370.657C120.445 374.797 128.495 384.425 125.169 417.39Z" fill="#FFD58C"/>
<path d="M289.974 195.238C302.489 130.97 324.666 124.574 375.906 135.898C367.325 188.273 349.579 202.52 289.974 195.238Z" fill="#FFD58C"/>
<path d="M36.1816 179.684C80.3905 173.43 89.4623 186.32 93.6024 221.923C57.9357 228.065 44.7934 219.787 36.1816 179.684Z" fill="#FFD58C"/>
<path d="M371.102 290.971C366.25 324.167 355.054 327.977 328.556 323.421C331.682 296.408 340.42 288.687 371.102 290.971Z" fill="#FFD58C"/>
<path d="M415.886 221.545C426.453 178.459 441.971 170.904 477.046 170.155C469.553 205.015 456.863 216.903 415.886 221.545Z" fill="#FFD58C"/>
<g filter="url(#filter0_d_840_6)">
<path d="M190.526 344.559C211.143 374.177 205.165 385.42 181.029 401.38C163.606 377.883 164.779 365.384 190.526 344.559Z" fill="#FFD58C"/>
<path d="M462.586 286.859C449.743 320.591 437.094 321.978 410.325 311.002C419.913 283.36 430.893 277.291 462.586 286.859Z" fill="#FFD58C"/>
<path d="M683.545 458.276C656.439 482.09 644.61 477.398 626.069 455.173C647.453 435.221 659.993 434.992 683.545 458.276Z" fill="#FFD58C"/>
<path d="M1006.31 474.078C971.229 482.451 962.962 472.77 956.949 444.449C985.17 436.813 996.364 442.477 1006.31 474.078Z" fill="#FFD58C"/>
<path d="M675.409 514.394C648.739 490.092 652.077 477.803 672.073 456.88C694.271 475.922 695.898 488.37 675.409 514.394Z" fill="#FFD58C"/>
<path d="M337.123 367.754C324.893 333.794 333.582 324.49 361.03 315.348C371.763 342.565 367.389 354.331 337.123 367.754Z" fill="#FFD58C"/>
<path d="M715.657 302.144C750.403 274.079 764.795 280.488 786.59 308.929C759.119 332.512 743.596 332.152 715.657 302.144Z" fill="#FFD58C"/>
<path d="M760.234 243.987C773.076 274.977 765.417 283.995 740.337 293.688C729.18 268.891 732.725 257.777 760.234 243.987Z" fill="#FFD58C"/>
<path d="M1190 279.2C1164.94 301.479 1153.92 297.183 1136.57 276.628C1156.33 257.968 1167.99 257.688 1190 279.2Z" fill="#FFD58C"/>
<path d="M1126.65 317.11C1093.32 320.704 1086.83 310.807 1084.61 283.989C1111.53 280.267 1121.18 286.806 1126.65 317.11Z" fill="#FFD58C"/>
<path d="M993.341 213.749C964.112 197.326 964.566 185.499 978.301 162.366C1002.38 174.963 1006.46 185.894 993.341 213.749Z" fill="#FFD58C"/>
<path d="M1032.6 276.748C1019.6 234.333 1029.05 219.881 1058.77 201.231C1070.2 235.006 1065.4 251.727 1032.6 276.748Z" fill="#FFD58C"/>
<path d="M1140.27 203.028C1165.31 239.644 1160.58 256.257 1137.75 282.92C1116.8 254.083 1116.41 236.689 1140.27 203.028Z" fill="#FFD58C"/>
<path d="M76.1668 374.318C51.0604 400.231 38.8925 396.504 18.6275 375.839C38.3405 354.234 50.8223 353 76.1668 374.318Z" fill="#FFD58C"/>
<path d="M399.161 364.157C364.863 375.32 355.846 366.334 347.578 338.587C375.096 328.709 386.708 333.456 399.161 364.157Z" fill="#FFD58C"/>
<path d="M72.5626 430.908C44.028 408.826 46.3678 396.308 64.6203 373.848C88.2749 391.046 90.8959 403.323 72.5626 430.908Z" fill="#FFD58C"/>
<path d="M95.6412 216.112C128.022 185.348 142.881 190.581 166.89 217.181C141.401 242.893 125.899 243.78 95.6412 216.112Z" fill="#FFD58C"/>
<path d="M135.405 154.564C150.694 184.423 143.784 194.027 119.562 205.702C106.451 181.881 109.093 170.518 135.405 154.564Z" fill="#FFD58C"/>
<path d="M566.611 155.162C543.418 179.38 532.089 175.983 513.144 156.887C531.348 136.701 542.941 135.486 566.611 155.162Z" fill="#FFD58C"/>
<path d="M506.506 198.035C473.575 204.293 466.315 194.948 461.95 168.396C488.479 162.525 498.628 168.267 506.506 198.035Z" fill="#FFD58C"/>
<path d="M365.333 105.71C334.879 91.6863 334.382 79.8606 346.216 55.7002C371.23 66.3225 376.169 76.8916 365.333 105.71Z" fill="#FFD58C"/>
<path d="M409.523 165.353C393.156 124.119 401.416 108.955 429.548 87.9792C443.651 120.728 440.207 137.78 409.523 165.353Z" fill="#FFD58C"/>
<path d="M510.929 83.2279C538.821 117.715 535.447 134.654 514.833 163.063C491.628 136.002 489.842 118.696 510.929 83.2279Z" fill="#FFD58C"/>
</g>
<g filter="url(#filter1_d_840_6)">
<path d="M133.711 827.15V654.435L126.316 653.969V830.067L133.711 827.15Z" fill="#522E22"/>
<path fill-rule="evenodd" clip-rule="evenodd" d="M126.224 653.963L126.316 653.969V830.067L126.224 830.103V830.067V653.969V653.963ZM133.711 827.15V654.435L195.709 658.348V802.698L133.711 827.15Z" fill="#FFD58C"/>
<path d="M207.976 797.86V659.122L195.709 658.348V802.698L207.976 797.86Z" fill="#522E22"/>
<path d="M118.828 654.435V827.15L126.224 830.067V653.969L118.828 654.435Z" fill="#694125"/>
<path fill-rule="evenodd" clip-rule="evenodd" d="M126.316 653.963L126.224 653.969V830.067L126.316 830.103V830.067V653.969V653.963ZM56.8297 658.348L118.828 654.435V827.15L56.8297 802.698V658.348Z" fill="#FFD58C"/>
<path d="M44.5636 659.122V797.86L56.8297 802.698V658.348L44.5636 659.122Z" fill="#694125"/>
<path d="M126.955 686.136L203.655 689.608L203.395 695.35L126.695 691.878L126.955 686.136Z" fill="#522E22"/>
<path d="M149.314 828.05V656.427H155.062V828.05H149.314Z" fill="#522E22"/>
<path d="M166.969 828.05V656.427H172.306V828.05H166.969Z" fill="#522E22"/>
<path d="M183.392 825.587V656.427H188.319V825.587H183.392Z" fill="#522E22"/>
<path d="M126.889 727.513H203.668V733.261H126.889V727.513Z" fill="#522E22"/>
<path d="M201.149 761.946L126.321 779.144L127.608 784.746L202.437 767.548L201.149 761.946Z" fill="#522E22"/>
<path d="M126.255 686.136L49.5542 689.608L49.8142 695.35L126.515 691.878L126.255 686.136Z" fill="#522E22"/>
<path d="M103.896 828.05L103.896 656.427H98.1478L98.1478 828.05H103.896Z" fill="#522E22"/>
<path d="M86.2409 828.05L86.2409 656.427H80.9033L80.9033 828.05H86.2409Z" fill="#522E22"/>
<path d="M69.8175 828.05L69.8175 656.427H64.8905L64.8905 828.05H69.8175Z" fill="#522E22"/>
<path d="M126.321 727.513H49.5419V733.261H126.321V727.513Z" fill="#522E22"/>
<path d="M52.0604 761.946L126.889 779.144L125.601 784.746L50.7728 767.548L52.0604 761.946Z" fill="#522E22"/>
<path d="M133.619 827.144V654.43L126.224 653.963V830.061L133.619 827.144Z" fill="#522E22"/>
<path d="M207.976 797.86V659.122L195.709 658.348V802.698L207.976 797.86Z" fill="#522E22"/>
<path d="M118.828 654.435V827.15L126.224 830.067V653.969L118.828 654.435Z" fill="#694125"/>
<path d="M44.5636 659.122V797.86L56.8297 802.698V658.348L44.5636 659.122Z" fill="#694125"/>
<path fill-rule="evenodd" clip-rule="evenodd" d="M126.224 653.969L126.316 653.963H126.224V653.969ZM126.224 830.067V830.061L126.316 830.103L126.224 830.067Z" fill="#FFD58C"/>
<path d="M222.08 800.541L127.428 838.634H125.34L31.7268 802.389V792.33L125.34 829.215L222.08 791.098V800.541Z" fill="#694125"/>
<path d="M127.023 643.771L226.15 649.548L225.302 664.09L126.398 658.327L27.4951 664.09L26.6479 649.548L125.774 643.771L125.778 643.699L126.399 643.735L127.019 643.699L127.023 643.771Z" fill="#694125"/>
<path d="M230 809.369L125.008 854.245L124.886 853.934L24.0857 812.448V796.846L125.34 838.077L230 796.846V809.369Z" fill="#694125"/>
<path d="M127.83 633.189L233.797 639.365L232.929 654.26L126.399 648.052L19.8681 654.26L19 639.365L124.967 633.189L124.977 633.023L126.398 633.106L127.82 633.023L127.83 633.189Z" fill="#694125"/>
<path fill-rule="evenodd" clip-rule="evenodd" d="M126.116 581.7C138.928 581.7 149.314 593.189 149.314 607.362C149.314 619.257 141.996 629.262 132.069 632.169V635.487H120.573V632.286C110.437 629.537 102.918 619.421 102.918 607.362C102.918 593.189 113.304 581.7 126.116 581.7ZM126.116 589.092C116.798 589.092 109.245 597.461 109.244 607.784C109.244 615.956 113.978 622.901 120.573 625.442V625.427H131.697C138.271 622.875 142.987 615.94 142.987 607.784C142.987 597.461 135.433 589.092 126.116 589.092Z" fill="#694125"/>
</g>
<path d="M893 387.2C747.5 739.7 594.5 608.7 451 412.699" stroke="#253B3E" stroke-width="5" stroke-linecap="round"/>
<path d="M427 440.7C514.833 789.488 557.722 533.897 570 362.2" stroke="#253B3E" stroke-width="2"/>
<defs>
<filter id="filter0_d_840_6" x="-37.0725" y="0.00019455" width="1282.77" height="570.094" filterUnits="userSpaceOnUse" color-interpolation-filters="sRGB">
<feFlood flood-opacity="0" result="BackgroundImageFix"/>
<feColorMatrix in="SourceAlpha" type="matrix" values="0 0 0 0 0 0 0 0 0 0 0 0 0 0 0 0 0 0 127 0" result="hardAlpha"/>
<feOffset/>
<feGaussianBlur stdDeviation="27.85"/>
<feComposite in2="hardAlpha" operator="out"/>
<feColorMatrix type="matrix" values="0 0 0 0 1 0 0 0 0 0.835294 0 0 0 0 0.54902 0 0 0 1 0"/>
<feBlend mode="normal" in2="BackgroundImageFix" result="effect1_dropShadow_840_6"/>
<feBlend mode="normal" in="SourceGraphic" in2="effect1_dropShadow_840_6" result="shape"/>
</filter>
<filter id="filter1_d_840_6" x="-111.8" y="454.9" width="476.397" height="534.144" filterUnits="userSpaceOnUse" color-interpolation-filters="sRGB">
<feFlood flood-opacity="0" result="BackgroundImageFix"/>
<feColorMatrix in="SourceAlpha" type="matrix" values="0 0 0 0 0 0 0 0 0 0 0 0 0 0 0 0 0 0 127 0" result="hardAlpha"/>
<feOffset dy="4"/>
<feGaussianBlur stdDeviation="65.4"/>
<feComposite in2="hardAlpha" operator="out"/>
<feColorMatrix type="matrix" values="0 0 0 0 1 0 0 0 0 0.835294 0 0 0 0 0.54902 0 0 0 0.5 0"/>
<feBlend mode="normal" in2="BackgroundImageFix" result="effect1_dropShadow_840_6"/>
<feBlend mode="normal" in="SourceGraphic" in2="effect1_dropShadow_840_6" result="shape"/>
</filter>
</defs>
</svg>
