<svg width="421" height="832" viewBox="0 0 421 832" fill="none" xmlns="http://www.w3.org/2000/svg">
<path d="M-77.3234 258.489V-113.393C68.0322 -157.504 417.596 -221.331 420.927 -46.0602C425.09 173.029 250.767 258.489 109.488 225.341C105.412 277.653 62.3428 357.519 -77.3234 258.489Z" fill="#417C80"/>
<path d="M119.635 265.481C123.017 226.635 139.929 111.912 80.6077 0.295471C101.784 -73.6778 132.072 -43.8976 147.751 -2.48528C148.444 -0.653351 148.768 1.28624 148.804 3.24356C149.436 37.4438 160.524 129.092 184.16 130.299C214.602 131.852 211.219 47.687 211.219 -131.52H257.012C255.884 -117.968 254.306 -75.9972 257.012 -16.5376C260.394 57.7869 245.303 192.969 184.16 192.969C187.543 368.81 107.667 409.469 80.6077 422.935C53.5486 436.401 39.0349 521.995 53.5486 582.979C162.825 1042.13 38.1978 1113.61 -101 741.986V358.451C-83.481 352.84 -45.3729 334.523 -33.0923 306.139C-17.7415 270.66 10.8786 -393.339 40.7997 112.948C42.9904 150.017 48.345 306.139 53.5486 341.618C58.7523 377.097 116.253 304.327 119.635 265.481Z" fill="#694125"/>
<path d="M257.012 -16.5376C260.394 57.7869 245.303 192.969 184.16 192.969C187.543 368.81 107.667 409.469 80.6077 422.935C53.5486 436.401 39.0349 521.995 53.5486 582.979C83.3416 708.161 95.7479 804.527 95.213 870.954H-31.7914C-27.8886 870.263 37.001 820.662 39.4988 771.768C42.621 710.651 3.07316 745.871 -9.41563 612.242C-21.9044 478.614 15.3018 413.557 72.0216 397.556C120.676 383.83 169.33 279.724 169.33 233.369C169.33 187.013 147.995 180.539 192.486 177.431C228.079 174.945 243.916 45.5289 247.385 -18.8683H256.908C256.942 -18.0945 256.976 -17.3175 257.012 -16.5376Z" fill="url(#paint0_linear_75_999)"/>
<defs>
<linearGradient id="paint0_linear_75_999" x1="202.977" y1="497.04" x2="3.38795" y2="469.845" gradientUnits="userSpaceOnUse">
<stop offset="0.406312" stop-color="#926343"/>
<stop offset="1" stop-color="#694125"/>
</linearGradient>
</defs>
</svg>
