<svg width="329" height="832" viewBox="0 0 329 832" fill="none" xmlns="http://www.w3.org/2000/svg">
<path d="M280.861 152.114C283.848 122.357 298.785 34.4755 246.393 -51.0255C284.677 -167.021 321.636 47.8427 337.848 48.5604C407.781 51.6565 296.734 -152 402.188 -152C397.112 -99.072 430.348 96.5679 337.848 96.5679C340.835 231.267 270.291 262.412 246.393 272.728C222.496 283.044 177.992 471.227 190.81 517.942C287.32 869.667 149.963 1161.86 27.0272 877.189L0.471699 781.426C-1.54989 774.135 3.25774 766.11 8.59091 760.194C66.0836 696.423 139.584 300.929 109.849 96.5679C116.164 85.6208 171.551 111.169 181.373 114.109C184.071 131.477 189.727 236.651 191.224 271.319C197.644 258.806 276.287 197.677 280.861 152.114Z" fill="#56331B" fill-opacity="0.5"/>
</svg>
