<svg width="343" height="832" viewBox="0 0 343 832" fill="none" xmlns="http://www.w3.org/2000/svg">
<path d="M193.142 348.639C191.435 328.883 182.904 270.535 212.829 213.769C202.252 176.518 187.169 190.999 179.195 211.733C178.679 213.073 178.449 214.484 178.413 215.921C177.97 233.798 172.369 279.281 160.592 279.887C145.236 280.677 146.942 237.872 146.942 146.728H123.843C124.412 153.621 125.208 174.967 123.843 205.207C122.137 243.008 129.749 311.761 160.592 311.761C158.886 401.192 199.179 421.87 212.829 428.719C226.478 435.568 233.8 479.1 226.478 510.115C171.354 743.637 234.222 922.503 304.439 733.5C304.439 550.208 245.857 231.556 304.439 58.0191C353.238 -86.5367 248.003 13.57 232.91 271.062C231.804 289.915 229.103 369.318 226.478 387.362C223.853 405.406 194.848 368.396 193.142 348.639Z" fill="#694125" fill-opacity="0.3"/>
<path d="M244.788 130.254C247.169 102.664 259.074 21.1822 217.317 -58.0923C247.829 -165.641 277.287 33.5759 290.208 34.2414C345.947 37.112 257.44 -151.714 341.489 -151.714C337.443 -102.64 363.933 78.7528 290.208 78.7528C291.477 145.298 258.741 168.076 224.996 176.282C205.001 205.994 176.712 233.144 173.345 240.777C173.787 252.696 173.774 255.626 173.015 242.084C172.996 241.747 173.11 241.31 173.345 240.777C172.877 228.162 171.898 205.478 170.751 181.597C164.143 181.935 159.027 182.494 156.151 183.938C137.104 193.502 86.5436 462.41 96.76 505.722C173.681 831.833 140.459 1066.47 42.4758 802.527L-54.0708 717.224C-61.7867 710.407 -61.3174 693.868 -56.3259 684.846C-11.5806 603.971 41.1439 260.151 18.4546 78.7528C23.4881 68.6029 157.665 92.2907 165.493 95.016C166.8 104.799 168.976 144.631 170.751 181.597C184.591 180.89 204.971 181.152 224.996 176.282C235.389 160.838 243.541 144.702 244.788 130.254Z" fill="#56331B" fill-opacity="0.5"/>
</svg>
