<svg width="422" height="832" viewBox="0 0 422 832" fill="none" xmlns="http://www.w3.org/2000/svg">
<path d="M318.484 201.172C315.843 163.777 302.637 53.3388 348.96 -54.1081C332.678 -124.227 309.495 -97.5055 297.099 -58.6093C296.153 -55.638 295.742 -52.5659 295.672 -49.4482C294.899 -15.2142 286.224 69.8982 268.097 71.0388C244.325 72.5346 246.967 -8.48679 246.967 -181H211.208C212.088 -167.953 213.321 -127.551 211.208 -70.3123C208.567 1.23578 220.351 131.369 268.097 131.369C265.456 300.641 327.83 339.78 348.96 352.744C370.091 365.707 381.424 448.104 370.091 506.809C284.757 948.812 382.078 1017.62 490.776 659.877V290.669L490.333 290.494C476.267 284.944 437.748 269.745 437.748 240.311C437.748 28.9077 403.411 -433.039 380.046 54.3359C378.335 90.0203 374.154 240.311 370.091 274.465C366.027 308.618 321.125 238.566 318.484 201.172Z" fill="#694125"/>
<path d="M387.216 283.689L397.172 20.6807L374.01 14.199L365.273 193.692V283.689H387.216Z" fill="#926342"/>
<path d="M363.602 376.372C374.54 408.213 378.384 463.853 370.091 506.809C306.507 836.154 344.332 958.298 412.713 851.172C398.126 830.773 382.141 801.631 381.062 772.719C378.624 707.379 409.506 745.032 419.259 602.169C428.416 468.029 403.36 398.52 363.602 376.372ZM268.028 138.056C267.448 241.434 291.585 294.774 314.697 323.265C294.409 282.764 279.678 227.971 279.678 197.113C279.678 150.945 294.136 141.78 268.028 138.056ZM211.208 -70.312C209.018 -11.0024 216.743 88.5623 246.645 120.889C229.218 81.7783 220.889 -17.5634 218.725 -72.5562H211.287C211.26 -71.8112 211.236 -71.0628 211.208 -70.312Z" fill="url(#paint0_linear_75_1004)"/>
<path d="M518.873 96.5334C557.979 146.529 629.461 41.3369 580.453 -79.3055L13.3883 -145.008C-2.43452 -42.7954 33.291 -8.52649 113.946 -29.1782C83.1728 65.4744 277.431 194.348 322.633 112.416C352.164 214.553 531.998 226.465 518.873 96.5334Z" fill="#417C80"/>
<defs>
<linearGradient id="paint0_linear_75_1004" x1="253.403" y1="424.08" x2="410.238" y2="406.745" gradientUnits="userSpaceOnUse">
<stop offset="0.406312" stop-color="#926343"/>
<stop offset="1" stop-color="#694125"/>
</linearGradient>
</defs>
</svg>
