<svg width="26" height="26" viewBox="0 0 26 26" fill="none" xmlns="http://www.w3.org/2000/svg">
<g filter="url(#filter0_d_44_78)">
<path d="M18 2C18.5304 2 19.0391 2.21071 19.4142 2.58579C19.7893 2.96086 20 3.46957 20 4V18C20 18.5304 19.7893 19.0391 19.4142 19.4142C19.0391 19.7893 18.5304 20 18 20H4C3.46957 20 2.96086 19.7893 2.58579 19.4142C2.21071 19.0391 2 18.5304 2 18V4C2 3.46957 2.21071 2.96086 2.58579 2.58579C2.96086 2.21071 3.46957 2 4 2H18ZM17.5 17.5V12.2C17.5 11.3354 17.1565 10.5062 16.5452 9.89483C15.9338 9.28346 15.1046 8.94 14.24 8.94C13.39 8.94 12.4 9.46 11.92 10.24V9.13H9.13V17.5H11.92V12.57C11.92 11.8 12.54 11.17 13.31 11.17C13.6813 11.17 14.0374 11.3175 14.2999 11.5801C14.5625 11.8426 14.71 12.1987 14.71 12.57V17.5H17.5ZM5.88 7.56C6.32556 7.56 6.75288 7.383 7.06794 7.06794C7.383 6.75288 7.56 6.32556 7.56 5.88C7.56 4.95 6.81 4.19 5.88 4.19C5.43178 4.19 5.00193 4.36805 4.68499 4.68499C4.36805 5.00193 4.19 5.43178 4.19 5.88C4.19 6.81 4.95 7.56 5.88 7.56ZM7.27 17.5V9.13H4.5V17.5H7.27Z" fill="#FFD58C"/>
</g>
<defs>
<filter id="filter0_d_44_78" x="0" y="0" width="26" height="26" filterUnits="userSpaceOnUse" color-interpolation-filters="sRGB">
<feFlood flood-opacity="0" result="BackgroundImageFix"/>
<feColorMatrix in="SourceAlpha" type="matrix" values="0 0 0 0 0 0 0 0 0 0 0 0 0 0 0 0 0 0 127 0" result="hardAlpha"/>
<feOffset dx="2" dy="2"/>
<feGaussianBlur stdDeviation="2"/>
<feColorMatrix type="matrix" values="0 0 0 0 0 0 0 0 0 0 0 0 0 0 0 0 0 0 0.3 0"/>
<feBlend mode="normal" in2="BackgroundImageFix" result="effect1_dropShadow_44_78"/>
<feBlend mode="normal" in="SourceGraphic" in2="effect1_dropShadow_44_78" result="shape"/>
</filter>
</defs>
</svg>
