<svg width="26" height="26" viewBox="0 0 26 26" fill="none" xmlns="http://www.w3.org/2000/svg">
<g filter="url(#filter0_d_44_79)">
<path d="M7.22 2H14.78C17.66 2 20 4.34 20 7.22V14.78C20 16.1644 19.45 17.4922 18.4711 18.4711C17.4922 19.45 16.1644 20 14.78 20H7.22C4.34 20 2 17.66 2 14.78V7.22C2 5.83557 2.54996 4.50784 3.5289 3.5289C4.50784 2.54996 5.83557 2 7.22 2ZM7.04 3.8C6.1807 3.8 5.35659 4.14136 4.74897 4.74897C4.14136 5.35659 3.8 6.1807 3.8 7.04V14.96C3.8 16.751 5.249 18.2 7.04 18.2H14.96C15.8193 18.2 16.6434 17.8586 17.251 17.251C17.8586 16.6434 18.2 15.8193 18.2 14.96V7.04C18.2 5.249 16.751 3.8 14.96 3.8H7.04ZM15.725 5.15C16.0234 5.15 16.3095 5.26853 16.5205 5.4795C16.7315 5.69048 16.85 5.97663 16.85 6.275C16.85 6.57337 16.7315 6.85952 16.5205 7.0705C16.3095 7.28147 16.0234 7.4 15.725 7.4C15.4266 7.4 15.1405 7.28147 14.9295 7.0705C14.7185 6.85952 14.6 6.57337 14.6 6.275C14.6 5.97663 14.7185 5.69048 14.9295 5.4795C15.1405 5.26853 15.4266 5.15 15.725 5.15ZM11 6.5C12.1935 6.5 13.3381 6.97411 14.182 7.81802C15.0259 8.66193 15.5 9.80653 15.5 11C15.5 12.1935 15.0259 13.3381 14.182 14.182C13.3381 15.0259 12.1935 15.5 11 15.5C9.80653 15.5 8.66193 15.0259 7.81802 14.182C6.97411 13.3381 6.5 12.1935 6.5 11C6.5 9.80653 6.97411 8.66193 7.81802 7.81802C8.66193 6.97411 9.80653 6.5 11 6.5ZM11 8.3C10.2839 8.3 9.59716 8.58446 9.09081 9.09081C8.58446 9.59716 8.3 10.2839 8.3 11C8.3 11.7161 8.58446 12.4028 9.09081 12.9092C9.59716 13.4155 10.2839 13.7 11 13.7C11.7161 13.7 12.4028 13.4155 12.9092 12.9092C13.4155 12.4028 13.7 11.7161 13.7 11C13.7 10.2839 13.4155 9.59716 12.9092 9.09081C12.4028 8.58446 11.7161 8.3 11 8.3Z" fill="#FFD58C"/>
<path d="M15.7246 6.27441L15.9902 6.00977M15.7246 6.27441L15.9902 6.54004M15.7246 6.27441L15.9902 6.00977M15.7246 6.27441L15.9902 6.54004M15.9902 6.00977L16.0371 6.06738C16.0641 6.10798 16.0832 6.15337 16.0928 6.20117L16.0996 6.27539L16.0928 6.34863C16.0784 6.42062 16.0429 6.48734 15.9902 6.54004M15.9902 6.00977C15.9376 5.95709 15.8708 5.92167 15.7988 5.90723L15.7246 5.90039C15.6501 5.90047 15.5777 5.9221 15.5166 5.96289L15.46 6.00977C15.3896 6.08009 15.3496 6.17594 15.3496 6.27539L15.3574 6.34863C15.3719 6.42065 15.4073 6.48733 15.46 6.54004C15.5302 6.61027 15.6253 6.65029 15.7246 6.65039C15.8241 6.65039 15.9199 6.61037 15.9902 6.54004" stroke="#FFD58C" stroke-width="3"/>
</g>
<defs>
<filter id="filter0_d_44_79" x="0" y="0" width="26" height="26" filterUnits="userSpaceOnUse" color-interpolation-filters="sRGB">
<feFlood flood-opacity="0" result="BackgroundImageFix"/>
<feColorMatrix in="SourceAlpha" type="matrix" values="0 0 0 0 0 0 0 0 0 0 0 0 0 0 0 0 0 0 127 0" result="hardAlpha"/>
<feOffset dx="2" dy="2"/>
<feGaussianBlur stdDeviation="2"/>
<feColorMatrix type="matrix" values="0 0 0 0 0 0 0 0 0 0 0 0 0 0 0 0 0 0 0.3 0"/>
<feBlend mode="normal" in2="BackgroundImageFix" result="effect1_dropShadow_44_79"/>
<feBlend mode="normal" in="SourceGraphic" in2="effect1_dropShadow_44_79" result="shape"/>
</filter>
</defs>
</svg>
